<svg width="88" height="88" viewBox="0 0 88 88" fill="none" xmlns="http://www.w3.org/2000/svg">
<g clip-path="url(#clip0_843_456)">
<g opacity="0.1">
<path d="M84.0072 27.6748L84.5738 27.413C85.7622 29.122 85.7346 31.0653 85.5826 33.0775C85.9833 33.0775 86.3012 33.1051 86.7157 33.1189C86.4117 33.9044 87.4205 34.8279 86.3564 35.6135C86.5775 35.4894 86.7848 35.3792 87.0612 35.2138C87.4481 36.1096 86.3288 37.2949 87.918 37.9289C87.3514 38.1356 87.1303 38.2183 86.8263 38.3286C87.0889 38.7972 87.4067 39.2382 87.5863 39.7481C87.6831 40.0238 87.5311 40.3821 87.4758 40.6991C87.3929 41.1402 86.7019 41.6225 87.6416 41.9809C87.8213 42.0498 87.8489 42.4908 87.9456 42.7665C87.3652 42.6424 86.9645 42.5459 86.5637 42.4633C86.6881 42.8905 86.8125 43.3178 86.9645 43.745C86.9645 43.745 87.2132 43.6348 87.2685 43.6761C87.5311 43.8691 87.918 44.0758 87.9594 44.3377C88.0562 44.8614 87.9733 45.4127 87.9594 46.0604C87.766 46.0604 87.5587 46.0742 87.5449 46.0742C87.227 46.8185 86.9368 47.4662 86.6466 48.1278C86.9645 48.0864 87.2961 48.0451 87.7522 47.99C87.462 49.3131 88.0424 50.774 86.5637 51.5458C87.6693 53.2135 86.3703 54.6882 86.2735 56.218C84.9469 56.4661 84.9193 56.5763 85.4029 57.6789C85.5273 57.9683 85.3753 58.4783 85.168 58.7677C84.9607 59.0709 84.5323 59.2088 84.1177 59.4844C84.4218 59.5809 84.6567 59.6636 85.1265 59.8014C84.5461 60.9315 83.9657 62.0341 83.4268 63.1505C83.0951 63.8534 82.8602 64.6114 82.4871 65.2868C82.3074 65.6037 81.9067 65.7967 81.6027 66.0448C81.5336 65.9621 81.4645 65.8932 81.3954 65.8105C81.1881 66.6099 81.119 67.5057 80.7182 68.181C80.3313 68.8426 79.5713 69.2836 78.7559 70.0003C79.1843 69.7798 79.364 69.6833 79.6542 69.5317C79.0185 70.4138 78.521 71.2958 77.8301 71.9849C77.5675 72.2468 76.8765 72.0952 76.3791 72.1366L76.8627 73.1702C75.8816 74.0936 74.9419 74.9895 73.9883 75.8853C73.9745 75.8578 73.9607 75.8164 73.9469 75.7889L73.4079 76.6709C73.0486 76.4229 72.6894 76.1886 72.2333 75.8853C72.0122 76.3677 71.57 76.9052 71.5976 77.4152C71.6529 78.7658 71.0034 78.7658 70.0637 78.3524C69.8979 78.8623 69.8426 79.386 69.5662 79.7306C69.4004 79.9373 68.8753 79.8271 68.3363 79.8822C68.212 80.4886 67.8941 81.1364 66.9268 80.3646C66.0147 82.1976 62.9469 83.7826 60.2798 84.8025C60.3074 84.3339 60.3351 83.9342 60.3627 83.5207C60.3074 83.4656 60.2522 83.4243 60.1969 83.3691C59.8652 83.8653 59.5474 84.3752 59.2019 84.8576C59.0499 85.0644 58.8012 85.4089 58.6491 85.3813C57.3225 85.1195 56.4105 86.0429 55.3049 86.415C54.5034 86.6769 53.5914 86.608 52.5411 86.7044C52.4444 86.5253 52.2094 86.1256 51.9192 85.6156C51.0901 86.2083 50.4959 87.4073 49.2107 86.6769C49.1831 87.0628 49.1554 87.3384 49.1278 87.807C48.2986 87.6554 47.511 87.49 46.7094 87.3936C46.4192 87.3522 46.1152 87.49 45.825 87.5038C45.5072 87.5314 45.1755 87.5038 44.678 87.5176C44.4569 87.8897 44.1253 88.4272 43.3376 87.6279C43.1027 87.3936 42.3841 87.5452 41.9142 87.6416C40.6429 87.9173 39.4406 87.8346 38.4318 86.9388C37.5888 86.1945 36.5662 86.5391 35.668 86.4977C34.7283 86.4426 33.7471 85.781 32.8074 86.4977C32.766 86.5253 32.6416 86.4977 32.6002 86.4564C32.0198 85.7948 31.4394 85.1195 30.8451 84.4166C30.2785 84.4717 29.5047 84.5406 28.6064 84.6371C28.3162 85.1608 28.1228 85.1333 25.5939 83.8377C25.8288 83.5621 26.0499 83.3002 26.3401 82.9557C25.5524 82.8867 24.8476 82.7627 24.1567 82.8041C22.9821 82.8592 22.8853 82.7903 23.065 81.6877C23.1064 81.4672 23.0373 81.2467 22.9959 80.8745C22.4569 81.2467 22.0562 81.5223 21.6831 81.7704C21.462 81.5774 21.2961 81.412 21.1027 81.288C20.2321 80.7643 19.2371 80.3784 18.5323 79.6893C17.6893 78.8761 17.9381 78.4351 19.3338 77.8562C19.168 77.7322 18.9745 77.5254 18.9331 77.5668C18.0486 78.1181 17.2748 77.6081 16.4733 77.3463C16.3213 77.3049 16.1969 77.1947 16.0587 77.112C15.6441 76.8639 15.2434 76.6158 14.8288 76.3677C14.7321 76.4504 14.6353 76.5331 14.5386 76.6158C14.5248 76.3539 14.5801 76.0645 14.4695 75.8578C14.2899 75.5408 13.9997 75.2789 13.7509 74.9895C13.1843 75.4719 12.6868 75.086 12.5486 74.6587C12.369 74.1212 11.7748 73.4734 12.5348 72.8808C12.6316 72.8119 12.6592 72.6741 12.5763 72.3984C12.1893 72.6327 11.7886 72.867 11.3602 73.1289C10.5172 72.233 9.14915 71.6955 9.20442 70.1243C8.52729 70.083 7.61523 68.9115 7.35266 67.9881C6.97955 66.6926 6.1504 65.6175 5.39035 64.5149C4.60267 63.371 3.99462 62.0893 3.33131 60.8489C3.28985 60.7662 3.44186 60.5594 3.55241 60.4354C3.73206 60.2424 3.92553 60.077 4.24337 59.7876C2.05995 59.4293 2.66799 58.7953 3.6906 57.3344C3.30367 57.169 2.86146 57.0036 2.21196 56.7279C2.80618 56.2318 3.12402 55.9699 3.45568 55.6943C3.42804 55.6391 3.4004 55.584 3.37277 55.5289C3.02729 55.6667 2.66799 55.7907 2.00467 56.0526C2.84764 54.5779 0.926785 54.2609 1.12025 52.8413C1.24462 51.9593 1.86648 51.6561 2.18432 50.6913C1.53483 50.9532 1.09261 51.1323 0.636584 51.3115C0.539851 50.4983 0.429298 49.4785 0.304926 48.4448C0.55367 48.307 0.802413 48.1691 1.10643 47.99C-0.330752 47.5214 -0.0681895 46.7358 0.650403 45.8399C-0.137285 44.3239 0.125278 42.8216 0.429298 41.1815C0.608946 40.1892 0.304926 39.1693 1.23081 38.3975C1.31372 38.3286 1.24462 37.9564 1.14789 37.7773C0.0976396 35.9304 1.32754 34.2766 1.5901 32.54C1.68684 31.8784 2.14287 31.2582 2.19814 30.5967C2.28106 29.6457 2.75091 29.1358 3.6906 28.8188C3.4004 28.5845 3.20694 28.4191 2.80618 28.1021C3.55241 27.1098 4.29865 26.1037 5.01724 25.1389C5.01724 24.6841 5.01724 24.1328 4.9896 23.5815C5.11397 23.5677 5.23834 23.5539 5.36272 23.5264C5.59764 23.7882 5.81875 24.0363 6.16422 24.4222C6.33005 24.119 6.45442 23.8847 6.5788 23.6642C6.39915 23.5677 6.19186 23.485 6.02603 23.361C5.87402 23.2645 5.6391 23.1405 5.62528 23.0026C5.50091 22.3687 6.71699 21.0042 7.14538 20.8113C8.01598 19.4055 8.80367 17.9308 9.78483 16.6077C10.4481 15.7118 11.4017 15.0365 12.3966 14.1131C12.3828 14.1131 12.1893 14.0993 11.9682 14.0717C12.7145 13.7961 12.7559 12.0182 14.276 12.9553C14.4004 12.4041 14.428 11.839 14.6906 11.4117C14.8426 11.1774 15.3954 11.0947 15.7547 11.1085C16.3489 11.1361 16.5838 10.9431 16.4871 10.3643C16.3489 9.49599 17.0537 9.46843 17.5788 9.24791C17.8414 9.13765 18.1868 9.06874 18.3388 8.862C18.7672 8.2418 20.1906 7.91103 20.7848 8.36584C20.8539 8.42097 20.8539 8.55879 20.8954 8.65527C20.9783 8.51745 21.1027 8.39341 21.1165 8.2418C21.1165 8.14533 21.0059 7.97994 20.8954 7.93859C20.3288 7.70429 20.1768 7.13922 20.7019 6.83601C21.6969 6.27093 22.7471 5.81612 23.8112 5.37508C24.0047 5.29239 24.3225 5.49912 24.5851 5.56803C24.4193 4.2725 26.575 3.45934 28.9934 3.88659C28.8275 3.40421 28.9519 3.23883 29.6567 3.101C30.3062 2.97696 30.9695 2.89427 31.6881 2.78401C31.6605 2.67375 31.5637 2.35676 31.467 2.02598C33.5813 1.55738 35.6265 1.06122 37.6994 0.661535C38.0034 0.606406 38.418 0.868269 38.7358 1.06122C39.1642 1.32309 39.413 1.44713 39.9381 1.06122C40.6981 0.50993 41.5964 -0.413485 42.6328 0.81314C42.7434 0.937181 43.4481 0.826923 43.5863 0.63397C44.1391 -0.165403 44.9821 -0.0275802 45.4519 0.316977C46.4469 1.06122 47.3313 0.606406 48.3263 0.537494C49.4456 0.4548 50.6341 0.647753 51.7258 0.923399C52.4996 1.11635 53.1906 1.66764 53.7848 1.98464C53.7848 2.02598 53.7157 1.76412 53.5637 1.3093C54.0474 1.37821 54.4343 1.41956 55.0838 1.50226C54.6278 1.8606 54.4067 2.05355 54.1441 2.26028C54.4481 2.64619 54.7245 2.97696 54.8904 3.19748C56.5625 3.12857 58.3175 1.65386 59.2848 3.63851C60.1693 3.66608 60.9846 3.44556 61.3162 3.74877C61.9657 4.32763 63.2647 3.96929 63.4167 5.20969C63.4167 5.23726 63.7208 5.27861 63.8589 5.25104C64.8263 5.03052 65.1718 5.34752 64.9783 6.32606C64.923 6.58793 64.9368 6.84979 64.8954 7.34595C65.4481 7.08409 65.7936 6.84979 66.1667 6.76709C66.8162 6.62927 67.5072 6.71197 67.4934 7.55269C67.4796 8.68283 68.3225 8.48988 68.82 8.37962C69.5386 8.22802 69.7321 8.46232 70.1052 9.01361C70.6027 9.74407 71.418 10.2678 72.0813 10.888C72.2886 11.081 72.4268 11.3428 72.6617 11.4944C72.9796 11.7012 73.325 11.9355 73.6843 11.9768C74.2371 12.0457 75.7019 13.4929 75.5914 13.989C75.5084 14.3887 75.3979 14.7884 75.2321 15.4637C75.923 15.2294 76.3652 15.0778 76.8627 14.8987C77.5537 15.6429 77.4846 16.3596 76.1441 17.0073C76.6416 17.2003 77.0009 17.4622 77.1391 17.3657C77.4569 17.1727 77.6642 16.8006 77.9959 16.3871C78.065 16.4285 78.3414 16.4974 78.4381 16.6766C79.0461 17.7102 79.6127 18.7577 80.1931 19.8052C80.3728 20.1084 80.5386 20.4529 80.7873 20.6872C81.3263 21.1972 81.8514 21.6795 81.9205 22.5065C81.9896 23.3748 82.8326 23.802 83.2057 24.436C83.7308 25.3594 83.7861 26.5585 84.0486 27.6886L84.0072 27.6748ZM75.3426 66.8166C75.1353 66.2377 74.7208 65.6037 74.8728 65.3694C75.4808 64.4874 76.2823 63.7431 76.9871 62.9162C77.2911 62.5579 77.8162 61.8687 77.7471 61.8136C76.7245 60.7799 77.7748 60.4905 78.3414 60.0357C77.9959 59.2225 78.7836 57.7616 79.6542 57.5411C79.8615 57.486 80.0411 57.3344 80.2208 57.2241C80.0135 57.1001 79.8062 56.9622 79.5851 56.8658C79.5022 56.8244 79.3778 56.8933 79.2534 56.9071C79.3502 55.8734 80.3175 55.3084 80.2622 54.316C80.2346 53.7923 80.2622 53.241 80.4004 52.7449C80.6768 51.7939 81.6718 51.0221 81.0223 49.8506C80.9255 49.6714 81.119 49.2717 81.271 49.0512C82.1693 47.7419 81.8514 46.3223 81.7409 44.9027C81.6579 43.8277 81.7409 42.7389 81.7409 41.6501C81.7409 41.1126 81.962 40.2994 81.6994 40.1065C80.7597 39.4036 81.3125 38.742 81.2987 38.108C81.0637 37.3914 80.815 36.6885 80.5248 35.834C81.1052 35.834 81.4645 35.834 81.8376 35.834C79.9306 35.324 79.9996 33.6839 79.6818 32.2368C79.9858 32.1541 80.276 32.0714 80.6215 31.9887L78.977 28.4742C76.6969 27.854 77.3049 25.7867 76.9733 24.1466C76.2547 24.0777 75.5775 24.1052 75.4255 23.0302C75.3426 22.41 74.32 21.969 75.0662 21.142C74.8728 21.0593 74.776 20.9766 74.6655 20.9629C73.2836 20.9353 72.5097 20.2324 72.3024 18.868C72.2748 18.7026 72.026 18.5647 71.8602 18.4407C71.2522 18.0272 70.6303 17.6275 69.9808 17.2141C70.3125 16.8971 70.5198 16.7041 70.727 16.5112C69.7735 17.3243 69.3589 16.5112 68.8891 15.9461C69.0826 15.7669 69.2899 15.5602 69.4971 15.3673C69.4971 15.257 69.4833 15.133 69.4695 15.0227C68.364 15.9737 67.7836 15.1605 67.1617 14.5817C66.83 14.2647 66.6366 13.5756 66.3187 13.5204C64.9507 13.2999 64.1353 12.4868 63.5964 11.2601C62.6567 11.8665 61.8552 11.3428 61.565 10.6951C61.3439 10.1851 61.7999 9.38573 62.0072 8.4761C61.5235 8.90335 61.2057 9.20656 60.9708 9.4133C60.5562 9.16522 60.2522 8.84822 59.9067 8.80688C59.2572 8.72418 58.5801 8.73796 57.9306 8.82066C56.5072 9.01361 55.7333 8.61392 55.2358 7.33217C55.1391 7.08409 54.9318 6.89114 54.7107 6.58793C54.31 7.93859 53.2182 7.97994 51.3665 6.84979C51.4909 6.57414 51.6152 6.31228 51.7396 6.03663C51.712 5.94016 51.6981 5.8299 51.6705 5.73342C49.9569 7.02896 48.2848 7.59403 46.8062 5.80233C45.4243 7.09787 43.766 6.27093 42.1768 6.56036C42.2873 6.28471 42.3564 6.09176 42.4255 5.94016C42.1353 5.84368 41.8313 5.73342 41.5273 5.65073C41.3062 5.5956 41.0713 5.60938 40.8502 5.58182C40.9607 5.80233 41.0298 6.0642 41.1956 6.2158C41.2785 6.28471 41.5411 6.17446 41.7208 6.13311C41.6793 6.25715 41.624 6.38119 41.5826 6.49145C40.2283 6.79466 38.874 7.04274 37.7132 5.65073C36.967 6.9187 35.8753 6.58793 34.7836 6.2985C34.6177 6.25715 34.4105 6.38119 33.9959 6.47767C34.4381 6.86357 34.7283 7.12543 35.0876 7.44243C34.7698 7.56647 34.5348 7.67673 34.2999 7.73186C32.8765 8.11776 31.4117 8.26937 30.0851 9.01361C28.6755 9.7992 27.0172 10.2265 25.7182 11.1499C24.5436 11.9768 23.7698 11.6736 22.8024 10.888C22.7333 11.2877 22.6919 11.6047 22.6642 11.7701C23.0097 11.8252 23.2584 11.8665 23.5072 11.9079C23.3828 12.1973 23.3414 12.597 23.1203 12.7486C21.7936 13.6582 20.3703 14.4438 19.0851 15.4086C18.3803 15.9323 17.9105 16.7455 17.3162 17.4208C16.9293 17.8618 16.4733 18.2753 16.114 18.7439C15.6856 19.2952 15.2986 19.9016 14.7459 18.8955C14.124 19.2952 13.5713 19.6398 13.0185 19.9981C13.0738 20.0532 13.1152 20.1084 13.1705 20.1635C13.668 20.1359 14.1517 20.1084 14.6491 20.0808C14.7044 20.26 14.7459 20.4254 14.8012 20.6045C13.9997 21.1558 13.1843 21.7071 12.2999 22.3135C12.4243 22.4514 12.6454 22.6581 12.8527 22.8786C12.7421 23.0716 12.5348 23.485 12.4934 23.4712C11.5675 23.0991 11.761 23.8434 11.7748 24.2431C11.8162 25.0286 11.4708 25.3181 10.7245 25.3732C10.4343 25.4008 10.0888 25.5937 9.92302 25.828C9.74337 26.0761 9.77101 26.462 9.67427 26.8893C9.79865 27.0684 10.0059 27.3716 10.227 27.7024C9.60518 28.0608 9.09387 28.364 8.43055 28.7499C8.87277 29.0255 9.13533 29.2047 9.56372 29.4665C9.14915 29.7973 8.78985 30.073 8.43055 30.3624C8.51347 30.5002 8.6102 30.6794 8.85895 31.0929C8.22327 31.0239 7.79488 30.9826 7.40794 30.9413C7.25593 31.7682 7.11774 32.5813 6.97955 33.3945L8.12653 32.857C8.0298 33.174 7.98834 33.3394 7.91925 33.5048C7.57377 34.3179 7.04864 35.1035 6.91045 35.958C6.71699 37.1571 6.81372 38.4113 6.7999 39.4449C6.30241 39.7206 6.01221 39.886 5.72201 40.0514C5.90166 40.2719 6.10895 40.4648 6.23332 40.7129C6.31623 40.8921 6.33005 41.1402 6.27478 41.3469C6.19186 41.7052 5.83256 42.16 5.94312 42.353C6.45442 43.1524 5.66674 43.5658 5.48709 44.1309C6.97955 45.0405 6.81372 46.0329 4.80995 47.2182C5.47327 47.8659 6.09513 48.4586 6.71699 49.0512C6.60643 49.0512 6.5097 49.0512 6.39915 49.0512C6.41297 49.5198 6.28859 50.3192 6.46824 50.4019C7.55995 50.8567 7.18684 51.5734 6.92427 52.2763C6.77226 52.7173 6.5788 53.1445 6.33005 53.7647C7.12235 53.3329 7.63826 53.5856 7.87779 54.5228C7.53231 54.9362 7.29739 55.2395 7.04864 55.5427C8.14035 55.5427 8.58256 55.9148 8.58256 56.7831C8.58256 57.1001 8.52729 57.5824 8.69312 57.6789C9.72955 58.3267 9.06623 59.8427 10.1579 60.4354C10.227 60.4629 10.2685 60.6835 10.227 60.7248C9.38407 61.7585 10.6416 62.6681 10.9042 62.7646C11.9959 63.1643 11.9821 63.7983 11.8024 64.3633C12.369 64.7355 12.8112 65.0249 13.2672 65.3281C13.0323 65.6175 12.8803 65.7967 12.7007 66.0172C13.364 66.1137 14.3175 65.7967 13.7509 66.982C13.6956 67.0922 13.8891 67.4092 14.0549 67.5195C14.7873 68.0294 15.5336 68.498 16.5147 69.1458C15.8376 69.4077 15.5198 69.5317 15.2157 69.6557C15.2157 69.959 15.1743 70.2622 15.2157 70.5378C15.2434 70.6756 15.4092 70.8272 15.5474 70.8824C15.6303 70.9237 15.8238 70.841 15.8929 70.7583C16.1692 70.4413 16.4318 70.1106 16.6529 69.8349C18.3941 71.3234 20.011 72.7154 21.6969 74.1626C21.462 74.3831 21.2409 74.6036 21.0336 74.7965C21.1165 74.9206 21.1441 75.0308 21.1994 75.0308C22.761 75.1411 24.3363 75.21 24.8615 77.1395C24.8891 77.236 25.1378 77.8149 25.6215 77.236C26.0499 76.7261 26.7409 77.0017 27.1831 77.5254C27.3489 77.7184 27.4733 78.0078 27.6667 78.0767C29.3112 78.6142 30.9695 79.0966 32.614 79.6203C33.9268 80.0476 35.2258 80.53 36.5386 80.971C36.6906 81.0261 36.8841 80.9297 37.0637 80.9434C37.575 80.9848 38.1416 80.9434 38.5976 81.1364C39.3577 81.4534 40.0486 81.9082 40.7672 82.3217C40.7672 81.9496 40.7396 81.605 40.7258 81.3018C41.7622 81.3018 42.7572 81.2742 43.766 81.3293C44.0285 81.3293 44.3602 81.5361 44.5122 81.7566C45.1893 82.7489 45.8665 82.7903 46.6956 81.8944C46.8891 81.6877 47.3037 81.5223 47.5524 81.5774C48.2434 81.729 48.9205 82.0185 49.5976 82.2528C49.6806 82.1563 49.7635 82.0598 49.8464 81.9633C49.6253 81.6463 49.4042 81.3294 48.9758 80.7229C49.9569 80.9848 50.6617 81.1777 51.4494 81.3983C51.5323 81.2467 51.712 80.9297 51.8916 80.6127C52.2647 81.0675 52.5826 81.4672 53.0248 82.0047C53.2321 81.4947 53.3841 81.2053 53.467 80.8883C53.6881 80.02 54.3929 79.7719 55.0562 79.9925C55.6642 80.1854 56.1755 79.8409 56.3414 79.6479C57.3502 78.4626 58.4419 78.5729 59.4368 79.0828C59.879 78.6005 60.2107 78.1319 60.6391 77.7873C61.0537 77.4427 61.6064 77.2774 62.0348 76.9466C63.6102 75.7475 65.1718 74.5347 66.9821 74.3969C67.1064 73.9007 67.0926 73.4734 67.2999 73.2529C67.7421 72.7843 68.2949 72.426 69.0687 71.8196C68.8338 72.3295 68.7371 72.5362 68.516 73.0324L70.0084 72.3433C69.9393 71.7782 69.967 71.2269 70.2572 70.9513C71.2245 70.0279 72.413 69.5041 73.864 69.6144C73.5876 69.2561 73.3388 68.9253 73.1177 68.6221C72.7861 68.7185 72.4959 68.7875 72.0951 68.8977C72.6203 68.181 73.0763 67.616 73.4632 67.0233C73.9469 66.2791 74.2233 66.6512 74.472 67.1474L75.2873 66.7615L75.3426 66.8166Z" fill="#5E3B3B"/>
<path d="M13.5439 30.9275C13.2122 30.9275 13.0188 30.9275 12.8253 30.9275C12.8253 30.8724 12.8115 30.8035 12.7977 30.7483C13.0464 30.707 13.3642 30.7483 13.5301 30.6105C13.765 30.4176 14.1105 30.0041 14.0414 29.8249C13.5577 28.5294 14.0828 27.5509 15.52 27.3717C15.2851 26.6412 15.3127 26.2002 16.1557 25.6213C17.0401 25.0011 17.3441 23.5816 17.9522 22.5479C18.1733 22.1758 18.5464 21.9001 18.9748 21.4591C19.1406 22.0104 19.2374 22.3136 19.3341 22.6168C19.4308 22.5892 19.5276 22.5617 19.6243 22.5203C19.5276 22.2584 19.4032 22.0104 19.3479 21.7347C19.3065 21.5004 19.265 21.1834 19.3755 21.0318C19.873 20.4254 20.3843 19.819 20.9786 19.3228C21.3655 18.992 21.9183 18.8542 22.3881 18.6337C22.4572 18.744 22.5263 18.8404 22.5954 18.9507C22.7612 18.5924 22.8856 18.2202 23.0929 17.8895C23.3002 17.5449 23.5766 16.9936 23.8391 16.9798C24.8065 16.9247 25.4145 16.2494 26.1884 15.891C26.6444 15.6705 27.2939 15.8772 27.7776 15.891C28.0816 15.6016 28.4547 15.2019 28.8693 14.8436C29.4911 14.3061 30.1406 13.7823 30.8039 13.3C31.1218 13.0657 31.5502 12.7487 31.868 12.8176C33.2361 13.0932 34.0376 12.2387 35.0464 11.5909C35.5577 11.2602 36.4836 10.6675 37.3266 11.3842C37.4509 11.4945 37.7964 11.3842 38.0313 11.3015C38.7223 11.081 39.3856 10.7502 40.0904 10.6262C40.6846 10.5159 41.3064 10.64 41.8869 10.6675C42.6607 10.5297 43.4346 10.2954 44.2085 10.2954C45.5627 10.2954 46.917 10.4608 48.2575 10.5848C48.4924 10.5986 48.7964 10.6675 48.9208 10.8329C49.4459 11.4807 50.0816 11.3704 50.7864 11.274C51.1318 11.2326 51.5188 11.4669 51.8919 11.5496C52.3479 11.6461 52.8454 11.6461 53.2876 11.7839C53.8404 11.9631 54.3517 12.3076 54.9044 12.4868C55.3328 12.6246 55.5816 13.6996 56.3278 12.7487C56.4522 12.5833 57.4472 13.0932 58.069 13.3137C57.8894 13.6307 57.7374 13.9064 57.6406 14.0718C58.1657 14.2647 58.6632 14.4577 59.3127 14.692C61.2474 13.3413 60.6255 16.2494 61.7311 16.4423C62.4497 15.574 62.7951 15.6843 63.4723 17.0212C64.1632 16.9523 64.8127 16.9523 64.7436 17.9446C65.8353 18.11 66.6645 18.551 66.858 19.7776C66.8856 19.9706 67.1896 20.1635 67.3969 20.3014C67.8391 20.6046 68.3642 20.8113 68.7374 21.1834C69.373 21.7899 69.9673 22.4652 70.4786 23.1819C70.824 23.6505 71.0037 24.2431 71.2386 24.7668C71.6255 25.2768 72.0678 25.7592 72.4271 26.2967C73.1042 27.3166 73.7537 28.3364 74.3479 29.3977C74.5552 29.7836 74.569 30.2798 74.6519 30.7208C74.6796 30.8173 74.6243 30.9689 74.6796 31.024C76.4484 32.9673 76.6142 35.4481 77.0703 37.8462C77.2223 38.6043 77.5263 39.252 76.8768 39.9136C76.7663 40.0376 76.8492 40.5751 77.015 40.713C78.162 41.6639 77.7059 42.7941 77.4987 43.9242C77.4572 44.1172 77.5539 44.3239 77.5816 44.5307C77.6369 44.9992 77.775 45.4678 77.7336 45.9227C77.6092 46.9977 77.4434 48.0589 77.1946 49.1202C77.1255 49.4509 76.7524 49.7128 76.4899 50.0436C76.6833 50.209 76.8906 50.4019 77.1255 50.5949C77.1255 50.6362 77.1532 50.7051 77.1255 50.774C76.7939 52.0144 76.559 53.2962 76.0891 54.4815C75.5502 55.8597 74.8039 57.1552 74.1821 58.5059C74.0715 58.754 74.265 59.1537 74.1268 59.3466C73.6431 60.0357 73.5326 61.1383 72.2889 61.0556C72.0954 61.0556 71.8881 61.4277 71.5979 61.7034C71.9572 61.8137 72.2336 61.9101 72.51 62.0066C72.2612 62.8749 71.7499 62.9576 71.0175 62.4614C71.2939 63.9499 70.7688 64.5426 69.8014 65.4522C69.3454 65.8794 68.1984 66.0724 68.4472 67.2025C68.4886 67.3679 68.074 67.74 67.8115 67.8227C67.0376 68.0433 67.0238 68.0019 66.9271 68.6359C65.3931 69.8901 63.9283 71.0754 62.422 72.302C61.8278 71.5026 61.3441 71.1856 60.9848 72.3433C60.6394 73.4459 59.7549 73.9972 58.7185 74.3969C57.917 74.7139 57.1431 75.1136 56.618 75.3617C56.2173 74.8793 55.9823 74.6036 55.7474 74.3418C55.6645 74.645 55.623 74.9895 55.471 75.2514C55.2776 75.5684 54.9874 75.8303 54.6557 76.2299L53.868 74.5347C53.7298 75.6373 53.9095 76.7812 52.5828 76.5056C52.3755 76.4642 52.2097 76.1335 52.0162 75.9267C51.574 76.2437 51.0904 76.6985 50.4962 76.9742C49.363 77.5117 48.2575 77.7184 47.1796 76.7123C46.5577 76.1335 46.3366 76.3264 46.074 77.1671C46.0049 77.4014 45.2311 77.6909 45.01 77.553C44.4572 77.2223 44.1394 77.1534 43.6281 77.6633C43.4346 77.87 42.7298 77.6082 42.2738 77.4979C41.9974 77.429 41.7487 77.1258 41.4999 77.112C40.5879 77.0982 39.6758 77.2636 38.7776 77.1809C37.5615 77.0707 36.3592 76.8639 35.1846 76.5607C34.922 76.4918 34.8115 75.844 34.6042 75.403C33.8165 76.1197 32.7663 76.2024 31.7851 75.5133C30.9836 74.9482 30.3203 74.2039 29.5464 73.4735C28.1921 74.4245 27.0728 73.1841 25.912 72.5501C25.0967 72.0952 24.4057 71.3924 23.6733 70.7859C23.0376 70.2622 22.4434 69.7109 21.8077 69.201C21.3379 68.8151 20.7436 68.5394 20.3429 68.0846C19.7625 67.4093 19.3479 66.5961 18.7813 65.907C18.4773 65.5211 17.966 65.3144 17.6482 64.9422C16.9987 64.1842 16.3492 63.3986 15.8102 62.5717C15.2575 61.7447 14.76 60.8765 14.3592 59.9806C13.4472 57.9822 12.5904 55.97 11.7612 53.9302C11.5954 53.5305 11.6783 53.0343 11.5125 52.6622C11.2914 52.042 10.9874 51.4218 10.8492 50.7878C10.6004 49.5612 10.3931 48.3208 11.0841 47.1355C11.1255 47.0528 10.7939 46.8047 10.7801 46.6256C10.711 45.9089 10.172 45.0819 11.2085 44.5858C11.2499 44.5582 11.1117 43.9104 11.0288 43.8967C9.93711 43.8553 10.1997 43.1386 10.2549 42.4909C10.3655 41.2642 10.3517 40.0238 10.5728 38.811C10.8906 37.0331 11.2499 35.2552 11.8165 33.5462C12.1067 32.6503 12.8806 31.9061 13.5439 30.9413V30.9275ZM63.0163 36.2475C64.2738 38.935 65.4761 41.4985 66.706 44.131C67.3278 43.8415 67.7009 43.7037 68.0464 43.497C68.461 43.2489 69.1796 42.9457 69.1934 42.6563C69.2072 41.8431 69.2072 40.7267 68.7097 40.2581C67.3693 38.9764 66.6369 37.3914 65.9183 35.7789C65.6833 35.2552 65.6419 34.6487 65.5313 34.1939C65.2826 33.9596 64.9786 33.7805 64.8404 33.5048C64.3843 32.6227 63.9145 31.7269 63.5828 30.8035C63.1406 29.6182 62.1871 28.6259 62.3253 27.2201C62.3668 26.8342 62.2147 26.2553 61.9384 26.0486C60.7637 25.1803 59.3542 25.7867 58.9258 27.2063C58.8014 27.6335 58.4698 27.9919 58.2487 28.3916C58.1658 28.557 58.0967 28.7223 58.0414 28.9015C57.9032 29.3977 57.8203 29.9076 57.6406 30.3762C57.5024 30.7483 57.1708 31.0653 57.0602 31.4512C56.7286 32.609 56.4798 33.7667 56.2311 34.7866C55.8027 34.759 55.5125 34.7314 55.2361 34.7452C55.2085 34.7452 55.1255 35.1587 55.2085 35.2276C56.2864 36.2199 55.4987 36.7023 54.8215 37.0744C54.7524 37.5706 54.7386 37.9427 54.6419 38.2873C54.6281 38.3562 54.1582 38.4113 54.0753 38.3148C53.9095 38.1219 53.868 37.8325 53.8404 37.7635C53.0527 37.543 52.3341 37.3501 51.5602 37.1296C51.5602 37.1158 51.5049 37.3225 51.3944 37.7498C50.6343 37.2398 49.9848 36.7437 49.2801 36.344C48.9484 36.151 48.4647 36.1924 48.1331 35.9994C47.3178 35.5032 45.9082 36.3026 45.6318 34.7452C44.8303 35.6686 44.1117 34.9519 43.5451 34.6487C42.4396 34.0561 41.7487 34.0423 41.0163 35.0484C40.6293 35.5859 40.3944 36.2475 40.1456 36.7574C40.574 37.2122 40.9195 37.5982 41.2926 37.9841C41.1544 38.1494 41.0577 38.2597 40.9748 38.37C40.8781 38.494 40.7813 38.618 40.6846 38.7421C41.4446 39.7482 43.8768 39.5966 42.5225 41.8018C44.9409 42.2014 44.1946 44.2412 44.8027 45.5643C45.2311 45.8951 45.7286 46.2259 45.8667 46.6807C46.2813 48.0451 47.0967 49.2029 47.6771 50.4846C47.9811 51.1462 48.2989 51.8077 48.52 52.2901C49.0866 52.3866 49.4874 52.5106 49.8743 52.4968C50.1369 52.4968 50.4962 52.3314 50.6205 52.1385C51.2977 51.0359 50.1369 49.9747 50.4685 48.8583C50.3994 48.8583 50.2889 48.8859 50.2474 48.8583C49.2386 47.9349 48.7135 46.8323 48.8655 45.4265C48.2851 45.2473 47.9673 45.0682 48.0087 44.2274C48.0778 43.1386 47.6494 42.0223 47.4007 40.7405C47.0137 41.1264 46.7788 41.3607 46.5301 41.595L45.162 38.6732C46.1155 39.2658 46.8203 39.7068 47.5803 40.1892C47.912 39.2934 48.5615 39.1556 49.4321 39.4725C51.1733 40.0927 52.956 40.6027 54.6695 41.2642C55.8165 41.7053 57.1984 40.9335 57.3919 39.6931C57.5163 38.935 57.7926 38.1908 58.0276 37.4465C58.3178 36.4956 58.6356 35.5446 58.9258 34.5936C59.0364 34.2215 59.0778 33.8356 59.1745 33.3256C59.5338 33.6564 59.6444 33.7667 59.8517 33.9596C59.7273 33.5324 59.6444 33.2705 59.5615 32.9949L59.8102 32.8846C59.9622 33.1603 60.1004 33.4359 60.2386 33.684C60.4874 33.6426 60.7776 33.491 60.9987 33.5737C61.8002 33.8769 62.422 35.5997 61.9522 36.2751C61.6067 36.7712 61.7449 36.9917 62.2286 37.1571C62.5879 37.2812 62.961 37.3914 63.4999 37.5706C63.3203 37.0331 63.1959 36.7023 63.0439 36.2475H63.0163ZM36.0552 36.0821C35.4472 36.7161 35.0464 37.419 34.4384 37.7222C31.6745 39.1004 28.8554 40.3822 26.0364 41.6639C25.5389 41.8844 24.9308 41.8431 24.4472 42.0912C23.6318 42.5047 22.858 43.0284 22.0979 43.5383C21.2826 44.0896 20.2462 44.4342 20.1218 45.6608C20.108 45.8262 19.8178 45.9502 19.7072 46.1156C19.5967 46.2672 19.4308 46.4877 19.4723 46.6393C19.6519 47.3974 19.9007 48.1554 20.1218 48.8996C20.3429 49.6577 20.5778 50.4157 20.8266 51.2564C21.1029 51.4218 21.7386 51.5734 21.9597 51.9593C22.623 53.117 23.2725 54.3161 23.6595 55.5841C24.1017 57.0312 24.4472 58.4646 25.373 59.7187C26.0364 60.6008 26.5338 61.6069 27.1281 62.5992C27.5565 62.3925 27.9434 62.0893 28.358 62.048C29.2009 61.979 29.2147 61.6483 28.9384 60.9867C28.4823 59.8703 28.1092 58.7264 27.6532 57.6101C27.5426 57.3482 27.2663 57.169 27.1004 56.9209C26.9346 56.6866 26.6444 56.3283 26.7135 56.1767C27.211 55.1568 26.4371 54.6744 25.9673 53.9853C25.6494 53.5167 25.6909 52.8 25.5665 52.2074C26.0916 52.1385 26.6168 52.0558 27.1142 52.0007C27.2801 51.7801 27.5012 51.4494 27.7223 51.1324L28.0125 51.7526C28.1783 51.5872 28.3441 51.4631 28.4685 51.3115C28.6758 51.0497 28.8002 50.6638 29.0627 50.5122C29.8366 50.0849 30.6519 49.7266 31.4673 49.3682C32.4484 48.941 33.3743 48.0865 34.3416 48.8307C34.6733 48.3759 34.8668 47.8935 35.226 47.6455C35.8341 47.2458 36.5665 47.0252 37.216 46.6807C38.8605 45.8124 38.8052 45.8124 38.0866 44.1172C37.6306 43.0697 36.9949 42.546 35.8203 42.8216C35.7235 43.1524 35.6268 43.5108 35.5301 43.814C34.7838 43.4832 34.1343 43.1662 33.4572 42.8906C33.1532 42.7665 32.5451 42.7252 32.559 42.6563C32.5728 42.1739 32.559 41.471 32.8353 41.2642C33.3467 40.8921 34.0791 40.7681 34.7286 40.6716C35.3781 40.5751 36.1796 41.278 36.6494 40.2857C36.4559 40.1203 36.2625 39.9549 36.0552 39.7758C37.1193 38.8937 38.7223 38.9626 39.2336 37.8462C38.6808 37.1985 38.2801 36.7161 37.8379 36.1924L36.4836 36.8263C36.3178 36.5645 36.1934 36.344 36.0414 36.0959L36.0552 36.0821Z" fill="#5E3B3B"/>
<path d="M29.2292 46.2259C29.1877 46.4326 29.1324 46.8047 29.0081 47.1355C28.939 47.3422 28.7593 47.6592 28.6349 47.6592C28.4 47.6592 28.1236 47.5076 27.9302 47.356C27.5847 47.0666 27.2807 46.7083 26.949 46.3913C26.8523 46.8874 26.7555 47.3698 26.6035 48.1554C25.7744 48.4173 25.1525 49.8506 23.7706 49.7266C23.356 48.8307 22.9829 48.0314 22.5684 47.1493C23.0658 47.039 23.5495 46.9426 24.0332 46.8323C23.9364 46.474 23.7568 46.1018 23.7844 45.7573C23.8259 45.0819 25.8297 44.3239 26.4377 44.6823C26.6588 44.8063 26.9352 44.8339 26.9352 44.8339C27.0181 44.4066 27.0734 43.8829 27.1425 43.8829C27.7505 43.8829 28.4 43.8278 28.939 44.0345C30.0859 44.4617 30.4729 44.2688 30.4452 43.0697C30.4314 42.4633 30.7769 42.2566 31.8133 42.2841C32.4214 44.1861 33.9968 44.2412 35.6274 44.2412V44.5858C35.1437 44.6547 34.6601 44.6823 34.1902 44.7787C33.8724 44.8476 33.5131 44.9579 33.2643 45.1646C32.5596 45.7711 32.0206 46.598 30.846 45.9227C30.542 45.7435 29.9201 46.0881 29.243 46.2397L29.2292 46.2259Z" fill="#5E3B3B"/>
</g>
</g>
<defs>
<clipPath id="clip0_843_456">
<rect width="88" height="88" fill="white"/>
</clipPath>
</defs>
</svg>
