<svg width="93" height="93" viewBox="0 0 93 93" fill="none" xmlns="http://www.w3.org/2000/svg">
<g clip-path="url(#clip0_843_450)">
<g opacity="0.1">
<path d="M88.7842 29.2449L89.3692 28.9756C90.6292 30.7707 90.5992 32.835 90.4342 34.9592C90.8692 34.9592 91.1842 34.9891 91.6342 35.0041C91.3192 35.8268 92.3692 36.7991 91.2442 37.6368C91.4692 37.5172 91.6942 37.3825 91.9942 37.218C92.3992 38.1604 91.2142 39.417 92.8942 40.0901C92.2942 40.2995 92.0542 40.3893 91.7392 40.509C92.0092 41.0026 92.3542 41.4813 92.5342 42.0049C92.6392 42.2891 92.4742 42.678 92.4292 43.0071C92.3392 43.4708 91.6192 43.9944 92.6092 44.3684C92.7892 44.4432 92.8342 44.9069 92.9392 45.1911C92.3242 45.0565 91.9042 44.9667 91.4692 44.862C91.6042 45.3108 91.7392 45.7745 91.8892 46.2233C91.8892 46.2233 92.1592 46.1036 92.2042 46.1485C92.4742 46.3579 92.8792 46.5674 92.9392 46.8366C93.0442 47.3901 92.9392 47.9735 92.9392 48.6467C92.7292 48.6467 92.5042 48.6616 92.5042 48.6616C92.1592 49.4395 91.8592 50.1276 91.5592 50.8307C91.8892 50.7858 92.2342 50.7409 92.7292 50.6811C92.4292 52.0872 93.0292 53.628 91.4692 54.4358C92.6392 56.2009 91.2592 57.7567 91.1542 59.3722C89.7442 59.6415 89.7292 59.7612 90.2392 60.913C90.3742 61.2122 90.2092 61.7657 89.9992 62.0649C89.7742 62.379 89.3242 62.5286 88.8892 62.8278C89.2042 62.9325 89.4592 63.0073 89.9542 63.1718C89.3392 64.3685 88.7242 65.5353 88.1542 66.7171C87.7942 67.4501 87.5542 68.2579 87.1642 68.9759C86.9842 69.305 86.5492 69.5144 86.2342 69.7687C86.1592 69.6939 86.0842 69.6042 86.0092 69.5294C85.7842 70.3821 85.7242 71.3245 85.2892 72.0425C84.8692 72.7306 84.0742 73.1944 83.2192 73.9722C83.6692 73.7329 83.8642 73.6282 84.1642 73.4786C83.4892 74.406 82.9642 75.3335 82.2292 76.0665C81.9442 76.3507 81.2242 76.1861 80.6842 76.231L81.1942 77.323C80.1592 78.2954 79.1542 79.2378 78.1642 80.1802C78.1492 80.1503 78.1342 80.1054 78.1192 80.0755L77.5492 81.0029C77.1592 80.7486 76.7842 80.4943 76.3042 80.1652C76.0792 80.6738 75.6142 81.2423 75.6292 81.7958C75.6892 83.2318 74.9992 83.2318 74.0092 82.798C73.8292 83.3365 73.7842 83.89 73.4842 84.249C73.3042 84.4585 72.7492 84.3538 72.1792 84.4136C72.0442 85.0568 71.7142 85.7449 70.6792 84.9222C69.7192 86.8519 66.4642 88.5423 63.6592 89.6044C63.6892 89.1107 63.7192 88.6769 63.7492 88.258C63.6892 88.2132 63.6292 88.1533 63.5692 88.1085C63.2242 88.632 62.8942 89.1705 62.5192 89.6791C62.3542 89.9035 62.0842 90.2626 61.9342 90.2326C60.5392 89.9634 59.5642 90.9357 58.4092 91.3246C57.5692 91.6089 56.5942 91.5341 55.4842 91.6238C55.3792 91.4443 55.1392 91.0105 54.8242 90.472C53.9542 91.1003 53.3092 92.3718 51.9592 91.5939C51.9292 91.9978 51.9142 92.297 51.8692 92.7906C50.9992 92.641 50.1592 92.4615 49.3192 92.3418C49.0192 92.297 48.6892 92.4466 48.3742 92.4615C48.0292 92.4914 47.6842 92.4615 47.1592 92.4765C46.9192 92.8804 46.5742 93.4339 45.7342 92.5962C45.4792 92.3419 44.7292 92.5064 44.2342 92.6111C42.8842 92.9103 41.6242 92.8056 40.5592 91.8781C39.6742 91.1003 38.5942 91.4593 37.6342 91.3994C36.6442 91.3396 35.6092 90.6515 34.6042 91.3994C34.5592 91.4293 34.4242 91.3994 34.3942 91.3546C33.7792 90.6515 33.1792 89.9334 32.5342 89.2005C31.9342 89.2603 31.1242 89.3351 30.1792 89.4248C29.8642 89.9783 29.6692 89.9484 26.9842 88.5722C27.2242 88.288 27.4642 88.0037 27.7792 87.6447C26.9392 87.5849 26.2042 87.4503 25.4842 87.4802C24.2392 87.54 24.1342 87.4652 24.3292 86.2984C24.3742 86.074 24.2992 85.8197 24.2542 85.4458C23.6842 85.8347 23.2492 86.1189 22.8592 86.3882C22.6192 86.1787 22.4542 85.9992 22.2442 85.8796C21.3292 85.3261 20.2642 84.9222 19.5292 84.1892C18.6442 83.3216 18.8992 82.8579 20.3842 82.2595C20.2042 82.1249 20.0092 81.9154 19.9492 81.9454C19.0192 82.5288 18.1942 81.9753 17.3392 81.706C17.1892 81.6611 17.0392 81.5564 16.9042 81.4667C16.4692 81.2124 16.0342 80.9431 15.6142 80.6738C15.5092 80.7636 15.4042 80.8533 15.2992 80.9281C15.2842 80.6589 15.3442 80.3447 15.2242 80.1204C15.0292 79.7763 14.7292 79.507 14.4742 79.1929C13.8742 79.7015 13.3492 79.2976 13.1992 78.8488C13.0042 78.2804 12.3892 77.5923 13.1842 76.964C13.2742 76.8892 13.3192 76.7396 13.2292 76.4404C12.8092 76.6947 12.4042 76.9341 11.9542 77.2034C11.0692 76.2609 9.61417 75.6925 9.68917 74.0171C8.96917 73.9722 8.00917 72.7306 7.72417 71.7732C7.33417 70.397 6.46417 69.2751 5.65417 68.0933C4.81417 66.8817 4.18417 65.5204 3.47917 64.219C3.43417 64.1292 3.59917 63.9048 3.70417 63.7851C3.88417 63.5757 4.10917 63.4112 4.43917 63.097C2.12917 62.7081 2.77417 62.0499 3.85417 60.5091C3.43417 60.3446 2.98417 60.1501 2.29417 59.8809C2.92417 59.3573 3.26917 59.0731 3.59917 58.7888C3.56917 58.729 3.53917 58.6692 3.50917 58.6243C3.13417 58.7589 2.75917 58.9085 2.06917 59.1778C2.95417 57.622 0.929173 57.2929 1.13917 55.7821C1.27417 54.8546 1.91917 54.5255 2.26417 53.5083C1.57417 53.7776 1.10917 53.9721 0.629173 54.1516C0.524173 53.2839 0.404173 52.2219 0.269173 51.1149C0.524173 50.9653 0.794173 50.8157 1.12417 50.6362C-0.390827 50.1426 -0.120827 49.3198 0.644173 48.3624C-0.195827 46.7618 0.0891731 45.1762 0.419173 43.4409C0.614173 42.3938 0.299173 41.3167 1.27417 40.494C1.36417 40.4192 1.28917 40.0303 1.18417 39.8508C0.0741732 37.8911 1.37917 36.1409 1.64917 34.3159C1.75417 33.6129 2.23417 32.9696 2.29417 32.2666C2.38417 31.2643 2.87917 30.7258 3.86917 30.3817C3.56917 30.1424 3.35917 29.9629 2.92417 29.6188C3.70417 28.5717 4.49917 27.5096 5.26417 26.4924C5.26417 26.0137 5.26417 25.4303 5.24917 24.8469C5.38417 24.832 5.50417 24.817 5.63917 24.7871C5.87917 25.0563 6.13417 25.3256 6.47917 25.7295C6.64417 25.4154 6.77917 25.161 6.91417 24.9217C6.71917 24.817 6.50917 24.7272 6.32917 24.6076C6.16417 24.5029 5.92417 24.3682 5.89417 24.2186C5.77417 23.5604 7.04917 22.1094 7.49917 21.9C8.41417 20.4191 9.25417 18.8633 10.2892 17.4572C10.9942 16.5148 11.9992 15.7967 13.0492 14.8244C13.0342 14.8244 12.8242 14.8094 12.5992 14.7795C13.3942 14.4803 13.4392 12.6105 15.0442 13.6127C15.1792 13.0443 15.2092 12.431 15.4792 11.9822C15.6292 11.7279 16.2292 11.6381 16.6042 11.668C17.2342 11.698 17.4742 11.5035 17.3842 10.8902C17.2342 9.97768 17.9842 9.94776 18.5392 9.70842C18.8242 9.58875 19.1842 9.51395 19.3342 9.28957C19.7992 8.63137 21.2992 8.28732 21.9142 8.766C21.9892 8.82584 21.9892 8.97543 22.0192 9.08014C22.0942 8.93055 22.2292 8.79592 22.2442 8.64633C22.2442 8.54162 22.1242 8.37707 22.0192 8.33219C21.4192 8.09285 21.2692 7.47953 21.8242 7.18035C22.8742 6.58199 23.9992 6.1033 25.1092 5.63958C25.3192 5.54982 25.6492 5.75925 25.9192 5.83404C25.7392 4.47277 28.0192 3.60515 30.5842 4.05392C30.4042 3.54532 30.5392 3.36581 31.2892 3.23118C31.9792 3.09655 32.6842 3.00679 33.4342 2.90208C33.4042 2.78241 33.2992 2.45331 33.1942 2.10926C35.4292 1.61561 37.5892 1.09204 39.7792 0.673193C40.1092 0.613357 40.5442 0.882619 40.8742 1.09204C41.3242 1.37627 41.5942 1.49594 42.1492 1.09204C42.9592 0.508644 43.9042 -0.46369 44.9992 0.837742C45.1192 0.972373 45.8542 0.852701 46.0042 0.643275C46.5892 -0.209387 47.4742 -0.0597971 47.9842 0.314178C49.0342 1.09204 49.9792 0.628316 51.0292 0.538562C52.2142 0.448808 53.4592 0.658234 54.6292 0.957414C55.4542 1.16684 56.1892 1.75024 56.8042 2.07934C56.8042 2.12421 56.7292 1.83999 56.5792 1.37627C57.1042 1.4361 57.4942 1.49594 58.1842 1.58569C57.7042 1.97462 57.4642 2.16909 57.1942 2.37852C57.5242 2.78241 57.8092 3.14143 57.9892 3.36581C59.7592 3.29102 61.6192 1.73528 62.6242 3.82954C63.5542 3.85946 64.4242 3.62011 64.7842 3.94921C65.4592 4.56253 66.8542 4.1736 67.0042 5.50494C67.0042 5.53486 67.3192 5.57974 67.4692 5.54982C68.4892 5.31048 68.8492 5.65453 68.6542 6.6867C68.5942 6.95597 68.6092 7.24019 68.5642 7.76375C69.1492 7.49449 69.5092 7.24019 69.9142 7.15043C70.6042 7.00084 71.3392 7.10556 71.3242 7.98814C71.3092 9.1699 72.1942 8.97543 72.7192 8.85576C73.4842 8.69121 73.6792 8.94551 74.0692 9.52891C74.5942 10.3068 75.4492 10.8603 76.1542 11.5035C76.3642 11.698 76.5292 11.9822 76.7692 12.1467C77.0992 12.3711 77.4742 12.6105 77.8642 12.6553C78.4492 12.7301 79.9942 14.256 79.8742 14.7945C79.7842 15.2133 79.6792 15.6322 79.4992 16.3502C80.2192 16.0959 80.6992 15.9314 81.2242 15.7518C81.9592 16.5447 81.8842 17.3076 80.4742 17.9807C80.9992 18.1752 81.3742 18.4594 81.5392 18.3547C81.8692 18.1453 82.0942 17.7564 82.4542 17.3225C82.5292 17.3674 82.8142 17.4422 82.9192 17.6217C83.5642 18.7137 84.1492 19.8207 84.7792 20.9277C84.9592 21.2568 85.1392 21.6008 85.4092 21.8551C85.9792 22.3936 86.5342 22.9022 86.6092 23.7699C86.6842 24.6973 87.5842 25.1311 87.9742 25.8043C88.5292 26.7766 88.5892 28.0332 88.8592 29.2299L88.7842 29.2449ZM79.6192 70.6064C79.4092 69.9931 78.9592 69.32 79.1242 69.0806C79.7692 68.1532 80.6092 67.3603 81.3592 66.4927C81.6742 66.1188 82.2292 65.3858 82.1692 65.3259C81.0892 64.2339 82.1992 63.9198 82.7992 63.4411C82.4392 62.5884 83.2642 61.0327 84.1942 60.8083C84.4042 60.7485 84.5992 60.5839 84.7942 60.4642C84.5692 60.3296 84.3592 60.18 84.1192 60.0753C84.0292 60.0304 83.8942 60.1052 83.7742 60.1202C83.8792 59.0282 84.8992 58.4298 84.8392 57.3827C84.8092 56.8292 84.8392 56.2458 84.9742 55.7223C85.2592 54.72 86.3242 53.9122 85.6342 52.6557C85.5292 52.4762 85.7242 52.0423 85.8892 51.803C86.8492 50.4268 86.5042 48.9159 86.3842 47.42C86.2942 46.2831 86.3842 45.1313 86.3842 43.9795C86.3842 43.411 86.6092 42.5434 86.3542 42.3489C85.3642 41.6159 85.9492 40.8979 85.9342 40.2397C85.6792 39.4918 85.4242 38.7288 85.1242 37.8463C85.7392 37.8463 86.1292 37.8463 86.5042 37.8463C84.4792 37.3077 84.5692 35.5725 84.2242 34.0467C84.5392 33.9569 84.8542 33.8821 85.2142 33.7774L83.4742 30.0676C81.0592 29.4244 81.7042 27.2254 81.3592 25.4901C80.6092 25.4303 79.8892 25.4453 79.7242 24.3084C79.6342 23.6502 78.5542 23.1865 79.3342 22.3188C79.1242 22.2291 79.0192 22.1393 78.9142 22.1393C77.4442 22.1094 76.6342 21.3615 76.4092 19.9254C76.3792 19.7609 76.1242 19.5963 75.9442 19.4766C75.2992 19.0428 74.6392 18.624 73.9642 18.1752C74.3092 17.8461 74.5342 17.6367 74.7442 17.4273C73.7392 18.2799 73.2892 17.4273 72.8092 16.8289C73.0192 16.6344 73.2292 16.425 73.4392 16.2156C73.4392 16.0959 73.4242 15.9613 73.4092 15.8416C72.2392 16.8588 71.6242 15.9912 70.9642 15.3779C70.6042 15.0488 70.4092 14.3158 70.0642 14.2559C68.6092 14.0166 67.7542 13.1639 67.1842 11.8775C66.1942 12.5207 65.3542 11.9672 65.0392 11.2791C64.7992 10.7406 65.2792 9.88793 65.5042 8.93055C64.9942 9.39428 64.6642 9.69346 64.4092 9.91785C63.9742 9.64858 63.6442 9.31949 63.2842 9.27461C62.5942 9.18485 61.8742 9.19981 61.1992 9.27461C59.6842 9.48403 58.8892 9.05022 58.3492 7.70392C58.2442 7.44961 58.0192 7.24019 57.7942 6.92605C57.3592 8.36211 56.2192 8.40699 54.2692 7.21027C54.4042 6.92605 54.5242 6.64183 54.6592 6.34265C54.6292 6.23794 54.6142 6.13322 54.5842 6.02851C52.7692 7.40474 51.0142 7.98814 49.4392 6.1033C47.9842 7.46457 46.2142 6.61191 44.5492 6.89613C44.6692 6.59695 44.7442 6.40248 44.8042 6.25289C44.4892 6.14818 44.1742 6.02851 43.8592 5.95371C43.6342 5.89388 43.3792 5.90884 43.1392 5.89388C43.2592 6.11826 43.3192 6.40248 43.4992 6.56703C43.5892 6.64183 43.8592 6.52216 44.0542 6.47728C44.0092 6.61191 43.9642 6.73158 43.9042 6.86621C42.4642 7.18035 41.0392 7.44961 39.8092 5.98363C39.0142 7.31498 37.8742 6.97093 36.7042 6.67175C36.5242 6.62687 36.2992 6.7615 35.8792 6.86621C36.3442 7.27011 36.6442 7.55433 37.0342 7.89838C36.6892 8.03301 36.4642 8.13773 36.2092 8.21252C34.7092 8.63137 33.1642 8.78096 31.7542 9.57379C30.2542 10.4115 28.5142 10.8603 27.1342 11.8326C25.9042 12.7002 25.0792 12.3861 24.0442 11.5633C23.9692 11.9822 23.9242 12.3113 23.8942 12.4908C24.2542 12.5506 24.5242 12.5955 24.7942 12.6404C24.6592 12.9396 24.6142 13.3734 24.3892 13.5379C22.9792 14.4953 21.4792 15.333 20.1142 16.3502C19.3792 16.9037 18.8692 17.7713 18.2392 18.4744C17.8192 18.9531 17.3542 19.3719 16.9642 19.8656C16.4992 20.449 16.1092 21.0922 15.5242 20.0301C14.8642 20.449 14.2792 20.8229 13.6942 21.1969C13.7542 21.2568 13.7992 21.3166 13.8592 21.3764C14.3842 21.3465 14.8942 21.3166 15.4192 21.2867C15.4642 21.4662 15.5242 21.6606 15.5692 21.8402C14.7142 22.4236 13.8592 23.007 12.9292 23.6502C13.0642 23.7848 13.2892 24.0242 13.5142 24.2485C13.3942 24.458 13.1692 24.8918 13.1392 24.8768C12.1492 24.4879 12.3592 25.2807 12.3892 25.6846C12.4342 26.5223 12.0592 26.8215 11.2792 26.8813C10.9792 26.9112 10.6042 27.1207 10.4392 27.36C10.2592 27.6293 10.2742 28.0332 10.1842 28.4819C10.3192 28.6764 10.5292 28.9905 10.7692 29.3346C10.1092 29.7086 9.56917 30.0377 8.87917 30.4416C9.34417 30.7407 9.62917 30.9203 10.0792 31.2045C9.64417 31.5485 9.26917 31.8477 8.87917 32.1469C8.96917 32.2965 9.07417 32.476 9.32917 32.9248C8.65417 32.85 8.20417 32.8051 7.78417 32.7602C7.63417 33.6278 7.46917 34.4955 7.31917 35.3481L8.53417 34.7797C8.42917 35.1088 8.38417 35.2883 8.30917 35.4678C7.94917 36.3354 7.39417 37.1582 7.24417 38.0557C7.04917 39.3272 7.15417 40.6436 7.12417 41.7356C6.59917 42.0348 6.28417 42.1993 5.98417 42.3639C6.16417 42.5883 6.38917 42.7977 6.52417 43.052C6.61417 43.2465 6.62917 43.5008 6.56917 43.7102C6.47917 44.0842 6.08917 44.5778 6.22417 44.7723C6.76417 45.6249 5.93917 46.0588 5.74417 46.6571C7.31917 47.6294 7.13917 48.6616 5.02417 49.9182C5.72917 50.5913 6.38917 51.2346 7.03417 51.8628C6.92917 51.8628 6.80917 51.8628 6.70417 51.8628C6.71917 52.3565 6.58417 53.2091 6.77917 53.2839C7.93417 53.7626 7.52917 54.5106 7.25917 55.2735C7.09417 55.7372 6.88417 56.186 6.62917 56.8442C7.45917 56.3854 8.00417 56.6547 8.26417 57.652C7.90417 58.0858 7.64917 58.4149 7.39417 58.729C8.54917 58.729 9.01417 59.1179 9.01417 60.0454C9.01417 60.3745 8.95417 60.8981 9.13417 61.0028C10.2292 61.6909 9.53917 63.2915 10.6942 63.9048C10.7542 63.9347 10.8142 64.1591 10.7692 64.219C9.88417 65.311 11.2042 66.2683 11.4892 66.373C12.6442 66.7919 12.6292 67.4651 12.4342 68.0634C13.0342 68.4523 13.4992 68.7515 13.9792 69.0806C13.7242 69.3948 13.5742 69.5743 13.3792 69.8136C14.0692 69.9183 15.0742 69.5892 14.4892 70.8308C14.4292 70.9505 14.6392 71.2796 14.8042 71.3993C15.5692 71.9378 16.3642 72.4464 17.3992 73.1196C16.6792 73.4038 16.3492 73.5384 16.0342 73.6581C16.0342 73.9722 15.9892 74.2864 16.0342 74.5855C16.0642 74.7351 16.2292 74.8847 16.3792 74.9595C16.4692 75.0044 16.6642 74.9146 16.7392 74.8249C17.0392 74.4958 17.3092 74.1368 17.5492 73.8525C19.3792 75.4232 21.1042 76.9042 22.8742 78.43C22.6342 78.6693 22.3942 78.8937 22.1692 79.1031C22.2592 79.2378 22.2892 79.3574 22.3342 79.3574C23.9842 79.4771 25.6492 79.537 26.2042 81.5863C26.2342 81.6911 26.4892 82.2894 26.9992 81.691C27.4492 81.1525 28.1842 81.4517 28.6492 82.0052C28.8142 82.1997 28.9492 82.5138 29.1592 82.5886C30.8992 83.157 32.6542 83.6656 34.3942 84.2191C35.7892 84.6679 37.1542 85.1765 38.5492 85.6402C38.7142 85.7001 38.9242 85.5953 39.1042 85.6103C39.6442 85.6552 40.2442 85.6103 40.7242 85.8048C41.5192 86.1339 42.2542 86.6275 43.0192 87.0464C43.0192 86.6574 42.9892 86.2835 42.9892 85.9693C44.0842 85.9693 45.1492 85.9394 46.1992 85.9992C46.4692 85.9992 46.8292 86.2236 46.9792 86.448C47.6842 87.4951 48.4192 87.54 49.2892 86.5976C49.4842 86.3732 49.9342 86.2087 50.2042 86.2685C50.9392 86.433 51.6442 86.7322 52.3642 86.9716C52.4542 86.8669 52.5442 86.7621 52.6192 86.6574C52.3792 86.3283 52.1542 85.9843 51.7042 85.341C52.7392 85.6253 53.4892 85.8197 54.3292 86.0591C54.4192 85.8945 54.5992 85.5654 54.7942 85.2214C55.1842 85.7001 55.5292 86.1339 55.9942 86.6874C56.2192 86.1488 56.3842 85.8347 56.4592 85.5056C56.6842 84.5781 57.4342 84.3388 58.1392 84.5482C58.7692 84.7427 59.3242 84.3837 59.5042 84.1742C60.5692 82.9326 61.7242 83.0374 62.7742 83.5759C63.2392 83.0673 63.5992 82.5736 64.0492 82.1997C64.4842 81.8406 65.0692 81.6611 65.5342 81.3171C67.1992 80.0456 68.8492 78.774 70.7542 78.6245C70.8892 78.1009 70.8742 77.6521 71.0842 77.4128C71.5492 76.9191 72.1342 76.5452 72.9592 75.9019C72.7192 76.4405 72.6142 76.6499 72.3742 77.1734C73.0642 76.8593 73.5142 76.6499 73.9492 76.4404C73.8742 75.8421 73.9042 75.2587 74.2192 74.9595C75.2542 73.9872 76.4992 73.4187 78.0292 73.5384C77.7292 73.1495 77.4742 72.8054 77.2342 72.4913C76.8742 72.581 76.5742 72.6708 76.1542 72.7755C76.7092 72.0126 77.1892 71.4292 77.5942 70.7859C78.1042 69.9931 78.4042 70.397 78.6592 70.9206L79.5292 70.5167L79.6192 70.6064Z" fill="#36544A"/>
<path d="M14.3086 32.6854C13.9486 32.6854 13.7536 32.6854 13.5436 32.6854C13.5436 32.6255 13.5286 32.5507 13.5136 32.4909C13.7836 32.446 14.1136 32.4909 14.2936 32.3413C14.5486 32.1319 14.9086 31.6981 14.8336 31.5036C14.3236 30.1274 14.8786 29.0952 16.3936 28.9157C16.1536 28.1378 16.1686 27.6891 17.0686 27.0608C17.9986 26.4176 18.3286 24.9067 18.9736 23.8147C19.1986 23.4258 19.6036 23.1415 20.0536 22.6629C20.2336 23.2463 20.3236 23.5604 20.4286 23.8895C20.5336 23.8596 20.6386 23.8297 20.7286 23.7997C20.6236 23.5305 20.4886 23.2612 20.4436 22.977C20.3986 22.7376 20.3536 22.3936 20.4736 22.229C20.9986 21.5858 21.5386 20.9426 22.1686 20.419C22.5886 20.075 23.1586 19.9254 23.6686 19.686C23.7436 19.7907 23.8186 19.9104 23.8936 20.0151C24.0586 19.6411 24.1936 19.2372 24.4186 18.8932C24.6436 18.5342 24.9286 17.9508 25.2136 17.9358C26.2336 17.876 26.8786 17.1729 27.6886 16.784C28.1686 16.5596 28.8586 16.769 29.3686 16.784C29.6836 16.4848 30.0886 16.051 30.5236 15.677C31.1836 15.1086 31.8586 14.5551 32.5786 14.0465C32.9086 13.8071 33.3736 13.4631 33.7036 13.5229C35.1586 13.8071 35.9986 12.9096 37.0636 12.2364C37.6036 11.8924 38.5786 11.2641 39.4636 12.0121C39.5986 12.1168 39.9736 12.0121 40.2136 11.9223C40.9486 11.683 41.6386 11.3389 42.3886 11.2043C43.0186 11.0996 43.6786 11.2192 44.2936 11.2492C45.1036 11.1145 45.9286 10.8453 46.7386 10.8602C48.1636 10.8602 49.5886 11.0397 51.0136 11.1744C51.2536 11.1893 51.5836 11.2641 51.7186 11.4287C52.2736 12.1018 52.9486 11.9971 53.6836 11.8924C54.0436 11.8475 54.4486 12.1018 54.8386 12.1766C55.3186 12.2813 55.8436 12.2664 56.3086 12.4309C56.8936 12.6254 57.4336 12.9844 58.0186 13.1789C58.4686 13.3284 58.7386 14.4653 59.5336 13.4481C59.6686 13.2836 60.7186 13.8071 61.3786 14.0465C61.1836 14.3905 61.0336 14.6748 60.9286 14.8543C61.4836 15.0637 62.0086 15.2582 62.6986 15.5125C64.7386 14.0764 64.0936 17.1579 65.2486 17.3674C66.0136 16.4549 66.3736 16.5745 67.0936 17.9807C67.8286 17.9059 68.5186 17.9059 68.4286 18.968C69.5836 19.1325 70.4536 19.6112 70.6486 20.9127C70.6786 21.1221 70.9936 21.3165 71.2186 21.4661C71.6836 21.7803 72.2386 22.0047 72.6436 22.3936C73.3186 23.0368 73.9336 23.7399 74.4886 24.5028C74.8486 24.9965 75.0436 25.6247 75.2986 26.1782C75.7186 26.7167 76.1686 27.2253 76.5586 27.7938C77.2636 28.8708 77.9686 29.9479 78.5986 31.0698C78.8236 31.4737 78.8236 31.9973 78.9286 32.4759C78.9436 32.5807 78.8986 32.7303 78.9586 32.805C80.8336 34.8544 80.9986 37.4722 81.4936 40.0153C81.6436 40.8231 81.9736 41.4962 81.2836 42.1993C81.1636 42.3339 81.2536 42.9024 81.4336 43.037C82.6486 44.0392 82.1686 45.236 81.9436 46.4327C81.8986 46.6271 82.0036 46.8665 82.0336 47.0759C82.0936 47.5696 82.2436 48.0782 82.1836 48.5569C82.0486 49.6937 81.8686 50.8157 81.6136 51.9226C81.5386 52.2667 81.1486 52.5509 80.8786 52.895C81.0736 53.0745 81.2986 53.2689 81.5386 53.4784C81.5386 53.5232 81.5686 53.598 81.5386 53.6728C81.1936 54.9892 80.9386 56.3355 80.4436 57.5921C79.8736 59.0431 79.0786 60.4193 78.4336 61.8404C78.3136 62.0947 78.5236 62.5285 78.3736 62.738C77.8636 63.471 77.7436 64.6378 76.4236 64.548C76.2286 64.548 76.0036 64.9369 75.6886 65.2361C76.0636 65.3558 76.3486 65.4455 76.6636 65.5503C76.4086 66.4628 75.8536 66.5675 75.0886 66.0289C75.3736 67.6146 74.8336 68.2279 73.8136 69.1853C73.3336 69.6341 72.1186 69.8435 72.3736 71.0252C72.4036 71.1898 71.9836 71.5937 71.7136 71.6834C70.9036 71.9228 70.8886 71.8779 70.7836 72.5361C69.1636 73.8525 67.6186 75.124 66.0136 76.4105C65.3836 75.5728 64.8736 75.2287 64.4836 76.4554C64.1236 77.6222 63.1786 78.2056 62.0836 78.6244C61.2286 78.9535 60.4186 79.3873 59.8636 79.6416C59.4286 79.133 59.1886 78.8488 58.9486 78.5646C58.8586 78.8937 58.8136 79.2377 58.6636 79.5219C58.4686 79.866 58.1536 80.1353 57.7936 80.5541L56.9536 78.774C56.8186 79.9408 56.9986 81.1525 55.6036 80.8533C55.3786 80.8084 55.2136 80.4644 55.0036 80.24C54.5386 80.5691 54.0136 81.0627 53.3986 81.3469C52.2136 81.9154 51.0286 82.1248 49.8886 81.0627C49.2286 80.4494 49.0036 80.6588 48.7186 81.5414C48.6436 81.7957 47.8336 82.0949 47.5936 81.9603C47.0086 81.6162 46.6786 81.5265 46.1386 82.0799C45.9286 82.2894 45.1936 82.0351 44.6986 81.9154C44.4136 81.8406 44.1436 81.5115 43.8736 81.5115C42.9136 81.4965 41.9386 81.6611 40.9936 81.5863C39.7186 81.4666 38.4286 81.2572 37.1986 80.9281C36.9136 80.8533 36.8086 80.1652 36.5986 79.7015C35.7736 80.4494 34.6486 80.5392 33.6136 79.8211C32.7736 79.2377 32.0686 78.4299 31.2436 77.667C29.8186 78.6693 28.6336 77.3679 27.4036 76.6797C26.5336 76.201 25.8136 75.4681 25.0336 74.8248C24.3736 74.2713 23.7286 73.688 23.0536 73.1494C22.5436 72.7455 21.9286 72.4464 21.5086 71.9826C20.8936 71.2795 20.4586 70.4119 19.8586 69.6789C19.5286 69.275 18.9886 69.0507 18.6586 68.6617C17.9686 67.8689 17.2936 67.0312 16.7086 66.1486C16.1236 65.281 15.5986 64.3535 15.1786 63.4111C14.2186 61.3019 13.3036 59.1628 12.4336 57.0236C12.2686 56.6048 12.3436 56.0812 12.1786 55.6773C11.9386 55.0191 11.6236 54.3759 11.4736 53.6878C11.2036 52.4013 10.9936 51.0849 11.7136 49.8284C11.7586 49.7386 11.4136 49.4843 11.3986 49.2898C11.3236 48.5419 10.7536 47.6593 11.8486 47.1208C11.8936 47.0909 11.7436 46.4028 11.6686 46.4028C10.5136 46.3579 10.7836 45.6099 10.8586 44.9218C10.9786 43.6204 10.9636 42.304 11.1886 41.0325C11.5186 39.1626 11.9086 37.2778 12.5086 35.4677C12.8236 34.5253 13.6336 33.7475 14.3386 32.7153L14.3086 32.6854ZM66.5986 38.295C67.9336 41.1372 69.1936 43.8448 70.4986 46.6271C71.1436 46.328 71.5486 46.1784 71.9086 45.954C72.3586 45.6847 73.1086 45.3706 73.1236 45.0565C73.1386 44.1888 73.1386 43.022 72.6136 42.5134C71.2036 41.1522 70.4236 39.4768 69.6586 37.7864C69.4036 37.2329 69.3586 36.5897 69.2536 36.111C68.9986 35.8567 68.6686 35.6622 68.5336 35.393C68.0536 34.4655 67.5586 33.5231 67.1986 32.5358C66.7336 31.2792 65.7136 30.2321 65.8786 28.7512C65.9236 28.3473 65.7586 27.7339 65.4736 27.5245C64.2436 26.5971 62.7436 27.2403 62.2936 28.7512C62.1586 29.1999 61.8136 29.5889 61.5736 30.0077C61.4836 30.1723 61.4086 30.3667 61.3636 30.5462C61.2136 31.0698 61.1236 31.6083 60.9436 32.1169C60.7936 32.5208 60.4486 32.8499 60.3286 33.2538C59.9836 34.4655 59.7136 35.7071 59.4436 36.7841C58.9936 36.7542 58.6936 36.7243 58.3936 36.7393C58.3636 36.7393 58.2736 37.1731 58.3636 37.2479C59.5036 38.295 58.6786 38.8036 57.9586 39.2075C57.8836 39.7311 57.8686 40.1349 57.7636 40.494C57.7486 40.5688 57.2536 40.6136 57.1636 40.5239C56.9836 40.3294 56.9386 40.0153 56.9086 39.9405C56.0836 39.7161 55.3186 39.5067 54.4936 39.2673C54.4936 39.2524 54.4336 39.4768 54.3136 39.9255C53.5186 39.387 52.8286 38.8634 52.0786 38.4296C51.7186 38.2202 51.2086 38.28 50.8636 38.0706C50.0086 37.547 48.5086 38.3847 48.2086 36.7393C47.3536 37.7116 46.6036 36.9636 46.0036 36.6345C44.8336 36.0063 44.0986 35.9913 43.3336 37.0534C42.9136 37.6218 42.6736 38.3249 42.4186 38.8634C42.8686 39.3571 43.2436 39.746 43.6336 40.1649C43.4836 40.3444 43.3936 40.464 43.2886 40.5688C43.1836 40.6884 43.0786 40.8231 42.9736 40.9577C43.7836 42.0198 46.3486 41.8552 44.9236 44.1888C47.4736 44.6226 46.6936 46.7767 47.3386 48.1679C47.7886 48.512 48.3136 48.871 48.4636 49.3497C48.8986 50.8007 49.7686 52.0124 50.3836 53.3587C50.7136 54.0618 51.0436 54.7499 51.2836 55.2734C51.8836 55.3782 52.3036 55.5128 52.7086 55.4978C52.9786 55.4978 53.3686 55.3333 53.4886 55.1089C54.2086 53.9421 52.9786 52.8202 53.3236 51.6534C53.2486 51.6534 53.1436 51.6833 53.0986 51.6534C52.0336 50.681 51.4786 49.5142 51.6436 48.0333C51.0286 47.8388 50.6836 47.6593 50.7436 46.7618C50.8186 45.6099 50.3686 44.4282 50.0986 43.0819C49.6786 43.4858 49.4386 43.7401 49.1686 43.9944L47.7136 40.8979C48.7186 41.5261 49.4686 41.9899 50.2636 42.4985C50.6086 41.5561 51.2986 41.4065 52.2286 41.7356C54.0736 42.3788 55.9486 42.9323 57.7636 43.6354C58.9636 44.0991 60.4336 43.2913 60.6436 41.9749C60.7786 41.1671 61.0636 40.3892 61.3036 39.5964C61.6186 38.5942 61.9486 37.5919 62.2486 36.5747C62.3686 36.1858 62.3986 35.7819 62.5036 35.2434C62.8786 35.5874 62.9986 35.7071 63.2236 35.9165C63.0886 35.4677 62.9986 35.1835 62.9236 34.8993L63.1786 34.7946C63.3286 35.0788 63.4936 35.378 63.6286 35.6323C63.8836 35.5874 64.1986 35.4229 64.4236 35.5126C65.2636 35.8268 65.9236 37.6667 65.4436 38.3698C65.0836 38.8934 65.2186 39.1177 65.7286 39.2972C66.1036 39.4319 66.4936 39.5515 67.0786 39.7311C66.8836 39.1626 66.7636 38.8186 66.5986 38.3399V38.295ZM38.1136 38.1304C37.4686 38.7886 37.0486 39.5366 36.4036 39.8507C33.4786 41.3017 30.4936 42.663 27.5236 44.0093C26.9986 44.2487 26.3536 44.2038 25.8436 44.4581C24.9736 44.8919 24.1636 45.4454 23.3536 45.9839C22.4836 46.5673 21.3886 46.9413 21.2686 48.2278C21.2536 48.3923 20.9536 48.5269 20.8336 48.7064C20.7136 48.871 20.5486 49.0954 20.5936 49.2599C20.7886 50.0677 21.0436 50.8605 21.2836 51.6534C21.5236 52.4612 21.7636 53.254 22.0186 54.1515C22.3036 54.3161 22.9786 54.4806 23.2186 54.8845C23.9236 56.1111 24.5986 57.3827 25.0186 58.714C25.4986 60.2398 25.8586 61.7656 26.8336 63.082C27.5236 64.0244 28.0636 65.0865 28.6786 66.1337C29.1436 65.9242 29.5486 65.5951 29.9836 65.5503C30.8686 65.4755 30.8836 65.1314 30.5986 64.4283C30.1036 63.2466 29.7136 62.0349 29.2486 60.8531C29.1436 60.5839 28.8436 60.3745 28.6636 60.1201C28.4986 59.8658 28.1836 59.4919 28.2586 59.3423C28.7836 58.2652 27.9736 57.7566 27.4786 57.0386C27.1486 56.545 27.1936 55.797 27.0586 55.1538C27.6136 55.079 28.1686 55.0042 28.6936 54.9294C28.8586 54.69 29.0986 54.346 29.3386 54.0169L29.6386 54.6751C29.8186 54.5105 29.9836 54.3759 30.1186 54.2114C30.3286 53.9421 30.4636 53.5232 30.7336 53.3736C31.5436 52.9249 32.4136 52.5359 33.2686 52.162C34.3036 51.7132 35.2786 50.8007 36.3136 51.5935C36.6586 51.1148 36.8686 50.6062 37.2586 50.337C37.9036 49.9032 38.6686 49.6788 39.3736 49.3198C41.1136 48.3923 41.0536 48.4073 40.2886 46.6122C39.8086 45.5052 39.1336 44.9517 37.8886 45.2509C37.7836 45.595 37.6786 45.9839 37.5886 46.313C36.7936 45.954 36.1036 45.6249 35.3986 45.3407C35.0836 45.206 34.4386 45.1612 34.4386 45.1013C34.4536 44.5927 34.4386 43.8448 34.7386 43.6354C35.2786 43.2464 36.0436 43.1118 36.7336 43.0071C37.4236 42.9024 38.2636 43.6503 38.7586 42.6032C38.5486 42.4237 38.3386 42.2442 38.1286 42.0647C39.2536 41.1372 40.9486 41.197 41.4886 40.0302C40.9036 39.3421 40.4836 38.8335 40.0036 38.295L38.5786 38.9532C38.4136 38.669 38.2636 38.4446 38.1136 38.1753V38.1304Z" fill="#36544A"/>
<path d="M30.8834 48.856C30.8384 49.0804 30.7784 49.4544 30.6584 49.8134C30.5834 50.0378 30.4034 50.3669 30.2534 50.3669C30.0134 50.3669 29.7134 50.2173 29.5034 50.0378C29.1284 49.7237 28.8134 49.3646 28.4684 49.0206C28.3634 49.5442 28.2584 50.0528 28.0934 50.8905C27.2234 51.1597 26.5634 52.6706 25.0934 52.5509C24.6434 51.6085 24.2534 50.7708 23.8184 49.8284C24.3584 49.7087 24.8534 49.604 25.3634 49.4993C25.2734 49.1253 25.0784 48.7364 25.0934 48.3624C25.1384 47.6593 27.2534 46.8515 27.8984 47.2255C28.1234 47.3601 28.4234 47.3751 28.4234 47.3751C28.5134 46.9263 28.5734 46.3728 28.6334 46.3728C29.2784 46.3728 29.9534 46.313 30.5384 46.5224C31.7534 46.9712 32.1584 46.7618 32.1284 45.5052C32.1134 44.862 32.4884 44.6376 33.5834 44.6675C34.2134 46.672 35.8934 46.7319 37.6034 46.7319V47.0909C37.0934 47.1507 36.5834 47.1956 36.0734 47.3003C35.7284 47.3751 35.3534 47.4948 35.0984 47.7042C34.3484 48.3325 33.7784 49.2151 32.5484 48.497C32.2184 48.3026 31.5734 48.6765 30.8684 48.8261L30.8834 48.856Z" fill="#36544A"/>
</g>
</g>
<defs>
<clipPath id="clip0_843_450">
<rect width="93" height="93" fill="white"/>
</clipPath>
</defs>
</svg>
