<svg width="49" height="25" viewBox="0 0 49 25" fill="none" xmlns="http://www.w3.org/2000/svg">
<g filter="url(#filter0_d_583_826)">
<path d="M4.64844 3.48785V16.798H6.99402V10.2498H20.0456V7.90839H6.99402V3.48785C6.99402 2.95836 7.42225 2.53088 7.95269 2.53088H22.722V0.189453H7.95269C6.13267 0.189453 4.64844 1.67106 4.64844 3.48785Z" fill="#785778" fill-opacity="0.7"/>
<path d="M43.618 0.276868C43.18 0.0971315 42.6739 0.194286 42.3381 0.52947L34.7126 8.12696L27.0967 0.52947C26.761 0.194286 26.2549 0.0971315 25.8169 0.276868C25.3789 0.456604 25.0918 0.884084 25.0918 1.36014V16.798H27.4374V4.18249L33.8901 10.6093C34.3476 11.0659 35.0873 11.0659 35.5447 10.6093L41.9975 4.18249V16.798H44.3431V1.36014C44.3431 0.888942 44.0559 0.461461 43.618 0.276868Z" fill="#785778" fill-opacity="0.7"/>
</g>
<defs>
<filter id="filter0_d_583_826" x="0.648438" y="0.187988" width="47.6953" height="24.6099" filterUnits="userSpaceOnUse" color-interpolation-filters="sRGB">
<feFlood flood-opacity="0" result="BackgroundImageFix"/>
<feColorMatrix in="SourceAlpha" type="matrix" values="0 0 0 0 0 0 0 0 0 0 0 0 0 0 0 0 0 0 127 0" result="hardAlpha"/>
<feOffset dy="4"/>
<feGaussianBlur stdDeviation="2"/>
<feComposite in2="hardAlpha" operator="out"/>
<feColorMatrix type="matrix" values="0 0 0 0 0 0 0 0 0 0 0 0 0 0 0 0 0 0 0.25 0"/>
<feBlend mode="normal" in2="BackgroundImageFix" result="effect1_dropShadow_583_826"/>
<feBlend mode="normal" in="SourceGraphic" in2="effect1_dropShadow_583_826" result="shape"/>
</filter>
</defs>
</svg>
