<svg width="229" height="61" viewBox="0 0 229 61" fill="none" xmlns="http://www.w3.org/2000/svg">
<g filter="url(#filter0_d_995_294)">
<rect x="7" y="7" width="213" height="45" rx="22.5" fill="#303142" fill-opacity="0.9" shape-rendering="crispEdges"/>
<path d="M46.9375 30.3711V31.8652H41.752V36.3477H39.9062V31.8652H34.7793V30.3711H46.9375ZM35.3799 28.1299C38.0752 27.8003 39.5693 26.4966 39.7671 25.1855H35.8779V23.7207H45.8535V25.1855H41.9644C42.1548 26.4966 43.627 27.8003 46.3662 28.1299L45.6924 29.5947C43.3486 29.2798 41.6714 28.2837 40.8657 26.9141C40.0527 28.2837 38.3901 29.2798 36.0684 29.5947L35.3799 28.1299ZM55.3457 24.248V25.7422H54.1592V31.5576C54.7012 31.5137 55.2285 31.4624 55.7412 31.3965L55.8438 32.7441C53.1118 33.2202 50.0649 33.2715 47.7725 33.2861L47.5674 31.7627C48.0435 31.7627 48.5562 31.7627 49.0908 31.7554V25.7422H47.9043V24.248H55.3457ZM50.8926 31.7261C51.376 31.7114 51.8667 31.6895 52.3574 31.6675V25.7422H50.8926V31.7261ZM56.3857 36.3477V23.0176H58.2607V28.0859H60.2236V29.6094H58.2607V36.3477H56.3857ZM67.7822 24.0576C67.7749 25.6323 69.3862 27.3682 72.4404 27.749L71.708 29.2578C69.3789 28.9209 67.6724 27.8442 66.8008 26.4014C65.9219 27.8369 64.2227 28.9209 61.9229 29.2578L61.1758 27.749C64.208 27.3682 65.812 25.6323 65.8193 24.0576V23.4131H67.7822V24.0576ZM60.707 31.792V30.2686H72.8652V31.792H67.6797V36.3477H65.834V31.792H60.707ZM84.9062 23.0322V32.7734H83.0459V29.6094H79.999C79.3545 30.2905 78.4316 30.708 77.3916 30.708C75.3701 30.708 73.832 29.2432 73.8467 27.2656C73.832 25.2588 75.3701 23.8013 77.3916 23.7939C78.4243 23.8013 79.3472 24.2114 79.9917 24.8926H83.0459V23.0322H84.9062ZM75.6191 27.2656C75.6118 28.3789 76.3516 29.0527 77.3916 29.0527C78.373 29.0527 79.1274 28.3789 79.1348 27.2656C79.1274 26.1377 78.373 25.4639 77.3916 25.4639C76.3516 25.4639 75.6118 26.1377 75.6191 27.2656ZM76.0586 36.1133V31.792H77.9336V34.6191H85.2285V36.1133H76.0586ZM80.7974 26.3867C80.8706 26.665 80.9072 26.958 80.9072 27.2656C80.9072 27.5586 80.8706 27.8442 80.8047 28.1152H83.0459V26.3867H80.7974ZM97.3721 23.7939V24.9951C97.3647 26.2402 97.3647 27.5952 97.0278 29.4629H98.793V30.9717H93.5928V36.3623H91.7178V30.9717H86.6348V29.4629H95.1309C95.4751 27.749 95.5044 26.438 95.5117 25.2881H88.0264V23.7939H97.3721ZM111.801 33.2568V34.751H99.5986V33.2568H104.696V30.2393H106.557V33.2568H111.801ZM99.8916 29.1113C102.909 28.6426 104.608 26.6138 104.623 24.7314V23.7793H106.615V24.7314C106.608 26.6357 108.329 28.6426 111.376 29.1113L110.585 30.6641C108.241 30.2393 106.498 28.9868 105.619 27.3242C104.748 28.9795 103.012 30.2466 100.683 30.6641L99.8916 29.1113ZM116.518 35V24.3945H123.505V26.2109H118.715V28.7891H123.051V30.6055H118.715V35H116.518ZM124.955 24.3945H127.68L130.624 31.5869H130.741L133.686 24.3945H136.41V35H134.271V28.0566H134.184L131.415 34.9561H129.95L127.182 28.0273H127.094V35H124.955V24.3945ZM152.318 23.0176V30.1807H150.443V23.0176H152.318ZM141.361 26.7383C141.361 24.8633 142.929 23.5596 145.009 23.5742C147.082 23.5596 148.649 24.8633 148.656 26.7383C148.649 28.5547 147.082 29.8584 145.009 29.8584C142.929 29.8584 141.361 28.5547 141.361 26.7383ZM143.192 26.7383C143.178 27.7271 143.939 28.3203 145.009 28.3203C146.049 28.3203 146.803 27.7271 146.811 26.7383C146.803 25.7349 146.049 25.1196 145.009 25.127C143.939 25.1196 143.178 25.7349 143.192 26.7383ZM143.397 36.2012V30.7666H145.243V32.0117H150.458V30.7666H152.318V36.2012H143.397ZM145.243 34.6924H150.458V33.4619H145.243V34.6924ZM161.693 23.9111V25.4053H159.042C159.049 26.958 159.994 28.4595 162.118 29.082L161.225 30.5469C159.752 30.1001 158.727 29.1992 158.141 28.064C157.548 29.4043 156.464 30.4736 154.867 31.001L153.915 29.5215C156.127 28.8257 157.13 27.0972 157.152 25.4053H154.428V23.9111H161.693ZM155.761 33.7549C155.753 32.1289 157.511 31.1841 160.331 31.1914C163.107 31.1841 164.821 32.1289 164.828 33.7549C164.821 35.3882 163.107 36.355 160.331 36.3477C157.511 36.355 155.753 35.3882 155.761 33.7549ZM157.636 33.7549C157.621 34.5166 158.581 34.8975 160.331 34.8975C162.06 34.8975 162.982 34.5166 162.982 33.7549C162.982 33.0078 162.06 32.6343 160.331 32.6416C158.581 32.6343 157.621 33.0078 157.636 33.7549ZM162.821 30.9277V23.0176H164.696V26.1084H166.498V27.6318H164.696V30.9277H162.821ZM177.602 23.0176V28.2324H179.564V29.7705H177.602V36.3477H175.756V23.0176H177.602ZM167.011 26.5039V25.0098H170.028V23.2227H171.903V25.0098H174.848V26.5039H167.011ZM167.553 30.4297C167.545 28.5693 168.996 27.2437 170.966 27.251C172.907 27.2437 174.364 28.5693 174.364 30.4297C174.364 32.29 172.907 33.6011 170.966 33.6084C168.996 33.6011 167.545 32.29 167.553 30.4297ZM169.34 30.4297C169.34 31.4624 170.021 32.0776 170.966 32.0703C171.896 32.0776 172.577 31.4624 172.577 30.4297C172.577 29.4043 171.896 28.7744 170.966 28.7598C170.021 28.7744 169.34 29.4043 169.34 30.4297ZM191.254 23.0176V36.3477H189.364V23.0176H191.254ZM180.092 32.5684C183.534 30.9424 185.05 28.833 185.351 25.874H180.81V24.4092H187.255C187.248 28.4521 185.834 31.814 181.073 34.0625L180.092 32.5684Z" fill="#F4F4F4"/>
</g>
<defs>
<filter id="filter0_d_995_294" x="0.7" y="0.7" width="227.6" height="59.6" filterUnits="userSpaceOnUse" color-interpolation-filters="sRGB">
<feFlood flood-opacity="0" result="BackgroundImageFix"/>
<feColorMatrix in="SourceAlpha" type="matrix" values="0 0 0 0 0 0 0 0 0 0 0 0 0 0 0 0 0 0 127 0" result="hardAlpha"/>
<feMorphology radius="1" operator="erode" in="SourceAlpha" result="effect1_dropShadow_995_294"/>
<feOffset dx="1" dy="1"/>
<feGaussianBlur stdDeviation="4.15"/>
<feComposite in2="hardAlpha" operator="out"/>
<feColorMatrix type="matrix" values="0 0 0 0 0.188235 0 0 0 0 0.192157 0 0 0 0 0.258824 0 0 0 0.3 0"/>
<feBlend mode="normal" in2="BackgroundImageFix" result="effect1_dropShadow_995_294"/>
<feBlend mode="normal" in="SourceGraphic" in2="effect1_dropShadow_995_294" result="shape"/>
</filter>
</defs>
</svg>
