<svg width="22" height="15" viewBox="0 0 22 15" fill="none" xmlns="http://www.w3.org/2000/svg">
<path d="M19.8103 13.285C18.1777 14.0791 14.7785 15.4161 12.2801 12.9563C10.9669 11.6625 10.7817 10.2853 10.6462 9.2817C10.5143 8.3255 10.4614 8.27079 10.1596 8.10351C9.89793 7.95802 9.74389 7.96176 8.75063 8.33224C7.71398 8.71801 6.14433 9.30651 4.32341 8.61146C1.13226 7.39831 0.840311 3.98341 0.70242 2.3403L0.674598 2.01738C0.578171 1.03184 1.35687 0.133247 2.40569 0.0100481C3.45951 -0.110426 4.38649 0.591139 4.48292 1.57668L4.51551 1.93459C4.63955 3.40818 4.84917 4.87969 5.858 5.26611C6.24045 5.41245 6.58042 5.31215 7.44348 4.98754C8.56998 4.56637 10.2739 3.93096 12.1727 4.97619C14.0776 6.02792 14.2942 7.64255 14.4424 8.71129C14.5542 9.52374 14.6304 9.96695 15.0881 10.4199C15.6838 11.0061 16.7015 10.8628 18.5892 9.87372L18.9358 9.69924C19.8874 9.23487 21.0305 9.57438 21.488 10.4582C21.9496 11.3409 21.552 12.4305 20.5994 12.891L20.3326 13.0247C20.1881 13.0984 20.0133 13.1881 19.8113 13.2888L19.8103 13.285Z" fill="#F0D396"/>
</svg>
