<svg width="10" height="7" viewBox="0 0 10 7" fill="none" xmlns="http://www.w3.org/2000/svg">
<path d="M7.24312 1.43499C6.42377 1.43499 5.85871 2.02831 5.85871 2.80527V6.40757H4.64382V2.89003C4.64382 2.0283 4.16352 1.44912 3.45719 1.44912C2.63784 1.44912 2.05864 2.14132 2.05864 3.00305V6.42169H0.84375V0.375488H2.05864V1.22308C2.41181 0.742779 2.97688 0.389618 3.54194 0.389618C4.27653 0.389618 4.99699 0.855796 5.35015 1.49149C5.75983 0.855796 6.56504 0.389618 7.31376 0.389618C8.71229 0.389618 9.68702 1.40673 9.68702 2.83352V6.42169H8.47213V2.90416C8.47213 2.04243 7.9777 1.46325 7.25724 1.46325L7.24312 1.43499Z" fill="#303142"/>
</svg>
