<svg width="10" height="7" viewBox="0 0 10 7" fill="none" xmlns="http://www.w3.org/2000/svg">
<path d="M6.58297 1.43499C5.76362 1.43499 5.19856 2.02831 5.19856 2.80527V6.40757H3.98367V2.89003C3.98367 2.0283 3.50336 1.44912 2.79703 1.44912C1.97768 1.44912 1.39849 2.14132 1.39849 3.00305V6.42169H0.183594V0.375488H1.39849V1.22308C1.75165 0.742779 2.31672 0.389618 2.88178 0.389618C3.61637 0.389618 4.33683 0.855796 4.69 1.49149C5.09967 0.855796 5.90489 0.389618 6.6536 0.389618C8.05214 0.389618 9.02688 1.40673 9.02688 2.83352V6.42169H7.81199V2.90416C7.81199 2.04243 7.31755 1.46325 6.59709 1.46325L6.58297 1.43499Z" fill="#303142"/>
</svg>
