<svg width="7" height="10" viewBox="0 0 7 10" fill="none" xmlns="http://www.w3.org/2000/svg">
<path d="M3.33932 9.12034C2.33632 9.12034 1.38984 8.69654 0.796526 7.7218L1.77126 7.10023C2.20918 7.75006 2.68949 8.04672 3.33932 8.04672C4.46945 8.04672 5.11929 7.15674 5.11929 6.06898V5.47567C4.65311 6.09724 3.94678 6.46453 3.31108 6.46453C1.63001 6.46453 0.443359 5.19314 0.443359 3.41318C0.443359 1.63322 1.63001 0.361816 3.31108 0.361816C4.00328 0.361816 4.70961 0.714983 5.11929 1.32243V0.361816H6.32004V5.98423C6.32004 7.7218 5.16165 9.12034 3.33932 9.12034ZM5.11929 3.39905C5.11929 2.32542 4.37057 1.4072 3.36757 1.4072C2.36458 1.4072 1.65824 2.21241 1.65824 3.39905C1.65824 4.58569 2.35046 5.39091 3.36757 5.39091C4.38469 5.39091 5.11929 4.50093 5.11929 3.39905Z" fill="#303142"/>
</svg>
