<svg width="9" height="7" viewBox="0 0 9 7" fill="none" xmlns="http://www.w3.org/2000/svg">
<path d="M6.53805 1.43499C5.7187 1.43499 5.15364 2.02831 5.15364 2.80527V6.40757H3.93874V2.89003C3.93874 2.0283 3.45844 1.44912 2.7521 1.44912C1.93276 1.44912 1.35356 2.14132 1.35356 3.00305V6.42169H0.138672V0.375488H1.35356V1.22308C1.70673 0.742779 2.2718 0.389618 2.83686 0.389618C3.57145 0.389618 4.29191 0.855796 4.64508 1.49149C5.05475 0.855796 5.85997 0.389618 6.60868 0.389618C8.00722 0.389618 8.98196 1.40673 8.98196 2.83352V6.42169H7.76706V2.90416C7.76706 2.04243 7.27263 1.46325 6.55217 1.46325L6.53805 1.43499Z" fill="#303142"/>
</svg>
