<svg width="7" height="7" viewBox="0 0 7 7" fill="none" xmlns="http://www.w3.org/2000/svg">
<path d="M0.693359 3.39803C0.693359 1.61807 1.89414 0.34668 3.60347 0.34668C5.46818 0.34668 6.06149 1.87235 6.10387 1.98537C6.47116 2.87534 6.34402 3.82183 6.34402 3.87834H1.90825C2.06364 4.76832 2.78412 5.37576 3.60347 5.37576C4.70534 5.37576 5.12914 4.71181 5.2139 4.55641L6.1745 5.0226C5.87785 5.70068 5.03026 6.43526 3.60347 6.43526C1.89414 6.43526 0.693359 5.17799 0.693359 3.39803ZM3.60347 1.40618C2.74174 1.40618 2.06364 2.02775 1.90825 2.9036H5.18564C5.07263 2.07013 4.62058 1.40618 3.60347 1.40618Z" fill="#303142"/>
</svg>
