<svg width="23" height="14" viewBox="0 0 23 14" fill="none" xmlns="http://www.w3.org/2000/svg">
<path d="M7.61961 13.9848C3.93359 13.9848 1.1638 12.7021 0.515398 10.4045C-0.42901 7.06386 3.54596 3.21575 9.76214 1.45379C15.9783 -0.308165 21.384 0.882917 22.3284 4.22359C22.8218 5.9644 22.0042 7.88141 20.0308 9.61517C18.3112 11.1305 15.8444 12.392 13.0817 13.1743C11.1435 13.7241 9.28994 13.9848 7.61961 13.9848ZM15.1608 3.26508C13.8005 3.26508 12.2077 3.46947 10.4669 3.96282C5.34315 5.41467 2.63679 8.32542 3.02442 9.6927C3.41205 11.06 7.24607 12.1171 12.3698 10.6653C14.7309 9.99575 16.8945 8.90334 18.3041 7.65588C19.4458 6.64804 20.0097 5.63315 19.8123 4.92837C19.5586 4.02625 17.7967 3.25803 15.1608 3.25803V3.26508Z" fill="#3E3E4A"/>
</svg>
