<svg width="6" height="7" viewBox="0 0 6 7" fill="none" xmlns="http://www.w3.org/2000/svg">
<path d="M0.126953 3.39803C0.126953 1.61807 1.32774 0.34668 3.03706 0.34668C4.90178 0.34668 5.49508 1.87235 5.53746 1.98537C5.90475 2.87534 5.77761 3.82183 5.77761 3.87834H1.34185C1.49724 4.76832 2.21771 5.37576 3.03706 5.37576C4.13894 5.37576 4.56274 4.71181 4.6475 4.55641L5.6081 5.0226C5.31144 5.70068 4.46385 6.43526 3.03706 6.43526C1.32774 6.43526 0.126953 5.17799 0.126953 3.39803ZM3.03706 1.40618C2.17533 1.40618 1.49724 2.02775 1.34185 2.9036H4.61924C4.50622 2.07013 4.05418 1.40618 3.03706 1.40618Z" fill="#303142"/>
</svg>
