<svg width="10" height="7" viewBox="0 0 10 7" fill="none" xmlns="http://www.w3.org/2000/svg">
<path d="M6.81734 1.43499C5.99799 1.43499 5.43293 2.02831 5.43293 2.80527V6.40757H4.21804V2.89003C4.21804 2.0283 3.73773 1.44912 3.0314 1.44912C2.21205 1.44912 1.63286 2.14132 1.63286 3.00305V6.42169H0.417969V0.375488H1.63286V1.22308C1.98603 0.742779 2.55109 0.389618 3.11616 0.389618C3.85074 0.389618 4.5712 0.855796 4.92437 1.49149C5.33404 0.855796 6.13926 0.389618 6.88797 0.389618C8.28651 0.389618 9.26125 1.40673 9.26125 2.83352V6.42169H8.04636V2.90416C8.04636 2.04243 7.55193 1.46325 6.83147 1.46325L6.81734 1.43499Z" fill="#303142"/>
</svg>
