<svg width="165" height="61" viewBox="0 0 165 61" fill="none" xmlns="http://www.w3.org/2000/svg">
<g filter="url(#filter0_d_920_68)">
<rect x="7" y="7" width="149" height="45" rx="22.5" fill="#303142" fill-opacity="0.9" shape-rendering="crispEdges"/>
<path d="M52.5107 23.0322V32.7734H50.6504V29.6094H47.6035C46.959 30.2905 46.0361 30.708 44.9961 30.708C42.9746 30.708 41.4365 29.2432 41.4512 27.2656C41.4365 25.2588 42.9746 23.8013 44.9961 23.7939C46.0288 23.8013 46.9517 24.2114 47.5962 24.8926H50.6504V23.0322H52.5107ZM43.2236 27.2656C43.2163 28.3789 43.9561 29.0527 44.9961 29.0527C45.9775 29.0527 46.7319 28.3789 46.7393 27.2656C46.7319 26.1377 45.9775 25.4639 44.9961 25.4639C43.9561 25.4639 43.2163 26.1377 43.2236 27.2656ZM43.6631 36.1133V31.792H45.5381V34.6191H52.833V36.1133H43.6631ZM48.4019 26.3867C48.4751 26.665 48.5117 26.958 48.5117 27.2656C48.5117 27.5586 48.4751 27.8442 48.4092 28.1152H50.6504V26.3867H48.4019ZM64.9766 23.7939V24.9951C64.9692 26.2402 64.9692 27.5952 64.6323 29.4629H66.3975V30.9717H61.1973V36.3623H59.3223V30.9717H54.2393V29.4629H62.7354C63.0796 27.749 63.1089 26.438 63.1162 25.2881H55.6309V23.7939H64.9766ZM75.8457 26.0352C75.8384 28.4814 76.9517 30.9351 79.2148 31.8945L78.1162 33.3887C76.5928 32.7002 75.5381 31.3672 74.9302 29.7192C74.3296 31.521 73.2383 32.9712 71.6123 33.7109L70.4844 32.1582C72.8135 31.1768 73.9487 28.6206 73.9561 26.0352V24.043H75.8457V26.0352ZM79.9326 36.377V23.0176H81.8223V36.377H79.9326ZM91.1973 23.7939V25.2881H88.5459C88.5532 26.8481 89.4907 28.4521 91.6514 29.1406L90.6992 30.5908C89.2197 30.1074 88.2017 29.1553 87.623 27.9688C87.0298 29.2651 85.9604 30.3052 84.415 30.8105L83.4189 29.375C85.6235 28.6646 86.6343 26.9507 86.6562 25.2881H83.9316V23.7939H91.1973ZM85.2207 33.1104V31.6309H94.2002V36.3477H92.3252V33.1104H85.2207ZM92.3252 31.0596V23.0176H94.2002V26.2549H96.002V27.8076H94.2002V31.0596H92.3252ZM107.105 23.0176V28.2324H109.068V29.7705H107.105V36.3477H105.26V23.0176H107.105ZM96.5146 26.5039V25.0098H99.5322V23.2227H101.407V25.0098H104.352V26.5039H96.5146ZM97.0566 30.4297C97.0493 28.5693 98.4995 27.2437 100.47 27.251C102.411 27.2437 103.868 28.5693 103.868 30.4297C103.868 32.29 102.411 33.6011 100.47 33.6084C98.4995 33.6011 97.0493 32.29 97.0566 30.4297ZM98.8438 30.4297C98.8438 31.4624 99.5249 32.0776 100.47 32.0703C101.4 32.0776 102.081 31.4624 102.081 30.4297C102.081 29.4043 101.4 28.7744 100.47 28.7598C99.5249 28.7744 98.8438 29.4043 98.8438 30.4297ZM120.758 23.0176V36.3477H118.868V23.0176H120.758ZM109.596 32.5684C113.038 30.9424 114.554 28.833 114.854 25.874H110.313V24.4092H116.759C116.751 28.4521 115.338 31.814 110.577 34.0625L109.596 32.5684Z" fill="#F4F4F4"/>
</g>
<defs>
<filter id="filter0_d_920_68" x="0.7" y="0.7" width="163.6" height="59.6" filterUnits="userSpaceOnUse" color-interpolation-filters="sRGB">
<feFlood flood-opacity="0" result="BackgroundImageFix"/>
<feColorMatrix in="SourceAlpha" type="matrix" values="0 0 0 0 0 0 0 0 0 0 0 0 0 0 0 0 0 0 127 0" result="hardAlpha"/>
<feMorphology radius="1" operator="erode" in="SourceAlpha" result="effect1_dropShadow_920_68"/>
<feOffset dx="1" dy="1"/>
<feGaussianBlur stdDeviation="4.15"/>
<feComposite in2="hardAlpha" operator="out"/>
<feColorMatrix type="matrix" values="0 0 0 0 0.188235 0 0 0 0 0.192157 0 0 0 0 0.258824 0 0 0 0.3 0"/>
<feBlend mode="normal" in2="BackgroundImageFix" result="effect1_dropShadow_920_68"/>
<feBlend mode="normal" in="SourceGraphic" in2="effect1_dropShadow_920_68" result="shape"/>
</filter>
</defs>
</svg>
