<svg width="50" height="34" viewBox="0 0 50 34" fill="none" xmlns="http://www.w3.org/2000/svg">
<path opacity="0.4" d="M45.4444 31.298C41.617 33.1596 33.6477 36.2942 27.7901 30.5273C24.7114 27.4939 24.2773 24.2651 23.9595 21.9123C23.6504 19.6705 23.5262 19.5422 22.8188 19.15C22.2053 18.809 21.8442 18.8177 19.5155 19.6863C17.0851 20.5907 13.4051 21.9704 9.13608 20.3409C1.65454 17.4967 0.970075 9.49065 0.646795 5.63844L0.581569 4.88136C0.355499 2.5708 2.18114 0.464087 4.64004 0.175251C7.11069 -0.107195 9.28395 1.5376 9.51002 3.84815L9.58645 4.68727C9.87725 8.14204 10.3687 11.5919 12.7338 12.4979C13.6305 12.841 14.4275 12.6058 16.4509 11.8448C19.092 10.8574 23.0867 9.36769 27.5385 11.8182C32.0044 14.2839 32.5122 18.0693 32.8596 20.575C33.1217 22.4797 33.3004 23.5188 34.3735 24.5807C35.77 25.9551 38.1561 25.6191 42.5816 23.3002L43.3941 22.8912C45.6253 21.8025 48.3051 22.5984 49.3778 24.6704C50.46 26.7399 49.5279 29.2944 47.2944 30.3743L46.6691 30.6876C46.3303 30.8604 45.9205 31.0706 45.4467 31.3068L45.4444 31.298Z" fill="#F0D396"/>
</svg>
