<svg width="41" height="17" viewBox="0 0 41 17" fill="none" xmlns="http://www.w3.org/2000/svg">
<path d="M0.632812 3.48761V16.7978H2.97839V10.2496H16.0299V7.90815H2.97839V3.48761C2.97839 2.95812 3.40663 2.53064 3.93706 2.53064H18.7064V0.189209H3.93706C2.11705 0.189209 0.632812 1.67082 0.632812 3.48761Z" fill="#405448" fill-opacity="0.7"/>
<path d="M39.6023 0.276623C39.1644 0.0968874 38.6583 0.194042 38.3225 0.529226L30.6969 8.12672L23.0811 0.529226C22.7453 0.194042 22.2392 0.0968874 21.8013 0.276623C21.3633 0.45636 21.0762 0.88384 21.0762 1.3599V16.7978H23.4218V4.18224L29.8745 10.609C30.332 11.0656 31.0716 11.0656 31.5291 10.609L37.9819 4.18224V16.7978H40.3274V1.3599C40.3274 0.888698 40.0403 0.461217 39.6023 0.276623Z" fill="#405448" fill-opacity="0.7"/>
</svg>
