<svg width="86" height="86" viewBox="0 0 86 86" fill="none" xmlns="http://www.w3.org/2000/svg">
<g clip-path="url(#clip0_843_462)">
<g opacity="0.1">
<path d="M82.1085 27.0379L82.6625 26.7829C83.8271 28.4401 83.7987 30.3521 83.6425 32.3208C84.0402 32.3208 84.3384 32.3491 84.7503 32.3633C84.452 33.1281 85.4321 34.0346 84.3952 34.7994C84.6083 34.6861 84.8213 34.5586 85.0912 34.417C85.4747 35.2951 84.3668 36.4565 85.9292 37.0655C85.3753 37.2638 85.1622 37.3488 84.8639 37.448C85.1196 37.9012 85.4321 38.3403 85.6025 38.836C85.7019 39.1051 85.5599 39.4592 85.5031 39.7708C85.4321 40.1957 84.7503 40.6772 85.6593 41.0313C85.8298 41.1021 85.8582 41.527 85.9576 41.7961C85.3895 41.6686 84.9918 41.5837 84.6083 41.4987C84.7361 41.9236 84.8639 42.3343 84.9918 42.7592C84.9918 42.7592 85.2332 42.6459 85.29 42.6884C85.5457 42.8867 85.915 43.085 85.9718 43.3258C86.0712 43.8356 85.9718 44.3738 85.9718 44.997C85.7729 44.997 85.5741 45.0112 85.5599 45.0112C85.2474 45.7335 84.9634 46.3709 84.6935 47.0082C85.006 46.9657 85.3184 46.9233 85.7729 46.8666C85.4889 48.1555 86.057 49.586 84.6083 50.3508C85.6877 51.9796 84.4236 53.4101 84.3242 54.9114C83.0317 55.1522 83.0033 55.2655 83.472 56.3419C83.5999 56.6252 83.4436 57.1209 83.2448 57.4041C83.0459 57.7016 82.6198 57.8432 82.208 58.0982C82.5062 58.1973 82.7335 58.2681 83.188 58.4098C82.6198 59.5145 82.0517 60.5909 81.5262 61.6815C81.1995 62.3613 80.9723 63.0978 80.603 63.7635C80.4326 64.0751 80.0349 64.2592 79.7366 64.5C79.6656 64.4292 79.5946 64.3442 79.5236 64.2734C79.3105 65.0524 79.2537 65.9305 78.856 66.5962C78.4725 67.2335 77.734 67.6726 76.9386 68.3808C77.3505 68.1541 77.5351 68.0692 77.805 67.9134C77.18 68.7773 76.6971 69.6271 76.0154 70.307C75.7597 70.5619 75.078 70.4203 74.5951 70.4486L75.0638 71.4542C74.1122 72.3465 73.189 73.2246 72.2515 74.1028C72.2373 74.0744 72.2231 74.0319 72.2089 74.0036L71.6834 74.8676C71.3283 74.6268 70.9733 74.386 70.533 74.0886C70.3199 74.5702 69.8938 75.0942 69.908 75.5899C69.9648 76.9213 69.3257 76.9071 68.4167 76.5105C68.2463 77.0204 68.2037 77.5303 67.9338 77.8561C67.7634 78.0543 67.252 77.9552 66.7265 78.0119C66.6129 78.6067 66.3004 79.2441 65.3488 78.4934C64.454 80.278 61.4572 81.836 58.858 82.8274C58.8864 82.36 58.9148 81.9776 58.929 81.581C58.8722 81.5385 58.8154 81.4819 58.7586 81.4394C58.4319 81.9209 58.1336 82.4167 57.7928 82.8841C57.6507 83.0823 57.3951 83.4223 57.253 83.3939C55.9606 83.139 55.0658 84.0455 53.9863 84.3995C53.2051 84.6545 52.3103 84.5837 51.2877 84.6828C51.1883 84.5128 50.961 84.1163 50.677 83.6064C49.8674 84.1871 49.2851 85.3626 48.0352 84.6403C48.0068 85.0086 47.9926 85.2918 47.95 85.7451C47.1404 85.6034 46.3734 85.4335 45.5923 85.3343C45.3082 85.2918 45.0099 85.4193 44.7259 85.4476C44.4134 85.476 44.1009 85.4476 43.6038 85.4618C43.3908 85.83 43.0641 86.3541 42.2829 85.5751C42.0557 85.3485 41.3455 85.4901 40.891 85.5893C39.6411 85.8584 38.4765 85.7734 37.4965 84.9094C36.6727 84.1871 35.6785 84.5128 34.7979 84.4704C33.8889 84.4279 32.9231 83.7763 31.9999 84.4704C31.9572 84.4987 31.8294 84.4704 31.801 84.4279C31.2329 83.7763 30.679 83.1248 30.0824 82.4308C29.5285 82.4875 28.7757 82.5583 27.8951 82.6433C27.6111 83.1532 27.4264 83.1248 24.9409 81.8643C25.1681 81.5952 25.3812 81.3402 25.6795 81.0003C24.8983 80.9437 24.2307 80.8162 23.549 80.8445C22.3985 80.9012 22.2991 80.8304 22.4838 79.754C22.5264 79.5415 22.4553 79.3149 22.4127 78.9608C21.8872 79.3149 21.4895 79.584 21.1345 79.8389C20.9072 79.6548 20.7652 79.4849 20.5663 79.3715C19.7283 78.8617 18.7341 78.4792 18.0524 77.8136C17.2286 77.0063 17.47 76.5814 18.8477 76.029C18.6915 75.9015 18.4927 75.7174 18.4501 75.7457C17.5837 76.2839 16.8309 75.774 16.0497 75.5333C15.9077 75.4908 15.7799 75.3916 15.6378 75.3067C15.2402 75.0659 14.8425 74.8251 14.4448 74.5702C14.3454 74.6551 14.2601 74.726 14.1607 74.8109C14.1465 74.556 14.2033 74.2727 14.0897 74.0744C13.9193 73.7628 13.6352 73.5079 13.3937 73.2246C12.8398 73.692 12.3569 73.3096 12.2149 72.8989C12.0302 72.3748 11.4621 71.7375 12.2007 71.1568C12.2859 71.086 12.3285 70.9585 12.2433 70.6752C11.8598 70.9018 11.4763 71.1426 11.0644 71.3834C10.2406 70.5053 8.89135 69.9812 8.96237 68.4374C8.29482 68.3949 7.41422 67.2477 7.15857 66.3554C6.78929 65.0807 5.97971 64.0468 5.24114 62.9562C4.47417 61.8373 3.87764 60.5767 3.2243 59.3729C3.18169 59.302 3.33792 59.0896 3.43735 58.9763C3.60778 58.7922 3.80663 58.6222 4.1191 58.3389C1.98862 57.9848 2.57095 57.3758 3.57938 55.9453C3.19589 55.7895 2.7698 55.6196 2.14486 55.3646C2.72719 54.8831 3.03966 54.6281 3.35213 54.359C3.32372 54.3024 3.29531 54.2599 3.26691 54.2032C2.92603 54.3307 2.58516 54.4582 1.93181 54.7131C2.75559 53.2684 0.88078 52.9568 1.07962 51.583C1.19325 50.719 1.80398 50.4216 2.11645 49.4868C1.47731 49.7418 1.05122 49.9117 0.596717 50.0817C0.497295 49.2885 0.38367 48.2971 0.270045 47.2773C0.511498 47.1357 0.752952 47.0082 1.05122 46.8241C-0.34069 46.3709 -0.0992366 45.6061 0.61092 44.7279C-0.170252 43.2408 0.0996073 41.782 0.397873 40.1673C0.568311 39.2042 0.284248 38.2128 1.17905 37.4338C1.26426 37.363 1.19325 37.0089 1.09383 36.8389C0.0712009 35.026 1.27847 33.4114 1.53412 31.726C1.63355 31.0744 2.07384 30.4796 2.13066 29.8281C2.20167 28.9074 2.67038 28.4117 3.59358 28.086C3.30952 27.8594 3.12488 27.7036 2.72719 27.3778C3.45155 26.4147 4.19011 25.4233 4.88607 24.4885C4.88607 24.0494 4.88607 23.497 4.87186 22.9588C4.98549 22.9447 5.11332 22.9305 5.22694 22.9022C5.45419 23.1571 5.68144 23.3979 6.00811 23.7661C6.16435 23.4687 6.29218 23.2421 6.4058 23.0155C6.22116 22.9163 6.03652 22.8314 5.86608 22.7181C5.70985 22.6189 5.4968 22.5056 5.46839 22.364C5.35477 21.7549 6.53363 20.4094 6.94552 20.2253C7.79771 18.8514 8.56468 17.4068 9.53049 16.1179C10.1838 15.254 11.107 14.5883 12.0729 13.6818C12.0586 13.6818 11.874 13.6677 11.6468 13.6393C12.3853 13.3702 12.4137 11.6281 13.9051 12.5487C14.0329 12.0105 14.0471 11.4582 14.3027 11.0474C14.4448 10.8208 14.9845 10.7358 15.3396 10.75C15.9219 10.7783 16.1492 10.5942 16.0497 10.0277C15.9077 9.17787 16.6037 9.14954 17.115 8.93709C17.3706 8.82378 17.7115 8.75296 17.8535 8.55468C18.2796 7.94565 19.6573 7.61989 20.2397 8.07312C20.3107 8.12978 20.3107 8.25725 20.3391 8.35639C20.4101 8.22892 20.5379 8.10145 20.5521 7.95982C20.5521 7.87483 20.4385 7.70487 20.3391 7.66238C19.7852 7.43577 19.6431 6.8834 20.1544 6.58597C21.1203 6.0336 22.1571 5.59453 23.1939 5.15547C23.3928 5.07049 23.691 5.26877 23.9467 5.33959C23.7762 4.07905 25.8925 3.27174 28.2644 3.69664C28.1082 3.22925 28.2218 3.05929 28.9178 2.93182C29.5569 2.80435 30.2103 2.73353 30.9062 2.62022C30.8778 2.52108 30.7784 2.20949 30.6932 1.88373C32.7668 1.41634 34.7695 0.948945 36.7863 0.552371C37.0846 0.495717 37.4965 0.750658 37.7947 0.934782C38.2066 1.18972 38.4623 1.31719 38.9736 0.934782C39.7122 0.396574 40.5928 -0.509882 41.6012 0.694005C41.7006 0.821475 42.3966 0.708168 42.5244 0.524044C43.0641 -0.254941 43.8879 -0.127471 44.3566 0.21245C45.3224 0.934782 46.1888 0.495718 47.1688 0.424901C48.2624 0.33992 49.4129 0.524044 50.4923 0.807312C51.2593 1.0056 51.9269 1.52964 52.5092 1.84124C52.5092 1.88373 52.4382 1.61462 52.2961 1.18972C52.779 1.24638 53.1483 1.30303 53.7733 1.37385C53.333 1.72793 53.1057 1.91205 52.8643 2.11034C53.1625 2.49275 53.4324 2.81851 53.5886 3.03096C55.222 2.97431 56.9406 1.51548 57.878 3.45586C58.7444 3.48419 59.5397 3.27174 59.8664 3.56917C60.4914 4.1357 61.7838 3.78162 61.9117 4.99967C61.9117 5.028 62.2099 5.07049 62.3378 5.04216C63.2894 4.81555 63.616 5.1413 63.4314 6.09025C63.3888 6.34519 63.3888 6.61429 63.3462 7.08169C63.8859 6.82675 64.2268 6.60013 64.5961 6.51515C65.2352 6.37352 65.9027 6.47266 65.8885 7.27997C65.8743 8.38472 66.6981 8.18643 67.181 8.08729C67.8912 7.93149 68.0616 8.17227 68.4309 8.71047C68.9138 9.43281 69.7092 9.94269 70.3625 10.5375C70.5614 10.7217 70.7034 10.9766 70.9307 11.1324C71.2431 11.3307 71.584 11.5573 71.9391 11.5998C72.4788 11.6706 73.9133 13.0728 73.7997 13.5685C73.7145 13.9651 73.6151 14.3475 73.4588 15.0132C74.1264 14.7866 74.5667 14.6308 75.0638 14.4608C75.7455 15.1831 75.6745 15.8913 74.3678 16.5287C74.8507 16.7128 75.2058 16.9677 75.3478 16.8827C75.6603 16.6845 75.8591 16.3304 76.1858 15.9338C76.2568 15.9763 76.5267 16.0471 76.6261 16.2171C77.2226 17.2227 77.7766 18.2566 78.3447 19.2763C78.5151 19.5738 78.6856 19.8995 78.927 20.1403C79.4525 20.636 79.9639 21.1176 80.0349 21.9107C80.1059 22.7605 80.9297 23.1713 81.299 23.7945C81.8245 24.6868 81.8671 25.8623 82.1227 26.9671L82.1085 27.0379ZM73.6293 65.2931C73.4304 64.7266 73.0185 64.1034 73.1748 63.8768C73.7713 63.0128 74.5525 62.2905 75.2484 61.4832C75.5467 61.1433 76.058 60.4634 76.0012 60.4068C74.9928 59.387 76.0296 59.1038 76.5835 58.6647C76.2426 57.8715 77.0238 56.441 77.876 56.2286C78.0748 56.1861 78.2453 56.0161 78.4299 55.917C78.2311 55.7895 78.0322 55.6621 77.805 55.5629C77.7198 55.5204 77.6061 55.5912 77.4783 55.6054C77.5635 54.5998 78.5151 54.0474 78.4725 53.0702C78.4441 52.5603 78.4725 52.0221 78.6003 51.5264C78.8702 50.5916 79.8502 49.8409 79.2111 48.6937C79.1117 48.5237 79.2963 48.1271 79.4525 47.9147C80.3331 46.64 80.0207 45.252 79.907 43.864C79.8218 42.8159 79.907 41.7395 79.907 40.6914C79.907 40.1673 80.1201 39.3742 79.8786 39.1901C78.9696 38.5102 79.5094 37.8587 79.4809 37.2355C79.2395 36.5415 79.0122 35.8475 78.7282 35.026C79.2963 35.026 79.6514 35.026 80.0065 35.026C78.1459 34.5303 78.2169 32.9298 77.9044 31.5135C78.2027 31.4285 78.4867 31.3577 78.8134 31.2727L77.2084 27.8452C74.9786 27.2503 75.5751 25.225 75.2484 23.6245C74.5525 23.5679 73.8849 23.5962 73.7287 22.5339C73.6435 21.9249 72.6492 21.5 73.3736 20.6927C73.1748 20.6077 73.0895 20.5227 72.9901 20.5227C71.6266 20.4944 70.888 19.8146 70.675 18.4832C70.6466 18.3274 70.4051 18.1858 70.2347 18.0725C69.6382 17.6759 69.0274 17.2793 68.4025 16.8686C68.7292 16.557 68.928 16.3729 69.1269 16.1887C68.1895 16.9819 67.7918 16.1887 67.3373 15.6364C67.5219 15.4522 67.7207 15.2681 67.9338 15.0698C67.9338 14.9565 67.9196 14.8432 67.9054 14.7299C66.826 15.6647 66.2578 14.8715 65.6471 14.305C65.3204 14.0076 65.1358 13.3277 64.8233 13.2711C63.474 13.0586 62.6786 12.2655 62.1531 11.0616C61.2299 11.6565 60.4487 11.1466 60.1789 10.5092C59.9658 10.0135 60.4061 9.23452 60.605 8.34223C60.1363 8.76713 59.8238 9.05039 59.5966 9.26285C59.1847 9.02207 58.8864 8.71047 58.5597 8.66798C57.9206 8.583 57.2672 8.59717 56.6281 8.66798C55.2362 8.85211 54.4834 8.45553 54.0005 7.22332C53.9011 6.98254 53.7023 6.79842 53.4892 6.50099C53.0915 7.81818 52.0405 7.86067 50.2225 6.75593C50.3361 6.48682 50.4639 6.23188 50.5776 5.96278C50.5634 5.86364 50.535 5.76449 50.5207 5.66535C48.8448 6.94005 47.2114 7.47826 45.7627 5.73617C44.4134 6.99671 42.78 6.20356 41.2461 6.47266C41.3597 6.20356 41.4307 6.00527 41.4876 5.8778C41.2035 5.77866 40.9052 5.66535 40.607 5.59453C40.3939 5.53788 40.1667 5.55204 39.9536 5.53788C40.053 5.75033 40.1241 6.00527 40.2945 6.16107C40.3797 6.23188 40.6354 6.11858 40.8058 6.07609C40.7632 6.18939 40.7206 6.31686 40.678 6.43017C39.3429 6.7276 38.022 6.96838 36.8999 5.6087C36.1614 6.84091 35.1103 6.52931 34.0309 6.24605C33.8605 6.20356 33.6616 6.33103 33.2639 6.41601C33.69 6.79842 33.9741 7.05336 34.3292 7.36495C34.0167 7.47826 33.7895 7.59157 33.5622 7.64822C32.1703 8.03063 30.7358 8.17227 29.4433 8.90876C28.0656 9.68775 26.4464 10.0985 25.1823 10.9908C24.0461 11.7981 23.2791 11.5007 22.3275 10.7358C22.2707 11.1324 22.2139 11.4298 22.1855 11.5856C22.5122 11.6423 22.7678 11.6848 23.0093 11.7131C22.8814 11.9964 22.853 12.393 22.64 12.5346C21.3333 13.4269 19.9414 14.1917 18.6915 15.1406C18.0098 15.6505 17.5411 16.4437 16.9587 17.1094C16.5752 17.5484 16.135 17.945 15.7799 18.3982C15.3538 18.9364 14.9845 19.5313 14.4448 18.554C13.834 18.9364 13.2943 19.2905 12.7546 19.6304C12.8114 19.6871 12.854 19.7437 12.9108 19.7862C13.3937 19.7579 13.8767 19.7296 14.3454 19.7013C14.388 19.8712 14.4448 20.0412 14.4874 20.2111C13.692 20.7493 12.9108 21.2875 12.0444 21.8824C12.1723 22.0099 12.3853 22.2223 12.5842 22.4348C12.4705 22.6189 12.2717 23.0296 12.2291 23.0155C11.3201 22.6472 11.5047 23.3837 11.5331 23.7661C11.5757 24.531 11.2349 24.8142 10.5105 24.8709C10.2264 24.8992 9.88557 25.0975 9.72933 25.3241C9.5589 25.5649 9.5731 25.9473 9.48788 26.3722C9.60151 26.5422 9.81455 26.8538 10.0276 27.1653C9.41687 27.5194 8.91976 27.8027 8.28061 28.1851C8.70671 28.4542 8.96237 28.6242 9.38846 28.8933C8.97657 29.219 8.63569 29.4881 8.28061 29.7572C8.36583 29.8989 8.46526 30.0547 8.70671 30.4796C8.08177 30.4088 7.65568 30.3663 7.2864 30.3238C7.14436 31.1311 7.00233 31.9242 6.8603 32.7174L7.98235 32.1933C7.88293 32.5049 7.84032 32.6749 7.7835 32.8307C7.44263 33.6238 6.93132 34.4028 6.80349 35.2243C6.61885 36.3999 6.71827 37.6179 6.68986 38.6235C6.19275 38.8926 5.90869 39.0484 5.62463 39.2042C5.79507 39.4167 6.00811 39.615 6.12174 39.8416C6.20696 40.0115 6.20696 40.2665 6.16435 40.4506C6.07913 40.7905 5.72405 41.2437 5.83768 41.4279C6.33478 42.221 5.56782 42.6176 5.39738 43.17C6.8461 44.0623 6.68986 45.0254 4.72983 46.1868C5.38317 46.8099 5.99391 47.4048 6.59044 47.9855C6.49102 47.9855 6.37739 47.9855 6.27797 47.9855C6.29218 48.4387 6.16435 49.2319 6.34899 49.3027C7.42843 49.7559 7.04494 50.4499 6.80349 51.1439C6.64725 51.5688 6.46261 51.9937 6.22116 52.5886C6.9976 52.1637 7.50418 52.4139 7.7409 53.3393C7.41422 53.75 7.17277 54.0333 6.93132 54.3307C7.99655 54.3307 8.42265 54.6848 8.43685 55.5487C8.43685 55.8462 8.38004 56.3277 8.55047 56.4269C9.5731 57.0642 8.91976 58.5372 9.98499 59.1179C10.0418 59.1462 10.0986 59.3587 10.056 59.4012C9.23222 60.4068 10.4679 61.2991 10.7236 61.3982C11.7888 61.7806 11.7746 62.4038 11.6041 62.9562C12.1581 63.3103 12.5842 63.5935 13.0387 63.891C12.7972 64.1742 12.6694 64.3442 12.4847 64.5708C13.1239 64.67 14.0613 64.3584 13.5074 65.5198C13.4506 65.6331 13.6494 65.9305 13.8056 66.0438C14.5158 66.5395 15.2544 67.0069 16.206 67.6301C15.5384 67.885 15.2402 68.0125 14.9419 68.1258C14.9419 68.4233 14.8993 68.7065 14.9419 68.9898C14.9703 69.1173 15.1265 69.2731 15.2686 69.3297C15.3538 69.3722 15.5384 69.2872 15.6094 69.2164C15.8793 68.919 16.135 68.5791 16.348 68.3099C18.0382 69.7688 19.6289 71.1285 21.2765 72.5448C21.0492 72.7572 20.8362 72.9697 20.6231 73.168C20.7084 73.2955 20.7368 73.3946 20.7794 73.3946C22.2991 73.5079 23.8473 73.5646 24.3586 75.4483C24.387 75.5474 24.6284 76.0998 25.0971 75.5474C25.5232 75.0517 26.1908 75.3208 26.6311 75.8307C26.7873 76.0148 26.9151 76.2981 27.0998 76.3689C28.7047 76.8929 30.3239 77.3603 31.943 77.8844C33.2355 78.2951 34.4996 78.7767 35.7779 79.2016C35.9341 79.2582 36.1188 79.1591 36.2892 79.1733C36.7863 79.2157 37.3402 79.1733 37.7805 79.3574C38.5191 79.6548 39.2008 80.1222 39.8968 80.5188C39.8968 80.1505 39.8684 79.8106 39.8684 79.5132C40.8768 79.5132 41.8568 79.4848 42.8368 79.5415C43.0925 79.5415 43.4192 79.7398 43.5612 79.9522C44.2146 80.9153 44.8963 80.9578 45.7059 80.0939C45.8905 79.8956 46.3024 79.7256 46.5439 79.7823C47.2256 79.9381 47.879 80.2072 48.5323 80.4338C48.6175 80.3347 48.6885 80.2497 48.7738 80.1505C48.5607 79.8389 48.3477 79.5273 47.9216 78.9325C48.8874 79.1874 49.5691 79.3857 50.3361 79.5982C50.4213 79.4424 50.5918 79.1449 50.7764 78.8192C51.1315 79.2582 51.4582 79.6548 51.8842 80.1789C52.0831 79.669 52.2393 79.3857 52.3103 79.0883C52.5234 78.2385 53.2051 77.9977 53.8727 78.2101C54.455 78.3943 54.9663 78.0685 55.1368 77.8702C56.1168 76.723 57.1962 76.8221 58.162 77.3179C58.5881 76.8505 58.9148 76.3972 59.3409 76.0573C59.7528 75.7316 60.2925 75.5616 60.7044 75.2358C62.2383 74.0603 63.7723 72.8705 65.5335 72.7572C65.6613 72.2757 65.6329 71.8508 65.8459 71.6383C66.272 71.1851 66.826 70.831 67.5787 70.2362C67.3515 70.7319 67.2663 70.9302 67.039 71.4117L68.5019 70.7319C68.4309 70.1795 68.4593 69.6413 68.7576 69.3722C69.7092 68.4657 70.8596 67.9559 72.28 68.055C72.0101 67.7009 71.7686 67.3752 71.5414 67.0919C71.2147 67.1769 70.9307 67.2477 70.533 67.361C71.0443 66.667 71.4846 66.1146 71.8681 65.5198C72.3368 64.7974 72.6066 65.1657 72.8623 65.6331L73.6577 65.2648L73.6293 65.2931Z" fill="#6B503D"/>
<path d="M13.2368 30.2246C12.9102 30.2246 12.7255 30.2246 12.5409 30.2246C12.5409 30.168 12.5267 30.0972 12.5125 30.0405C12.7539 29.998 13.0664 30.0405 13.2368 29.8989C13.4783 29.7006 13.805 29.304 13.734 29.1199C13.2653 27.8594 13.7766 26.8962 15.1685 26.7263C14.9412 26.004 14.9696 25.5932 15.7934 25.0125C16.6598 24.4177 16.9581 23.0155 17.5546 22.0099C17.7676 21.6558 18.1369 21.3867 18.563 20.9335C18.7335 21.4717 18.8187 21.7691 18.9039 22.0665C19.0033 22.0382 19.0885 22.0099 19.188 21.9816C19.0885 21.7266 18.9607 21.4717 18.9181 21.2167C18.8755 20.9901 18.8329 20.6785 18.9465 20.5369C19.4294 19.942 19.9265 19.3472 20.5089 18.8656C20.8923 18.554 21.4321 18.4124 21.8866 18.1999C21.9576 18.2991 22.0286 18.4124 22.0996 18.5115C22.2558 18.1574 22.3837 17.7892 22.5825 17.4634C22.7814 17.1235 23.0512 16.5853 23.3069 16.5711C24.2585 16.5145 24.8408 15.863 25.5936 15.5089C26.0339 15.2964 26.673 15.4947 27.1417 15.5089C27.44 15.2256 27.8093 14.8291 28.207 14.4891C28.8177 13.9651 29.4426 13.4552 30.096 12.9878C30.4084 12.7612 30.8345 12.4496 31.1328 12.5063C32.4679 12.7754 33.2491 11.9397 34.2291 11.3165C34.7404 10.9908 35.6352 10.4242 36.459 11.1041C36.5868 11.2032 36.9277 11.1041 37.1407 11.0333C37.8083 10.8208 38.4616 10.4951 39.1434 10.3676C39.7257 10.2684 40.3364 10.3818 40.9046 10.4101C41.6573 10.2826 42.4101 10.0418 43.1629 10.056C44.4837 10.056 45.8046 10.226 47.1255 10.3393C47.3528 10.3534 47.6511 10.4242 47.7789 10.58C48.2902 11.2032 48.9151 11.1041 49.5969 11.0049C49.9378 10.9625 50.307 11.1891 50.6763 11.274C51.1308 11.359 51.5995 11.359 52.0398 11.5007C52.5795 11.6848 53.0767 12.0105 53.6164 12.1947C54.0425 12.3363 54.2839 13.3844 55.0083 12.4496C55.1361 12.2938 56.1019 12.7895 56.7127 13.002C56.5422 13.3136 56.386 13.5827 56.3008 13.7385C56.8121 13.9368 57.3092 14.1067 57.9341 14.3475C59.8231 13.0303 59.2266 15.8771 60.2918 16.0613C61.002 15.2115 61.3287 15.3248 61.9962 16.6278C62.6638 16.557 63.3171 16.557 63.2319 17.5343C64.2971 17.6901 65.1067 18.1291 65.2914 19.333C65.3198 19.5313 65.6038 19.7013 65.8169 19.8429C66.243 20.1403 66.7543 20.3386 67.1236 20.7069C67.7485 21.3017 68.3166 21.9532 68.8279 22.6472C69.1688 23.1146 69.3392 23.6812 69.5807 24.191C69.9642 24.6868 70.3903 25.1683 70.7454 25.6924C71.3987 26.6838 72.052 27.6894 72.6202 28.7233C72.8332 29.0916 72.8332 29.5873 72.9184 30.0122C72.9326 30.1113 72.89 30.253 72.9468 30.3096C74.6796 32.2075 74.8359 34.6294 75.2904 36.9664C75.4324 37.7171 75.7307 38.3403 75.0915 38.9918C74.9779 39.1051 75.0631 39.6433 75.2193 39.7708C76.3414 40.6914 75.9011 41.8103 75.688 42.9009C75.6596 43.085 75.7449 43.2974 75.7733 43.4957C75.8301 43.9489 75.9721 44.4163 75.9153 44.8554C75.8017 45.9035 75.6312 46.9516 75.3898 47.9713C75.3188 48.2971 74.9637 48.552 74.708 48.8636C74.8927 49.0194 75.1057 49.2036 75.3188 49.4018C75.3188 49.4443 75.3472 49.5152 75.3188 49.5718C74.9921 50.7899 74.7648 52.0362 74.3103 53.1976C73.7848 54.5432 73.0605 55.8179 72.4497 57.135C72.3361 57.3758 72.535 57.7724 72.3929 57.9565C71.9242 58.6364 71.8106 59.7128 70.5891 59.6278C70.4045 59.6278 70.1914 59.9819 69.9074 60.2651C70.2625 60.3785 70.5181 60.4634 70.8022 60.5626C70.5607 61.4124 70.0494 61.4974 69.3392 61.0158C69.6091 62.4746 69.0978 63.0553 68.1604 63.9335C67.7201 64.3584 66.598 64.5425 66.8253 65.6331C66.8537 65.7889 66.4702 66.1571 66.2146 66.2421C65.4618 66.4545 65.4476 66.4262 65.3482 67.0352C63.8426 68.2533 62.4223 69.4289 60.9452 70.6186C60.3629 69.8396 59.8942 69.528 59.5391 70.6611C59.1982 71.7375 58.3318 72.2757 57.3234 72.6723C56.5422 72.9839 55.7895 73.3804 55.2639 73.6212C54.8662 73.1538 54.639 72.8847 54.4117 72.6156C54.3265 72.913 54.2981 73.2388 54.1419 73.5079C53.9572 73.8195 53.6732 74.0744 53.3465 74.4568C53.0909 73.8903 52.9204 73.5362 52.5653 72.7997C52.4375 73.8762 52.6079 74.9951 51.3155 74.726C51.1024 74.6835 50.9604 74.3577 50.7615 74.1594C50.3354 74.471 49.8525 74.9101 49.2844 75.1933C48.1766 75.7174 47.0971 75.9157 46.0461 74.9384C45.4354 74.3719 45.2223 74.5702 44.9667 75.3775C44.8956 75.6041 44.1429 75.8874 43.9298 75.7599C43.3901 75.4483 43.0776 75.3633 42.5805 75.8732C42.3817 76.0715 41.6999 75.8307 41.2596 75.7174C40.9898 75.6466 40.7483 75.3491 40.4927 75.3491C39.5979 75.335 38.7031 75.4908 37.8225 75.42C36.6436 75.3208 35.4506 75.1084 34.3143 74.8109C34.0586 74.7401 33.945 74.1028 33.7462 73.6779C32.9792 74.3719 31.9424 74.4568 30.9908 73.7912C30.2096 73.2388 29.5705 72.5023 28.8035 71.7941C27.4826 72.7148 26.389 71.5109 25.2527 70.8877C24.4431 70.4486 23.7756 69.7546 23.0654 69.1739C22.4547 68.664 21.8582 68.1258 21.2332 67.6159C20.7645 67.2335 20.1964 66.9786 19.8129 66.5254C19.2448 65.8738 18.8329 65.0807 18.2932 64.4009C17.9949 64.0326 17.4978 63.8202 17.1853 63.4661C16.5462 62.7296 15.9212 61.9648 15.3815 61.1433C14.8418 60.336 14.3589 59.4862 13.9612 58.608C13.0806 56.6535 12.2284 54.6848 11.4331 52.7019C11.2768 52.3195 11.362 51.8379 11.1916 51.4555C10.9643 50.8465 10.6661 50.2516 10.5383 49.6143C10.2968 48.4246 10.098 47.2065 10.7655 46.0451C10.8081 45.9601 10.4814 45.7194 10.4672 45.5494C10.3962 44.8554 9.8707 44.0481 10.8933 43.5524C10.9359 43.524 10.7939 42.8867 10.7229 42.8867C9.65766 42.8442 9.91331 42.1502 9.97013 41.5128C10.0838 40.309 10.0695 39.1051 10.2826 37.9153C10.5951 36.1874 10.9501 34.4453 11.5041 32.774C11.7881 31.8959 12.5409 31.1736 13.1942 30.2246H13.2368ZM61.5843 35.4226C62.82 38.057 63.9847 40.5639 65.1919 43.1275C65.7885 42.8442 66.1719 42.7167 66.4986 42.5043C66.9105 42.2635 67.6065 41.9661 67.6207 41.6828C67.6349 40.8897 67.6349 39.7991 67.152 39.3317C65.8453 38.0711 65.1209 36.5273 64.425 34.9552C64.1977 34.4453 64.1551 33.8505 64.0557 33.3972C63.8142 33.1565 63.516 32.9865 63.3881 32.7316C62.9336 31.8676 62.4933 30.9895 62.1525 30.083C61.7264 28.9216 60.789 27.9585 60.931 26.5847C60.9736 26.2164 60.8174 25.6499 60.5475 25.4374C59.4113 24.5876 58.0193 25.1683 57.6075 26.5705C57.4796 26.9812 57.1672 27.3353 56.9399 27.7319C56.8547 27.8877 56.7837 28.0576 56.7411 28.2276C56.599 28.7092 56.528 29.2049 56.3434 29.6723C56.2013 30.0405 55.8889 30.3521 55.7752 30.7204C55.4628 31.8393 55.2071 32.9865 54.9657 33.9779C54.5396 33.9496 54.2697 33.9213 53.9999 33.9354C53.9715 33.9354 53.9004 34.332 53.9714 34.4028C55.0367 35.3659 54.2555 35.8475 53.588 36.2157C53.5312 36.7115 53.5027 37.0655 53.4033 37.4055C53.3891 37.4763 52.9346 37.5188 52.8494 37.4338C52.6932 37.2497 52.6506 36.9664 52.6222 36.8956C51.8552 36.6831 51.145 36.4848 50.3923 36.2724C50.3923 36.2582 50.3354 36.4707 50.236 36.8814C49.4975 36.3857 48.8583 35.9042 48.1766 35.5076C47.8499 35.3235 47.3812 35.3659 47.0545 35.1677C46.2591 34.6861 44.8814 35.4651 44.6116 33.9354C43.8304 34.8277 43.1203 34.1479 42.5663 33.8505C41.4869 33.2698 40.8051 33.2556 40.095 34.2329C39.7115 34.7569 39.4842 35.4084 39.2428 35.9042C39.6689 36.3574 39.9956 36.7256 40.3648 37.108C40.2228 37.278 40.1376 37.3771 40.0524 37.4904C39.953 37.6038 39.8677 37.7312 39.7683 37.8445C40.5211 38.8218 42.893 38.6802 41.5721 40.833C43.9298 41.2296 43.2055 43.2266 43.802 44.5155C44.2139 44.8412 44.711 45.167 44.8388 45.6061C45.2365 46.9516 46.0461 48.0705 46.6142 49.3169C46.9125 49.9684 47.225 50.6057 47.438 51.0873C47.9919 51.1864 48.3754 51.3139 48.7589 51.2997C49.0146 51.2997 49.3696 51.1439 49.4833 50.9457C50.1508 49.8692 49.0146 48.8353 49.3412 47.7447C49.2702 47.7447 49.1708 47.7731 49.1282 47.7447C48.1482 46.8524 47.6226 45.7619 47.7789 44.388C47.2108 44.2039 46.8983 44.0339 46.9409 43.2125C46.9977 42.1502 46.5858 41.0596 46.3444 39.8132C45.9609 40.1957 45.7336 40.4223 45.4922 40.6489L44.1571 37.7879C45.0945 38.3686 45.7762 38.7935 46.5148 39.2609C46.8415 38.3969 47.4806 38.2553 48.3328 38.5527C50.0372 39.1476 51.77 39.6574 53.4601 40.309C54.5822 40.7339 55.9315 39.9974 56.1303 38.7793C56.244 38.0287 56.528 37.3063 56.7411 36.584C57.0251 35.6492 57.3376 34.7286 57.6217 33.7938C57.7353 33.4397 57.7637 33.0573 57.8631 32.5616C58.204 32.8874 58.3176 32.9865 58.5307 33.1848C58.4028 32.774 58.3318 32.5049 58.2466 32.2358L58.488 32.1367C58.6301 32.4058 58.7721 32.6749 58.8999 32.9157C59.1414 32.8732 59.4255 32.7316 59.6385 32.8024C60.4197 33.0998 61.0304 34.7852 60.5759 35.4509C60.2492 35.9325 60.3771 36.1449 60.8458 36.3149C61.2008 36.4424 61.5559 36.5415 62.0814 36.7256C61.8968 36.2016 61.7832 35.8758 61.6269 35.4368L61.5843 35.4226ZM35.2375 35.2526C34.641 35.8617 34.2575 36.5557 33.661 36.8531C30.9482 38.1986 28.207 39.445 25.4515 40.7055C24.9686 40.918 24.3721 40.8755 23.9034 41.1163C23.108 41.527 22.3553 42.0227 21.6025 42.5326C20.8071 43.0708 19.7845 43.4107 19.6709 44.6146C19.6567 44.7704 19.3868 44.8979 19.259 45.0537C19.1454 45.2095 18.9891 45.4219 19.0317 45.5636C19.2164 46.3142 19.4436 47.0366 19.6709 47.7731C19.8839 48.5096 20.1112 49.2602 20.3526 50.0817C20.6225 50.2375 21.2474 50.3791 21.4605 50.7615C22.1138 51.8946 22.7387 53.0702 23.1222 54.3024C23.5625 55.7045 23.8892 57.1209 24.7982 58.3389C25.4373 59.2029 25.9345 60.1943 26.5168 61.1574C26.9429 60.9592 27.3264 60.6617 27.7241 60.6192C28.5478 60.5484 28.562 60.2227 28.2922 59.5853C27.8377 58.4947 27.4826 57.3758 27.0423 56.2852C26.9429 56.0303 26.673 55.8462 26.5026 55.6054C26.3463 55.3788 26.0481 55.0247 26.1191 54.8831C26.602 53.8916 25.8492 53.4242 25.3947 52.7444C25.0823 52.2912 25.1249 51.5972 25.0113 51.0023C25.5226 50.9315 26.0481 50.8607 26.5168 50.7899C26.673 50.5632 26.9003 50.2516 27.1133 49.9401L27.3974 50.5491C27.5678 50.3933 27.7241 50.2658 27.8377 50.1242C28.0365 49.8692 28.1501 49.4868 28.4058 49.3452C29.1586 48.9203 29.9539 48.5804 30.7493 48.2263C31.7151 47.8155 32.6099 46.9657 33.5615 47.7022C33.874 47.2632 34.0729 46.7816 34.4279 46.5408C35.0245 46.1443 35.7346 45.9318 36.3738 45.5919C37.9787 44.7421 37.9361 44.7421 37.2259 43.085C36.7857 42.0511 36.1607 41.5553 35.0103 41.8244C34.9108 42.1502 34.8114 42.5043 34.7262 42.8017C34.0018 42.476 33.3627 42.1644 32.7094 41.8953C32.4111 41.7819 31.8288 41.7253 31.8288 41.6686C31.843 41.2013 31.8288 40.5072 32.0986 40.309C32.6099 39.9549 33.3059 39.8274 33.945 39.7283C34.5842 39.6291 35.3653 40.3231 35.8198 39.36C35.621 39.1901 35.4364 39.0343 35.2375 38.8643C36.2743 38.0145 37.8509 38.0711 38.348 36.9806C37.8083 36.3432 37.4106 35.8758 36.9845 35.3659L35.6636 35.975C35.5074 35.72 35.3795 35.4934 35.2233 35.2526H35.2375Z" fill="#6B503D"/>
<path d="M28.5636 45.1812C28.521 45.3936 28.4642 45.7335 28.3506 46.0735C28.2796 46.2717 28.1091 46.5833 27.9813 46.5833C27.7541 46.5833 27.4842 46.4417 27.2996 46.2859C26.9587 46.0026 26.6604 45.6627 26.3479 45.337C26.2485 45.8185 26.1633 46.3001 26.0071 47.0649C25.1975 47.3198 24.5868 48.722 23.2375 48.5945L22.0586 46.0876C22.5557 45.9885 23.0244 45.8893 23.4931 45.7902C23.4079 45.4361 23.2233 45.082 23.2517 44.7421C23.2943 44.0906 25.2543 43.3399 25.8366 43.694C26.0497 43.8215 26.3195 43.8356 26.3337 43.8356C26.419 43.4107 26.4758 42.9009 26.5326 42.9009C27.1291 42.9009 27.7541 42.8442 28.2938 43.0425C29.4158 43.4532 29.7993 43.2691 29.7567 42.1077C29.7425 41.5128 30.0834 41.3146 31.0918 41.3429C31.6741 43.1983 33.2365 43.2549 34.813 43.2549V43.5807C34.3443 43.6374 33.8614 43.6657 33.4069 43.779C33.0944 43.8498 32.7394 43.9489 32.5121 44.1614C31.8304 44.7421 31.2906 45.5636 30.1544 44.8979C29.8561 44.7279 29.2454 45.0679 28.592 45.2095L28.5636 45.1812Z" fill="#6B503D"/>
</g>
</g>
<defs>
<clipPath id="clip0_843_462">
<rect width="86" height="86" fill="white"/>
</clipPath>
</defs>
</svg>
