<svg width="44" height="45" viewBox="0 0 44 45" fill="none" xmlns="http://www.w3.org/2000/svg">
<path d="M38.0782 43.8244C33.8408 44.7358 25.2072 45.8552 20.9202 38.2077C18.6675 34.1858 19.0644 30.679 19.3522 28.1233C19.6202 25.6864 19.5308 25.518 18.9354 24.9137C18.4194 24.3887 18.0621 24.2995 15.5515 24.5769C12.9316 24.8642 8.96214 25.3099 5.18122 22.4372C-1.44779 17.4148 -0.0783193 8.82617 0.586566 4.69533L0.715574 3.88303C1.08275 1.3966 3.41481 -0.317159 5.90565 0.0493671C8.40641 0.425799 10.1232 2.74383 9.75603 5.23026L9.6171 6.13171C9.02168 9.8366 8.62473 13.591 10.7186 15.1859C11.5125 15.7902 12.356 15.7604 14.5392 15.5128C17.3873 15.1958 21.6942 14.7203 25.4453 18.5044C29.2064 22.3084 28.74 26.4194 28.4423 29.1436C28.214 31.214 28.1247 32.3532 28.9087 33.7598C29.9308 35.5826 32.3621 35.8797 37.3041 34.6514L38.2072 34.4434C40.6782 33.9084 43.1095 35.4736 43.6354 37.9402C44.1713 40.4068 42.6034 42.8338 40.1324 43.3589L39.4377 43.5173C39.0606 43.6065 38.6041 43.7155 38.0782 43.8343V43.8244Z" fill="#6B503E"/>
</svg>
