<svg width="97" height="97" viewBox="0 0 97 97" fill="none" xmlns="http://www.w3.org/2000/svg">
<g clip-path="url(#clip0_843_468)">
<g opacity="0.1">
<path d="M92.5908 30.5008L93.2139 30.2139C94.5241 32.0943 94.4921 34.2457 94.3164 36.4607C94.7637 36.4607 95.0993 36.4926 95.5626 36.5085C95.2271 37.369 96.3295 38.3889 95.1632 39.2494C95.4028 39.1219 95.6425 38.9785 95.9461 38.8032C96.3775 39.7912 95.1312 41.098 96.8888 41.7991C96.2656 42.0222 96.026 42.1178 95.6904 42.2294C95.978 42.7393 96.3295 43.2333 96.5213 43.7911C96.6331 44.0939 96.4733 44.4922 96.4094 44.8428C96.3295 45.3368 95.5626 45.8627 96.5852 46.2611C96.7769 46.3408 96.8089 46.8188 96.9207 47.1216C96.2816 46.9782 95.8342 46.8826 95.3869 46.787C95.5307 47.265 95.6745 47.7272 95.8183 48.2052C95.8183 48.2052 96.0899 48.0778 96.1538 48.1256C96.4414 48.3487 96.8568 48.5718 96.9207 48.8427C97.0326 49.4163 96.9207 50.0219 96.9207 50.739C96.697 50.739 96.4733 50.7549 96.4574 50.7549C96.1059 51.5677 95.7863 52.2848 95.4668 53.0178C95.8183 52.97 96.1698 52.9222 96.681 52.8584C96.3615 54.3245 97.0006 55.934 95.3709 56.7786C96.5852 58.6271 95.1632 60.2366 95.0513 61.9258C93.5814 62.1967 93.5654 62.3242 94.0927 63.5353C94.2365 63.854 94.0607 64.4277 93.837 64.7305C93.6133 65.0651 93.134 65.2245 92.6707 65.5272C93.0062 65.6388 93.2618 65.7185 93.7731 65.8778C93.134 67.1367 92.4949 68.3319 91.8878 69.5749C91.5203 70.3398 91.2646 71.1844 90.8492 71.9333C90.6575 72.2839 90.2101 72.4911 89.8746 72.762C89.7947 72.6823 89.7148 72.5867 89.6349 72.507C89.3953 73.3835 89.3314 74.3715 88.884 75.1205C88.4526 75.8376 87.6217 76.3316 86.727 77.1284C87.1904 76.8734 87.3981 76.7778 87.7176 76.6025C87.0146 77.5746 86.4554 78.5466 85.7044 79.3115C85.4168 79.5984 84.6499 79.439 84.1067 79.4709L84.6339 80.6023C83.5634 81.6222 82.5089 82.6102 81.4704 83.5823C81.4544 83.5504 81.4384 83.5026 81.4224 83.4707L80.8313 84.4428C80.4318 84.1719 80.0324 83.901 79.5371 83.5663C79.2974 84.1081 78.8181 84.6978 78.8341 85.2555C78.898 86.7535 78.179 86.7535 77.1404 86.2913C76.9487 86.865 76.9008 87.4387 76.5972 87.8052C76.4055 88.0283 75.8303 87.9168 75.2391 87.9805C75.1113 88.6498 74.7598 89.3669 73.6733 88.5223C72.6667 90.5461 69.2795 92.2831 66.3396 93.4145C66.3715 92.8887 66.4035 92.4425 66.4195 92.0122C66.3556 91.9644 66.2917 91.9007 66.2277 91.8529C65.8603 92.3947 65.5247 92.9524 65.1413 93.4942C64.9815 93.7173 64.6939 94.0998 64.5341 94.0679C63.0802 93.7811 62.0736 94.8009 60.8433 95.1993C59.9645 95.4862 58.9579 95.4065 57.7916 95.518C57.6797 95.3268 57.4241 94.8806 57.1045 94.3069C56.1938 94.9603 55.5387 96.283 54.1167 95.4702C54.0848 95.8846 54.0688 96.2033 54.0209 96.7132C53.1101 96.5539 52.2473 96.3626 51.3686 96.2511C51.049 96.2033 50.7135 96.3467 50.3939 96.3786C50.0424 96.4104 49.6749 96.3786 49.1157 96.3945C48.8761 96.8088 48.5086 97.3984 47.6298 96.522C47.3742 96.267 46.5753 96.4264 46.064 96.5379C44.658 96.8407 43.3478 96.7451 42.2294 95.773C41.3027 94.9603 40.1843 95.3268 39.1777 95.279C38.1391 95.2312 37.0686 94.4982 36.0301 95.279C35.9821 95.3109 35.8384 95.279 35.8064 95.2312C35.1673 94.4982 34.5282 93.7492 33.8731 92.9843C33.25 93.048 32.4032 93.1277 31.4126 93.2233C31.093 93.797 30.8853 93.7651 28.0892 92.3469C28.3449 92.0441 28.5845 91.7572 28.9201 91.3748C28.0413 91.311 27.2744 91.1676 26.5234 91.1995C25.2292 91.2632 25.1174 91.1836 25.3251 89.9725C25.373 89.7334 25.2931 89.4785 25.2452 89.0801C24.654 89.4785 24.2067 89.7972 23.7912 90.0681C23.5356 89.8609 23.3598 89.6697 23.1521 89.5422C22.1935 88.9526 21.091 88.5382 20.3081 87.7893C19.3814 86.8809 19.653 86.4029 21.2029 85.7814C21.0111 85.638 20.8034 85.4308 20.7555 85.4627C19.7809 86.0682 18.9181 85.4945 18.0393 85.2236C17.8795 85.1758 17.7357 85.0643 17.576 84.9687C17.1286 84.6978 16.6812 84.4269 16.2338 84.14C16.122 84.2356 16.0261 84.3153 15.9143 84.4109C15.8983 84.1241 15.9622 83.8054 15.8344 83.5823C15.6427 83.2317 15.3231 82.9448 15.0515 82.6261C14.4284 83.152 13.8851 82.7218 13.7254 82.2596C13.5176 81.67 12.8785 80.9529 13.7094 80.2995C13.8052 80.2199 13.8532 80.0605 13.7573 79.7577C13.3259 80.0127 12.8945 80.2836 12.4152 80.5545C11.4885 79.5665 9.97062 78.9769 10.0505 77.2399C9.29956 77.1921 8.29297 75.9013 8.00537 74.8974C7.58996 73.4632 6.67923 72.2839 5.8484 71.0569C4.96963 69.782 4.31455 68.3797 3.57958 67.0252C3.53165 66.9455 3.7074 66.7065 3.81924 66.579C4.01097 66.3718 4.23466 66.1806 4.58617 65.8619C2.17355 65.4635 2.84461 64.7783 3.97902 63.1528C3.54762 62.9775 3.0683 62.7863 2.3493 62.4835C3.00439 61.9417 3.35589 61.639 3.7074 61.3521C3.67545 61.2884 3.64349 61.2406 3.61153 61.1768C3.22807 61.3202 2.84461 61.4637 2.10964 61.7505C3.03634 60.1251 0.927298 59.7745 1.13501 58.2128C1.26283 57.2407 1.94986 56.9061 2.30137 55.8384C1.58238 56.1252 1.08707 56.3165 0.591769 56.5236C0.479926 55.6312 0.352105 54.5157 0.224284 53.3524C0.495903 53.1931 0.767522 53.0337 1.10305 52.8425C-0.47873 52.3326 -0.191134 51.4561 0.607746 50.484C-0.271022 48.8108 0.0325529 47.1694 0.368082 45.3528C0.559814 44.2691 0.240262 43.1377 1.24685 42.2772C1.34272 42.1975 1.26283 41.7832 1.15098 41.592C0.000597659 39.5522 1.35869 37.7196 1.64629 35.8233C1.75813 35.0902 2.26942 34.405 2.31735 33.6879C2.39724 32.6521 2.9245 32.0784 3.96304 31.7278C3.64349 31.4729 3.4198 31.2976 2.98841 30.9311C3.80327 29.8315 4.6341 28.7319 5.43298 27.6643C5.43298 27.1702 5.43298 26.5488 5.417 25.9432C5.54482 25.9273 5.68862 25.9113 5.81644 25.8795C6.07208 26.1663 6.32773 26.4531 6.69521 26.8675C6.87097 26.5328 7.01476 26.2779 7.14258 26.0229C6.93488 25.9113 6.72717 25.8157 6.53544 25.6882C6.35968 25.5767 6.12002 25.4492 6.08806 25.2898C5.96024 24.6046 7.28638 23.0907 7.76571 22.8676C8.72437 21.3219 9.58716 19.6965 10.6736 18.2304C11.4086 17.2424 12.4471 16.5093 13.5496 15.4735C13.5336 15.4735 13.3099 15.4576 13.0703 15.4257C13.9011 15.1229 13.949 13.1629 15.6107 14.1987C15.7545 13.5931 15.7705 12.9716 16.0581 12.4936C16.2179 12.2386 16.825 12.143 17.2244 12.1589C17.8795 12.1908 18.1352 11.9836 18.0393 11.3462C17.8795 10.3901 18.6624 10.3582 19.2376 10.1192C19.5252 9.99167 19.9087 9.91199 20.0685 9.68889C20.5478 9.00366 22.1136 8.63715 22.7687 9.14708C22.8486 9.21083 22.8486 9.35425 22.8805 9.4658C22.9604 9.32238 23.1042 9.17896 23.1202 9.0196C23.1202 8.92399 22.9924 8.73276 22.8805 8.68495C22.2574 8.42998 22.0976 7.80849 22.6728 7.47385C23.7753 6.85236 24.9416 6.34242 26.092 5.86435C26.3157 5.76874 26.6512 5.99183 26.9388 6.07151C26.7471 4.65324 29.1278 3.74492 31.796 4.22298C31.6203 3.69711 31.7481 3.50588 32.531 3.36246C33.25 3.21904 33.985 3.13936 34.7679 3.01188C34.7359 2.90033 34.6241 2.54975 34.5122 2.18323C36.8449 1.65735 39.0978 1.13148 41.3826 0.68528C41.7181 0.621537 42.1815 0.908378 42.517 1.11554C42.9803 1.40238 43.2679 1.5458 43.8431 1.11554C44.674 0.509988 45.6646 -0.50989 46.815 0.844636C46.9268 0.988056 47.7097 0.860571 47.8535 0.653409C48.4607 -0.238985 49.3874 -0.079629 49.9146 0.302825C51.0171 1.11554 51.9917 0.621537 53.0782 0.541859C54.3085 0.446246 55.6186 0.653409 56.8329 0.972121C57.6957 1.19522 58.4626 1.80077 59.1017 2.13542C59.1017 2.18323 59.0218 1.88045 58.8621 1.40238C59.4053 1.46612 59.8207 1.52987 60.5397 1.60954C60.0444 2.00793 59.7888 2.2151 59.5012 2.4382C59.8367 2.86846 60.1403 3.23498 60.332 3.47401C62.1694 3.41027 64.1187 1.7689 65.1732 3.95208C66.1479 3.98395 67.0426 3.72898 67.4261 4.07956C68.1451 4.71699 69.583 4.3186 69.7428 5.68906C69.7428 5.72093 70.0783 5.76874 70.2221 5.73687C71.2926 5.4819 71.6601 5.84841 71.4524 6.9161C71.4045 7.20294 71.4045 7.50572 71.3566 8.04753C71.9797 7.76069 72.3472 7.50572 72.7626 7.4101C73.4816 7.25075 74.2485 7.3623 74.2325 8.27063C74.2165 9.5136 75.1432 9.29051 75.6865 9.17896C76.4854 9.00366 76.6931 9.27457 77.0925 9.88012C77.6357 10.6928 78.5305 11.2665 79.2655 11.9517C79.4892 12.1589 79.6489 12.4458 79.9046 12.621C80.2561 12.8441 80.6395 13.0991 81.039 13.1469C81.6461 13.2266 83.2599 14.8042 83.148 15.3779C83.0522 15.8241 82.9403 16.2544 82.7486 17.0033C83.4995 16.7484 83.9948 16.5731 84.554 16.3818C85.321 17.1946 85.2411 17.9913 83.7711 18.7084C84.3144 18.9156 84.7138 19.2024 84.8736 19.1068C85.2251 18.8837 85.4488 18.4853 85.8163 18.0391C85.8962 18.087 86.1997 18.1666 86.3116 18.3579C86.9826 19.4893 87.6058 20.6526 88.2449 21.8C88.4366 22.1346 88.6283 22.5011 88.9 22.772C89.4911 23.3457 90.0823 23.8716 90.1462 24.7799C90.2261 25.736 91.1528 26.1982 91.5682 26.8993C92.1594 27.9192 92.2073 29.2259 92.4949 30.4849L92.5908 30.5008ZM83.0362 73.6385C82.8125 73.001 82.3491 72.2999 82.5249 72.0449C83.196 71.0728 84.0747 70.2442 84.8576 69.3358C85.1932 68.9534 85.7683 68.1885 85.7044 68.1247C84.57 66.9774 85.7364 66.6587 86.3595 66.1647C85.9761 65.2723 86.8548 63.6628 87.8135 63.4237C88.0372 63.3759 88.2289 63.1847 88.4366 63.0732C88.1969 62.9297 87.9733 62.7863 87.7336 62.6748C87.6377 62.627 87.5099 62.7066 87.3661 62.7226C87.462 61.5911 88.5325 60.9697 88.4845 59.8701C88.4526 59.2964 88.4845 58.6909 88.6283 58.1331C88.9319 57.0814 90.0344 56.2368 89.3154 54.9301C89.2035 54.7388 89.4112 54.2926 89.587 54.0536C90.5776 52.6194 90.2261 51.0418 90.1143 49.4801C90.0184 48.2849 90.1143 47.0897 90.1143 45.8946C90.1143 45.305 90.3539 44.3966 90.0823 44.1895C89.0438 43.4246 89.6669 42.6756 89.6349 41.9904C89.3633 41.2095 89.1077 40.4127 88.7881 39.4885C89.4272 39.4885 89.8267 39.4885 90.2261 39.4885C88.1171 38.9307 88.1969 37.13 87.8614 35.5205C88.1969 35.4249 88.5165 35.3452 88.884 35.2337C88.2609 33.911 87.6697 32.6521 87.0785 31.3613C84.57 30.6761 85.2411 28.3973 84.8736 26.5966C84.0907 26.5328 83.3398 26.5647 83.164 25.3695C83.0681 24.6843 81.9497 24.2062 82.7646 23.2979C82.5409 23.2023 82.445 23.1067 82.3332 23.1067C80.7993 23.0748 79.9685 22.294 79.7288 20.796C79.6969 20.6207 79.4252 20.4614 79.2335 20.3339C78.5624 19.8877 77.8754 19.4415 77.1724 18.9793C77.5399 18.6288 77.7636 18.4216 77.9873 18.1985C76.9327 19.0909 76.4694 18.1985 75.9581 17.577C76.1658 17.3699 76.4055 17.1627 76.6292 16.9396C76.6292 16.8121 76.6132 16.6846 76.5972 16.5571C75.3829 17.6089 74.7278 16.7165 74.0568 16.0791C73.6893 15.7444 73.4816 14.9795 73.1141 14.9158C71.5962 14.6608 70.7015 13.7843 70.1103 12.4298C69.0718 13.0991 68.193 12.5254 67.8734 11.8083C67.6178 11.2506 68.1291 10.3582 68.3528 9.37018C67.8255 9.84825 67.474 10.167 67.2184 10.406C66.755 10.1351 66.4195 9.78451 66.036 9.7367C65.317 9.64109 64.5661 9.65702 63.8471 9.7367C62.2813 9.94386 61.4345 9.49767 60.8752 8.09533C60.7634 7.82443 60.5397 7.61727 60.3001 7.28262C59.8527 8.78057 58.6703 8.82837 56.6252 7.5854C56.753 7.28262 56.8968 6.99578 57.0246 6.693C57.0087 6.58145 56.9767 6.4699 56.9607 6.35835C55.0754 7.79256 53.238 8.41405 51.5923 6.43803C50.0744 7.8563 48.237 6.96391 46.4954 7.26668C46.6232 6.96391 46.7031 6.74081 46.767 6.58145C46.4475 6.4699 46.1119 6.34242 45.7764 6.26274C45.5368 6.199 45.2811 6.21493 45.0255 6.199C45.1373 6.43803 45.2172 6.72487 45.4089 6.90016C45.5048 6.97984 45.7924 6.85236 45.9841 6.80455C45.9362 6.93204 45.8883 7.07546 45.8403 7.20294C44.3384 7.53759 42.8525 7.80849 41.5743 6.27868C40.7435 7.66507 39.5452 7.31449 38.3468 6.99578C38.1551 6.94797 37.9314 7.09139 37.484 7.18701C37.9634 7.61727 38.2829 7.90411 38.6824 8.25469C38.3309 8.38218 38.0752 8.50966 37.8196 8.5734C36.2538 9.00366 34.64 9.16302 33.1701 9.99167C31.6203 10.8681 29.7988 11.3303 28.3608 12.3501C27.0666 13.2585 26.2198 12.9238 25.1493 12.0633C25.0854 12.5095 25.0215 12.8441 24.9896 13.0354C25.357 13.0991 25.6446 13.1469 25.9163 13.1788C25.7725 13.4975 25.7405 13.9437 25.4849 14.1031C24.0149 15.107 22.4491 15.9675 21.0271 17.0352C20.2602 17.6089 19.7329 18.5172 19.0778 19.2503C18.6465 19.7443 18.1511 20.1905 17.7517 20.7004C17.2724 21.3059 16.857 21.9752 16.2498 20.8757C15.5628 21.3219 14.9556 21.7043 14.3485 22.0868C14.4124 22.1505 14.4603 22.2143 14.5242 22.2621C15.0675 22.2302 15.6107 22.1983 16.1539 22.1665C16.2019 22.3577 16.2658 22.5489 16.3137 22.7402C15.419 23.3457 14.5402 23.9513 13.5496 24.6206C13.6934 24.764 13.9331 25.003 14.1567 25.242C14.0289 25.4492 13.8052 25.9113 13.7573 25.8954C12.7347 25.4811 12.9425 26.3097 12.9744 26.74C13.0223 27.6164 12.6389 27.9192 11.808 27.9989C11.4885 28.0308 11.105 28.2539 10.9293 28.5088C10.7375 28.7957 10.7535 29.21 10.6577 29.6881C10.7855 29.8793 11.0251 30.2299 11.2648 30.5805C10.5778 30.9789 10.0186 31.3135 9.28358 31.7278C9.76291 32.0306 10.0505 32.2218 10.5298 32.5246C10.0665 32.8911 9.68302 33.1939 9.2676 33.5126C9.36347 33.672 9.47531 33.8632 9.74693 34.3253C9.04392 34.2457 8.56459 34.1978 8.14917 34.15C7.9894 35.0584 7.82962 35.9667 7.66985 36.8432L8.93208 36.2535C8.82023 36.6041 8.7723 36.7954 8.69241 36.9706C8.30895 37.879 7.73376 38.7395 7.58996 39.6797C7.38225 41.0023 7.49409 42.3887 7.46214 43.5202C6.90292 43.823 6.58337 43.9982 6.26382 44.1895C6.45555 44.4285 6.69521 44.6516 6.82303 44.9066C6.9189 45.0978 6.9189 45.3846 6.87097 45.5918C6.7751 45.9743 6.37566 46.5001 6.50348 46.7073C7.0627 47.5997 6.19991 48.0459 6.00817 48.6674C7.65387 49.6713 7.46214 50.7709 5.25723 52.0776C5.9922 52.7947 6.67923 53.4481 7.36627 54.1014C7.25443 54.1014 7.12661 54.1014 7.01476 54.1014C7.03074 54.6114 6.88694 55.5037 7.09465 55.5834C8.30895 56.0934 7.87755 56.8742 7.60593 57.6551C7.43018 58.1331 7.22247 58.6112 6.95085 59.2964C7.82429 58.8184 8.39416 59.0999 8.66046 60.141C8.29297 60.6031 8.02135 60.9378 7.74973 61.2565C8.94805 61.2565 9.42738 61.6549 9.44336 62.627C9.44336 62.9616 9.37945 63.5034 9.57118 63.615C10.7216 64.3321 9.9866 66.0053 11.1849 66.6427C11.2488 66.6746 11.3127 66.9136 11.2648 66.9614C10.3381 68.1088 11.7282 69.0968 12.0158 69.2084C13.2141 69.6386 13.2141 70.3398 13.0064 70.9613C13.6295 71.3597 14.1088 71.6784 14.6201 72.013C14.3485 72.3317 14.2047 72.523 13.997 72.7779C14.716 72.8895 15.7705 72.5389 15.1474 73.8456C15.0834 73.9731 15.3071 74.3078 15.4829 74.4352C16.2818 74.993 17.1126 75.5189 18.1991 76.22C17.4481 76.5069 17.0966 76.6503 16.7771 76.7778C16.7771 77.1124 16.7291 77.4471 16.7771 77.7498C16.809 77.8933 16.9848 78.0686 17.1446 78.1323C17.2404 78.1801 17.4481 78.0845 17.528 78.0048C17.8316 77.6702 18.1192 77.2877 18.3748 76.9849C20.2921 78.6263 22.0816 80.1721 23.935 81.7497C23.6794 81.9887 23.4397 82.2278 23.2001 82.4509C23.2959 82.5943 23.3279 82.7058 23.3758 82.7058C25.0854 82.8333 26.827 82.897 27.4182 85.0165C27.4501 85.128 27.7217 85.7495 28.249 85.128C28.7283 84.5703 29.4793 84.8731 29.9746 85.4467C30.1503 85.6539 30.2941 85.9726 30.5018 86.0523C32.3073 86.6419 34.1447 87.1678 35.9502 87.7574C37.4042 88.2195 38.8262 88.7613 40.2801 89.2394C40.4559 89.3032 40.6636 89.1916 40.8553 89.2075C41.4305 89.2553 42.0377 89.2075 42.5489 89.4147C43.3798 89.7653 44.1467 90.2752 44.9456 90.7214C44.9456 90.3071 44.9136 89.9247 44.9136 89.59C46.048 89.59 47.1665 89.5581 48.2689 89.6219C48.5565 89.6219 48.924 89.845 49.0838 90.084C49.8187 91.1676 50.5857 91.2154 51.4964 90.2434C51.7041 90.0203 52.1675 89.829 52.4551 89.8928C53.222 90.0681 53.957 90.3708 54.7079 90.6258C54.8038 90.5143 54.8836 90.4186 54.9795 90.3071C54.7398 89.9565 54.5002 89.6059 54.0209 88.9366C55.1073 89.2394 55.8743 89.4466 56.753 89.6856C56.8489 89.5103 57.0406 89.1757 57.2483 88.8092C57.6478 89.3032 58.0153 89.7494 58.4946 90.339C58.7183 89.7653 58.894 89.4466 58.9739 89.1119C59.2136 88.1558 59.9805 87.8849 60.7314 88.1239C61.4025 88.3311 61.9617 87.9646 62.1535 87.7415C63.2559 86.4348 64.4702 86.5622 65.5727 87.12C66.052 86.5782 66.4354 86.0682 66.8988 85.6858C67.3622 85.3193 67.9693 85.128 68.4486 84.7615C70.1902 83.4389 71.8998 82.1003 73.897 81.9568C74.0408 81.415 74.0088 80.937 74.2485 80.6979C74.7278 80.188 75.351 79.7896 76.1978 79.1203C75.9421 79.6781 75.8303 79.9012 75.5906 80.4589L77.2363 79.694C77.1564 79.0725 77.1884 78.4669 77.5239 78.1642C78.5944 77.1443 79.8886 76.5547 81.5023 76.6822C81.1988 76.2838 80.9271 75.9173 80.6715 75.5985C80.304 75.6942 79.9845 75.7898 79.5371 75.9013C80.1123 75.1205 80.6236 74.499 81.039 73.8297C81.5662 73.001 81.8858 73.4313 82.1574 73.9572L83.0681 73.5429L83.0362 73.6385Z" fill="#5E4260"/>
<path d="M14.9242 34.1021C14.5567 34.1021 14.349 34.1021 14.1253 34.1021C14.1253 34.0384 14.1094 33.9587 14.0934 33.895C14.365 33.8472 14.7165 33.895 14.9082 33.7356C15.1799 33.5125 15.5473 33.0663 15.4834 32.8592C14.9562 31.425 15.5314 30.3413 17.1132 30.1501C16.8575 29.3374 16.8895 28.8593 17.8162 28.2219C18.7908 27.5526 19.1263 25.975 19.7974 24.8276C20.0371 24.4133 20.4525 24.1105 20.9318 23.6165C21.1235 24.2221 21.2194 24.5567 21.3153 24.8914C21.4271 24.8595 21.523 24.8276 21.6348 24.7957C21.523 24.5089 21.3792 24.2221 21.3312 23.9352C21.2833 23.6803 21.2354 23.3297 21.3632 23.1544C21.9064 22.4851 22.4656 21.8158 23.1207 21.274C23.5521 20.9075 24.1593 20.764 24.6865 20.5091C24.7664 20.6206 24.8463 20.7481 24.9262 20.8597C25.102 20.4613 25.2458 20.0469 25.4694 19.6804C25.6931 19.298 25.9967 18.6924 26.2843 18.6765C27.3548 18.6127 28.0099 17.8797 28.8727 17.4654C29.368 17.2263 30.087 17.4494 30.6302 17.4654C30.9657 17.1467 31.3811 16.7005 31.8445 16.3021C32.5315 15.7125 33.2505 15.1388 33.9855 14.597C34.337 14.342 34.8163 13.9914 35.1519 14.0552C36.6697 14.3579 37.5485 13.4177 38.651 12.7006C39.2262 12.3341 40.2327 11.6967 41.1594 12.4616C41.3032 12.5731 41.6867 12.4616 41.9264 12.366C42.6773 12.1269 43.4123 11.7604 44.1952 11.617C44.8503 11.5055 45.5373 11.6329 46.1764 11.6648C47.0232 11.5214 47.886 11.2505 48.7328 11.2505C50.2187 11.2505 51.7047 11.4417 53.2065 11.5692C53.4622 11.5851 53.7977 11.6648 53.9415 11.8401C54.5167 12.5413 55.2197 12.4297 55.9867 12.3182C56.3701 12.2704 56.7855 12.5253 57.2009 12.621C57.7122 12.7166 58.2395 12.7166 58.7348 12.8759C59.3419 13.0831 59.9012 13.4496 60.5083 13.6568C60.9876 13.8161 61.2593 14.9954 62.0741 13.9436C62.2179 13.7683 63.3044 14.3261 64.0074 14.5651C63.8157 14.9157 63.6399 15.2185 63.5441 15.4097C64.1192 15.6328 64.6785 15.8399 65.3975 16.0949C67.5225 14.597 66.8514 17.816 68.0657 18.0231C68.8646 17.067 69.2321 17.1945 69.983 18.6605C70.75 18.5809 71.4689 18.5809 71.3891 19.6804C72.5874 19.8557 73.4981 20.3497 73.7058 21.7042C73.7378 21.9273 74.0733 22.1186 74.297 22.2779C74.7763 22.6126 75.3675 22.8357 75.7829 23.25C76.4859 23.9193 77.141 24.6683 77.7002 25.4491C78.0837 25.975 78.2754 26.6283 78.547 27.202C78.9784 27.7598 79.4577 28.3016 79.8572 28.8912C80.5921 30.0067 81.3271 31.1381 81.9822 32.3014C82.2219 32.7157 82.2219 33.2735 82.3177 33.7675C82.3337 33.879 82.2858 34.0384 82.3497 34.1021C84.299 36.2375 84.4747 38.9784 84.986 41.6237C85.1458 42.4683 85.4813 43.1695 84.7623 43.9025C84.6345 44.03 84.7303 44.6356 84.9061 44.779C86.1683 45.8148 85.673 47.0737 85.4334 48.3167C85.4014 48.5239 85.4973 48.7629 85.5292 48.986C85.5931 49.4959 85.7529 50.0218 85.689 50.5317C85.5612 51.711 85.3695 52.8902 85.0978 54.0535C85.0179 54.42 84.6185 54.7069 84.3309 55.0734C84.5386 55.2487 84.7783 55.4558 85.0179 55.6789C85.0179 55.7267 85.0499 55.8064 85.0179 55.8702C84.6505 57.2406 84.3948 58.643 83.8835 59.9656C83.2924 61.4795 82.4615 62.9137 81.7905 64.3957C81.6627 64.6666 81.8863 65.1128 81.7266 65.3359C81.1993 66.1008 81.0715 67.3119 79.6974 67.2163C79.4897 67.2163 79.25 67.6147 78.9305 67.9334C79.3299 68.0609 79.6175 68.1565 79.9371 68.2681C79.6655 69.2242 79.0903 69.3198 78.2914 68.778C78.595 70.4194 78.0198 71.0727 76.9493 72.0767C76.454 72.5547 75.1757 72.7619 75.4474 74.0049C75.4793 74.1802 75.0319 74.6104 74.7603 74.6901C73.9135 74.9291 73.8975 74.8973 73.7857 75.5825C72.0921 76.953 70.4783 78.2756 68.8167 79.6301C68.1616 78.7537 67.6343 78.3872 67.2349 79.678C66.8514 80.8891 65.8768 81.4946 64.7424 81.9408C63.8636 82.2914 63.0168 82.7376 62.4256 83.0085C61.9782 82.4826 61.7226 82.1798 61.467 81.8771C61.3711 82.2117 61.3391 82.5782 61.1634 82.881C60.9557 83.2316 60.6361 83.5184 60.2527 83.9646L59.3739 82.1002C59.2301 83.3113 59.4218 84.5702 57.9519 84.2674C57.7122 84.2196 57.5525 83.8531 57.3288 83.63C56.8494 83.9806 56.3062 84.4905 55.6671 84.7933C54.4208 85.3988 53.1906 85.606 52.0082 84.4905C51.3212 83.8531 51.0815 84.0762 50.7939 85.0005C50.714 85.2554 49.8672 85.5741 49.6276 85.4307C49.0044 85.0642 48.6689 84.9845 48.1097 85.5582C47.886 85.7813 47.1191 85.5104 46.6078 85.3829C46.3042 85.3032 46.0326 84.9686 45.745 84.9686C44.7384 84.9526 43.7318 85.1279 42.7412 85.0483C41.4151 84.9367 40.073 84.6977 38.7788 84.363C38.4912 84.2833 38.3634 83.5662 38.1397 83.0882C37.2769 83.869 36.1105 83.9646 35.024 83.2157C34.1453 82.5942 33.4103 81.7655 32.5475 80.9687C31.0616 82.0046 29.8313 80.65 28.5371 79.9489C27.6264 79.4549 26.8755 78.674 26.0766 78.0047C25.3736 77.431 24.7185 76.8255 24.0155 76.2518C23.4882 75.8215 22.8331 75.5188 22.4017 75.0248C21.7626 74.2917 21.2993 73.3834 20.6762 72.6185C20.3406 72.2042 19.7814 71.9651 19.4139 71.5508C18.6949 70.7222 17.9919 69.8616 17.3848 68.9374C16.7776 68.029 16.2344 67.0729 15.787 66.069C14.7804 63.8698 13.8377 61.6389 12.927 59.4079C12.7513 58.9776 12.8471 58.4199 12.6554 58.0055C12.3998 57.3203 12.0642 56.651 11.9204 55.9339C11.6328 54.5794 11.4091 53.2249 12.1761 51.9181C12.224 51.8225 11.8565 51.5516 11.8405 51.3604C11.7607 50.5796 11.1695 49.6553 12.3199 49.0975C12.3678 49.0657 12.208 48.3486 12.1281 48.3486C10.9298 48.3008 11.2174 47.5199 11.2813 46.8028C11.4092 45.4483 11.3932 44.0778 11.6328 42.7552C11.9843 40.7951 12.3838 38.835 13.0069 36.9546C13.3265 35.9666 14.1733 35.1539 14.9082 34.0862L14.9242 34.1021ZM69.4558 39.9505C70.8458 42.9145 72.172 45.7511 73.5301 48.6354C74.2171 48.3167 74.6325 48.1573 75 47.9342C75.4633 47.6633 76.2462 47.3287 76.2622 46.994C76.2782 46.1016 76.2782 44.8746 75.735 44.3487C74.265 42.9305 73.4502 41.1935 72.6513 39.4087C72.3956 38.835 72.3477 38.1657 72.2359 37.6558C71.9642 37.3849 71.6287 37.1936 71.4849 36.9068C70.9736 35.9347 70.4624 34.9467 70.0949 33.9269C69.6155 32.6201 68.545 31.5206 68.7048 29.9748C68.7528 29.5605 68.577 28.9231 68.2734 28.684C66.9792 27.7279 65.4294 28.3813 64.9501 29.9589C64.8063 30.421 64.4388 30.8194 64.1991 31.2656C64.1033 31.4409 64.0234 31.6321 63.9755 31.8233C63.8157 32.3652 63.7358 32.9229 63.5281 33.4488C63.3683 33.8631 63.0168 34.2137 62.889 34.628C62.5215 35.9029 62.2499 37.1936 61.9623 38.3091C61.4829 38.2773 61.1794 38.2454 60.8598 38.2613C60.8279 38.2613 60.748 38.7075 60.8279 38.7872C62.0262 39.8708 61.1474 40.4126 60.3965 40.827C60.3326 41.3847 60.3006 41.7831 60.1888 42.1656C60.1728 42.2452 59.6455 42.293 59.5656 42.1974C59.3899 41.9903 59.3419 41.6716 59.31 41.5919C58.4472 41.3528 57.6483 41.1297 56.8015 40.8907C56.8015 40.8748 56.7376 41.1138 56.6258 41.5759C55.7949 41.0182 55.0759 40.4764 54.309 40.0302C53.9415 39.823 53.4143 39.8708 53.0468 39.6477C52.152 39.1059 50.6022 39.9824 50.2826 38.2613C49.3879 39.2653 48.605 38.5004 47.9819 38.1657C46.7676 37.5124 46.0007 37.4964 45.2018 38.6119C44.7704 39.2175 44.5147 39.9346 44.2431 40.4923C44.7224 41.0023 45.1059 41.4166 45.5053 41.8468C45.3456 42.0381 45.2497 42.1496 45.1538 42.2771C45.042 42.4046 44.9461 42.548 44.8343 42.6755C45.6811 43.791 48.3494 43.6157 46.8634 46.0538C49.5317 46.5 48.7009 48.747 49.3719 50.213C49.8353 50.5796 50.3945 50.9461 50.5383 51.4401C50.9857 52.954 51.8964 54.2288 52.5355 55.6311C52.871 56.3642 53.2225 57.0972 53.4622 57.6231C54.0853 57.7346 54.5167 57.8781 54.9481 57.8621C55.2357 57.8621 55.6351 57.6868 55.763 57.4637C56.5139 56.2367 55.2357 55.0893 55.5872 53.8464C55.5073 53.8464 55.3955 53.8782 55.3475 53.8464C54.2451 52.8424 53.6539 51.6154 53.8297 50.0696C53.1906 49.8624 52.8391 49.6712 52.887 48.747C52.9509 47.5518 52.4876 46.3088 52.2159 44.9065C51.7845 45.3367 51.5289 45.5917 51.2573 45.8467L49.7394 42.6118C50.7939 43.2651 51.5609 43.7591 52.4077 44.2691C52.7752 43.281 53.4941 43.1376 54.4528 43.4723C56.3701 44.1575 58.3354 44.7153 60.2207 45.4483C61.4829 45.9423 63.0008 45.0977 63.2245 43.7113C63.3523 42.8667 63.6719 42.054 63.9115 41.2254C64.2311 40.1736 64.5826 39.1378 64.9021 38.0701C65.03 37.6717 65.0619 37.2415 65.1738 36.6837C65.5572 37.0502 65.6851 37.1618 65.9247 37.3849C65.7809 36.9227 65.701 36.62 65.6052 36.3172L65.8768 36.2056C66.0366 36.5084 66.1963 36.8112 66.3401 37.0821C66.6118 37.0343 66.9473 36.8749 67.171 36.9546C68.0497 37.2893 68.7368 39.2015 68.2255 39.9346C67.858 40.4764 68.0018 40.7154 68.5291 40.9066C68.9285 41.0501 69.3279 41.1775 69.9351 41.3688C69.7274 40.7792 69.5996 40.4126 69.4238 39.9027L69.4558 39.9505ZM39.7534 39.7752C39.0823 40.4604 38.635 41.2413 37.9799 41.5759C34.9282 43.0898 31.8285 44.5081 28.7129 45.9104C28.1697 46.1495 27.4986 46.1017 26.9713 46.3726C26.0606 46.8347 25.2138 47.4084 24.383 47.9661C23.4882 48.5717 22.3378 48.9541 22.21 50.3086C22.194 50.4839 21.8745 50.6274 21.7467 50.8027C21.6188 50.9779 21.4431 51.217 21.491 51.3763C21.6987 52.2209 21.9544 53.0496 22.21 53.8782C22.4656 54.7228 22.7053 55.5515 22.9769 56.4757C23.2805 56.651 23.9835 56.8263 24.2232 57.2406C24.9582 58.5155 25.6612 59.8381 26.0926 61.2405C26.5879 62.834 26.9554 64.4117 27.9939 65.798C28.7289 66.7701 29.2721 67.8856 29.9272 68.9692C30.4065 68.7461 30.8379 68.3956 31.2853 68.3637C32.212 68.284 32.228 67.9175 31.9244 67.2004C31.4131 65.9733 31.0137 64.7144 30.5184 63.4715C30.4065 63.1846 30.1029 62.9774 29.9112 62.7065C29.7355 62.4516 29.3999 62.0532 29.4798 61.8938C30.0231 60.7783 29.1762 60.2365 28.665 59.4876C28.3135 58.9776 28.3614 58.1808 28.2336 57.5275C28.8088 57.4478 29.3999 57.3681 29.9272 57.2884C30.1029 57.0335 30.3586 56.6829 30.5982 56.3323L30.9178 57.0175C31.1095 56.8422 31.2853 56.6988 31.4131 56.5395C31.6368 56.2526 31.7646 55.8224 32.0682 55.663C32.915 55.1849 33.8257 54.8025 34.7205 54.4041C35.8069 53.926 36.8135 52.9858 37.9 53.7985C38.2515 53.3045 38.4752 52.7627 38.8746 52.4918C39.5457 52.0456 40.3446 51.8066 41.0795 51.4241C42.901 50.468 42.8371 50.468 42.0382 48.6035C41.5429 47.4402 40.8239 46.8666 39.5457 47.1693C39.4339 47.5359 39.322 47.9342 39.2261 48.2689C38.3953 47.9024 37.6763 47.5518 36.9414 47.249C36.6058 47.1215 35.9507 47.0578 35.9507 46.994C35.9667 46.4682 35.9507 45.6873 36.2543 45.4642C36.8295 45.0658 37.6124 44.9065 38.3474 44.8109C39.0664 44.6993 39.9451 45.4802 40.4564 44.3806C40.2327 44.1894 40.025 44.0141 39.8013 43.8229C40.9677 42.8508 42.7412 42.9305 43.3004 41.6875C42.6933 40.9704 42.2459 40.4445 41.7506 39.8708L40.2647 40.5561C40.0889 40.2692 39.9451 40.0142 39.7694 39.7433L39.7534 39.7752Z" fill="#5E4260"/>
<path d="M32.211 50.9462C32.1631 51.1853 32.0992 51.5837 31.9714 51.9502C31.8915 52.1733 31.6997 52.5239 31.5559 52.5239C31.3003 52.5239 30.9967 52.3645 30.773 52.1892C30.3896 51.8705 30.054 51.4881 29.7025 51.1215C29.5907 51.6634 29.4948 52.2052 29.3191 53.0657C28.4084 53.3525 27.7213 54.9301 26.1875 54.7867C25.7241 53.7987 25.3087 52.9223 24.8613 51.9502C25.4205 51.8386 25.9478 51.7271 26.4751 51.6155C26.3792 51.2172 26.1715 50.8188 26.2034 50.4204C26.2514 49.6873 28.4563 48.8427 29.1273 49.2411C29.367 49.3846 29.6706 49.4005 29.6866 49.4005C29.7824 48.9224 29.8463 48.3487 29.9102 48.3487C30.5813 48.3487 31.3003 48.285 31.8915 48.5081C33.1697 48.9702 33.5851 48.7631 33.5531 47.4564C33.5372 46.7871 33.9206 46.564 35.071 46.5799C35.7261 48.6834 37.4836 48.7312 39.2731 48.7312V49.0977C38.7459 49.1615 38.2026 49.1933 37.6754 49.3208C37.3239 49.4005 36.9244 49.512 36.6528 49.7511C35.8699 50.4044 35.2787 51.3287 33.9845 50.5797C33.649 50.3885 32.962 50.771 32.227 50.9303L32.211 50.9462Z" fill="#5E4260"/>
</g>
</g>
<defs>
<clipPath id="clip0_843_468">
<rect width="97" height="97" fill="white"/>
</clipPath>
</defs>
</svg>
