<svg width="41" height="17" viewBox="0 0 41 17" fill="none" xmlns="http://www.w3.org/2000/svg">
<path d="M0.671875 3.48761V16.7978H3.01745V10.2496H16.069V7.90815H3.01745V3.48761C3.01745 2.95812 3.44569 2.53064 3.97612 2.53064H18.7455V0.189209H3.97612C2.15611 0.189209 0.671875 1.67082 0.671875 3.48761Z" fill="#6B503E" fill-opacity="0.7"/>
<path d="M39.6414 0.276623C39.2034 0.0968874 38.6973 0.194042 38.3616 0.529226L30.736 8.12672L23.1202 0.529226C22.7844 0.194042 22.2783 0.0968874 21.8403 0.276623C21.4023 0.45636 21.1152 0.88384 21.1152 1.3599V16.7978H23.4608V4.18224L29.9136 10.609C30.371 11.0656 31.1107 11.0656 31.5681 10.609L38.0209 4.18224V16.7978H40.3665V1.3599C40.3665 0.888698 40.0794 0.461217 39.6414 0.276623Z" fill="#6B503E" fill-opacity="0.7"/>
</svg>
