<svg width="203" height="208" viewBox="0 0 203 208" fill="none" xmlns="http://www.w3.org/2000/svg">
<path opacity="0.8" d="M176.512 204.453C156.9 208.695 116.941 213.906 97.0996 178.305C86.6737 159.582 88.5108 143.257 89.8428 131.359C91.0829 120.014 90.6695 119.23 87.9137 116.417C85.5254 113.973 83.872 113.558 72.2518 114.849C60.1264 116.187 41.7546 118.262 24.2555 104.888C-6.42536 81.5077 -0.0870926 41.5252 2.99018 22.2948L3.58726 18.5133C5.28665 6.93823 16.0801 -1.03982 27.6084 0.666464C39.1826 2.41887 47.1284 13.21 45.429 24.7851L44.786 28.9816C42.0302 46.229 40.193 63.7069 49.8842 71.1316C53.5585 73.9447 57.4625 73.8063 67.567 72.6534C80.7488 71.1777 100.682 68.9641 118.043 86.5804C135.451 104.289 133.292 123.427 131.914 136.109C130.858 145.747 130.444 151.05 134.073 157.599C138.804 166.084 150.056 167.468 172.929 161.749L177.109 160.781C188.545 158.291 199.798 165.577 202.232 177.06C204.712 188.543 197.456 199.841 186.019 202.285L182.804 203.023C181.059 203.438 178.946 203.945 176.512 204.499V204.453Z" fill="#6B503E" fill-opacity="0.1"/>
</svg>
