<svg width="149" height="153" viewBox="0 0 149 153" fill="none" xmlns="http://www.w3.org/2000/svg">
<path opacity="0.8" d="M129.63 150.206C115.21 153.312 85.8286 157.127 71.2392 131.064C63.5731 117.358 64.9239 105.407 65.9033 96.6972C66.8151 88.3923 66.5112 87.8184 64.4849 85.7591C62.7288 83.9698 61.513 83.666 52.9688 84.6113C44.053 85.5903 30.5444 87.1095 17.6774 77.3192C-4.8821 60.2031 -0.22161 30.9337 2.04109 16.8559L2.48012 14.0877C3.72967 5.61403 11.666 -0.226369 20.1427 1.02273C28.6532 2.30559 34.4957 10.2053 33.2461 18.679L32.7733 21.7511C30.747 34.3771 29.3961 47.172 36.522 52.6073C39.2237 54.6666 42.0943 54.5653 49.524 53.7213C59.2165 52.641 73.8734 51.0206 86.6391 63.9167C99.4386 76.8803 97.8513 90.8905 96.8381 100.174C96.0614 107.23 95.7575 111.112 98.4254 115.906C101.904 122.118 110.178 123.131 126.996 118.945L130.069 118.236C138.479 116.413 146.753 121.747 148.543 130.153C150.366 138.559 145.03 146.83 136.621 148.619L134.257 149.159C132.974 149.463 131.42 149.835 129.63 150.24V150.206Z" fill="#DBBF7C" fill-opacity="0.25"/>
</svg>
