<svg width="41" height="17" viewBox="0 0 41 17" fill="none" xmlns="http://www.w3.org/2000/svg">
<g opacity="0.7">
<path d="M0.648438 3.50641V16.8166H2.99402V10.2684H16.0456V7.92695H2.99402V3.50641C2.99402 2.97692 3.42225 2.54944 3.95269 2.54944H18.722V0.208008H3.95269C2.13267 0.208008 0.648438 1.68962 0.648438 3.50641Z" fill="#5D3B3A" fill-opacity="0.7"/>
<path d="M39.618 0.295422C39.18 0.115686 38.6739 0.212841 38.3381 0.548024L30.7126 8.14552L23.0967 0.548024C22.761 0.212841 22.2549 0.115686 21.8169 0.295422C21.3789 0.475158 21.0918 0.902639 21.0918 1.3787V16.8166H23.4374V4.20104L29.8901 10.6278C30.3476 11.0844 31.0873 11.0844 31.5447 10.6278L37.9975 4.20104V16.8166H40.3431V1.3787C40.3431 0.907497 40.0559 0.480016 39.618 0.295422Z" fill="#5D3B3A" fill-opacity="0.7"/>
</g>
</svg>
