<svg width="175" height="179" viewBox="0 0 175 179" fill="none" xmlns="http://www.w3.org/2000/svg">
<path opacity="0.8" d="M152.184 176.295C135.264 179.949 100.79 184.437 83.6714 153.775C74.6764 137.65 76.2614 123.59 77.4106 113.343C78.4804 103.573 78.1238 102.897 75.7463 100.475C73.6858 98.3697 72.2592 98.0122 62.234 99.1243C51.7729 100.276 35.9227 102.063 20.8255 90.5454C-5.64432 70.4089 -0.176012 35.9742 2.47889 19.4121L2.99402 16.1553C4.46016 6.18636 13.7721 -0.684687 23.7181 0.784844C33.7037 2.29409 40.5589 11.5879 39.0928 21.5569L38.538 25.1711C36.1605 40.0253 34.5755 55.0781 42.9364 61.4725C46.1065 63.8953 49.4746 63.7761 58.1922 62.7832C69.5647 61.5122 86.7621 59.6058 101.741 74.7777C116.759 90.0291 114.896 106.512 113.707 117.434C112.796 125.735 112.439 130.302 115.57 135.942C119.651 143.25 129.359 144.441 149.093 139.517L152.699 138.682C162.566 136.538 172.274 142.813 174.374 152.703C176.514 162.592 170.253 172.323 160.386 174.428L157.612 175.063C156.107 175.421 154.284 175.858 152.184 176.334V176.295Z" fill="#DBBF7C" fill-opacity="0.15"/>
</svg>
