<svg width="41" height="17" viewBox="0 0 41 17" fill="none" xmlns="http://www.w3.org/2000/svg">
<path d="M0.648438 3.48785V16.798H2.99402V10.2498H16.0456V7.90839H2.99402V3.48785C2.99402 2.95836 3.42225 2.53088 3.95269 2.53088H18.722V0.189453H3.95269C2.13267 0.189453 0.648438 1.67106 0.648438 3.48785Z" fill="#785778" fill-opacity="0.7"/>
<path d="M39.618 0.276868C39.18 0.0971315 38.6739 0.194286 38.3381 0.52947L30.7126 8.12696L23.0967 0.52947C22.761 0.194286 22.2549 0.0971315 21.8169 0.276868C21.3789 0.456604 21.0918 0.884084 21.0918 1.36014V16.798H23.4374V4.18249L29.8901 10.6093C30.3476 11.0659 31.0873 11.0659 31.5447 10.6093L37.9975 4.18249V16.798H40.3431V1.36014C40.3431 0.888942 40.0559 0.461461 39.618 0.276868Z" fill="#785778" fill-opacity="0.7"/>
</svg>
