<svg width="170" height="30" viewBox="0 0 170 30" fill="none" xmlns="http://www.w3.org/2000/svg">
<g opacity="0.8">
<path d="M53.2144 2.82227V19.707H50.9321V11.2646H49.355V18.8906H47.1284V3.10059H49.355V9.35352H50.9321V2.82227H53.2144ZM39.3354 15.5879V4.69629H41.7104V13.519C43.0649 13.4819 44.5586 13.3613 46.1821 13.0459L46.4233 15.0869C44.1597 15.4766 42.23 15.5972 40.4858 15.5879H39.3354ZM68.2622 4.43652C68.2437 9.65039 66.9819 13.9829 60.6733 17.1465L59.3745 15.3652C62.1948 13.9644 63.874 12.3965 64.8296 10.5225L59.8384 10.9863L59.5415 8.96387L65.5439 8.60205C65.7202 7.8877 65.8408 7.12695 65.8965 6.3291H60.4321V4.43652H68.2622ZM70.396 19.6699V2.82227H72.771V9.29785H75.1646V11.2461H72.771V19.6699H70.396ZM89.6372 10.6338V12.5264H77.688V4.23242H89.5073V6.14355H80.0259V10.6338H89.6372ZM75.8696 17.6475V15.6992H91.3257V17.6475H75.8696ZM110.938 2.82227V19.7441H108.563V10.6338H105.539V8.7041H108.563V2.82227H110.938ZM96.4097 14.6973C99.2393 13.3984 100.622 10.1792 100.622 7.05273V6.34766H97.1147V4.45508H106.559V6.34766H103.052V7.05273C103.043 10.0215 104.416 13.1201 107.264 14.3447L105.873 16.2188C103.906 15.3096 102.588 13.5376 101.865 11.3853C101.132 13.686 99.7866 15.5972 97.8198 16.5713L96.4097 14.6973ZM122.683 3.9541V5.84668H119.325C119.334 7.81348 120.531 9.71533 123.221 10.5039L122.089 12.3594C120.225 11.7935 118.926 10.6523 118.184 9.21436C117.432 10.9121 116.059 12.2666 114.037 12.9346L112.831 11.0605C115.632 10.1792 116.903 7.98975 116.931 5.84668H113.48V3.9541H122.683ZM115.168 16.4229C115.159 14.3633 117.386 13.1665 120.958 13.1758C124.474 13.1665 126.645 14.3633 126.654 16.4229C126.645 18.4917 124.474 19.7163 120.958 19.707C117.386 19.7163 115.159 18.4917 115.168 16.4229ZM117.543 16.4229C117.525 17.3877 118.74 17.8701 120.958 17.8701C123.147 17.8701 124.316 17.3877 124.316 16.4229C124.316 15.4766 123.147 15.0034 120.958 15.0127C118.74 15.0034 117.525 15.4766 117.543 16.4229ZM124.112 12.8418V2.82227H126.487V6.7373H128.769V8.66699H126.487V12.8418H124.112ZM142.833 2.82227V9.42773H145.32V11.376H142.833V19.707H140.496V2.82227H142.833ZM129.418 7.23828V5.3457H133.241V3.08203H135.616V5.3457H139.345V7.23828H129.418ZM130.105 12.2109C130.096 9.85449 131.933 8.17529 134.428 8.18457C136.887 8.17529 138.733 9.85449 138.733 12.2109C138.733 14.5674 136.887 16.228 134.428 16.2373C131.933 16.228 130.096 14.5674 130.105 12.2109ZM132.369 12.2109C132.369 13.519 133.231 14.2983 134.428 14.2891C135.606 14.2983 136.469 13.519 136.469 12.2109C136.469 10.9121 135.606 10.1143 134.428 10.0957C133.231 10.1143 132.369 10.9121 132.369 12.2109ZM160.126 2.82227V19.707H157.733V2.82227H160.126ZM145.988 14.9199C150.348 12.8604 152.269 10.1885 152.649 6.44043H146.897V4.58496H155.061C155.052 9.70605 153.261 13.9644 147.231 16.8125L145.988 14.9199Z" fill="#2A3851"/>
<path d="M6 12L15.2308 19L24 12" stroke="#2A3851" stroke-width="3" stroke-linecap="round"/>
<path d="M15 3L15 17.5" stroke="#2A3851" stroke-width="3" stroke-linecap="round"/>
<path d="M2 28.5H168.5" stroke="#2A3851" stroke-width="3" stroke-linecap="round"/>
</g>
</svg>
